<svg width="610" height="340" viewBox="0 0 610 340" fill="none" xmlns="http://www.w3.org/2000/svg">
<rect width="610" height="340" rx="14" fill="#F7F7F7"/>
<rect x="41.5" y="100.082" width="437" height="194" rx="13.5" fill="white"/>
<rect x="41.5" y="100.082" width="437" height="194" rx="13.5" stroke="#F5F5F5"/>
<path d="M79.4318 137.309C79.4318 138.877 79.1383 140.219 78.5511 141.336C77.9688 142.449 77.1733 143.301 76.1648 143.893C75.161 144.485 74.0223 144.781 72.7486 144.781C71.4749 144.781 70.3338 144.485 69.3253 143.893C68.3215 143.297 67.526 142.442 66.9389 141.329C66.3565 140.212 66.0653 138.872 66.0653 137.309C66.0653 135.742 66.3565 134.402 66.9389 133.289C67.526 132.172 68.3215 131.317 69.3253 130.725C70.3338 130.134 71.4749 129.838 72.7486 129.838C74.0223 129.838 75.161 130.134 76.1648 130.725C77.1733 131.317 77.9688 132.172 78.5511 133.289C79.1383 134.402 79.4318 135.742 79.4318 137.309ZM76.7827 137.309C76.7827 136.206 76.6098 135.276 76.2642 134.518C75.9233 133.756 75.4498 133.181 74.8438 132.792C74.2377 132.399 73.5393 132.203 72.7486 132.203C71.9579 132.203 71.2595 132.399 70.6534 132.792C70.0473 133.181 69.5715 133.756 69.2259 134.518C68.8849 135.276 68.7145 136.206 68.7145 137.309C68.7145 138.413 68.8849 139.345 69.2259 140.108C69.5715 140.865 70.0473 141.44 70.6534 141.833C71.2595 142.222 71.9579 142.416 72.7486 142.416C73.5393 142.416 74.2377 142.222 74.8438 141.833C75.4498 141.44 75.9233 140.865 76.2642 140.108C76.6098 139.345 76.7827 138.413 76.7827 137.309ZM91.5536 133.673L87.6687 144.582H84.8278L80.9428 133.673H83.6843L86.1914 141.777H86.305L88.8192 133.673H91.5536ZM97.7912 144.795C96.6974 144.795 95.7528 144.568 94.9574 144.113C94.1667 143.654 93.5582 143.005 93.1321 142.167C92.706 141.324 92.4929 140.333 92.4929 139.191C92.4929 138.069 92.706 137.084 93.1321 136.237C93.563 135.385 94.1643 134.722 94.9361 134.248C95.7079 133.77 96.6146 133.531 97.6562 133.531C98.3286 133.531 98.9631 133.64 99.5597 133.858C100.161 134.071 100.691 134.402 101.151 134.852C101.615 135.302 101.979 135.875 102.244 136.571C102.509 137.262 102.642 138.086 102.642 139.042V139.831H93.7003V138.098H100.178C100.173 137.605 100.066 137.167 99.858 136.784C99.6496 136.395 99.3584 136.09 98.9844 135.868C98.6151 135.645 98.1842 135.534 97.6918 135.534C97.1662 135.534 96.7045 135.662 96.3068 135.917C95.9091 136.168 95.599 136.5 95.3764 136.912C95.1586 137.319 95.0473 137.766 95.0426 138.254V139.767C95.0426 140.401 95.1586 140.946 95.3906 141.4C95.6226 141.85 95.947 142.196 96.3636 142.437C96.7803 142.674 97.268 142.792 97.8267 142.792C98.2008 142.792 98.5393 142.74 98.8423 142.636C99.1454 142.527 99.4081 142.368 99.6307 142.16C99.8532 141.952 100.021 141.694 100.135 141.386L102.536 141.656C102.384 142.29 102.095 142.844 101.669 143.318C101.248 143.787 100.708 144.151 100.05 144.412C99.3916 144.667 98.6387 144.795 97.7912 144.795ZM104.817 144.582V133.673H107.31V135.491H107.424C107.623 134.861 107.963 134.376 108.446 134.035C108.934 133.69 109.49 133.517 110.115 133.517C110.257 133.517 110.416 133.524 110.591 133.538C110.771 133.547 110.92 133.564 111.039 133.588V135.953C110.93 135.915 110.757 135.882 110.52 135.853C110.288 135.82 110.063 135.804 109.846 135.804C109.377 135.804 108.955 135.905 108.581 136.109C108.212 136.308 107.921 136.585 107.708 136.94C107.495 137.295 107.388 137.705 107.388 138.169V144.582H104.817ZM115.691 144.802C114.999 144.802 114.377 144.679 113.823 144.433C113.274 144.182 112.838 143.813 112.516 143.325C112.199 142.837 112.04 142.236 112.04 141.521C112.04 140.905 112.154 140.396 112.381 139.994C112.608 139.592 112.918 139.27 113.311 139.028C113.704 138.787 114.147 138.604 114.64 138.481C115.137 138.353 115.65 138.261 116.181 138.204C116.82 138.138 117.338 138.079 117.736 138.027C118.134 137.97 118.423 137.885 118.603 137.771C118.787 137.653 118.88 137.47 118.88 137.224V137.181C118.88 136.646 118.721 136.232 118.404 135.939C118.087 135.645 117.63 135.498 117.033 135.498C116.403 135.498 115.904 135.636 115.534 135.91C115.17 136.185 114.924 136.509 114.796 136.883L112.395 136.542C112.585 135.879 112.897 135.325 113.333 134.88C113.768 134.431 114.301 134.094 114.931 133.872C115.56 133.645 116.257 133.531 117.019 133.531C117.544 133.531 118.068 133.592 118.588 133.716C119.109 133.839 119.585 134.042 120.016 134.326C120.447 134.606 120.792 134.987 121.053 135.47C121.318 135.953 121.451 136.556 121.451 137.281V144.582H118.979V143.083H118.894C118.738 143.386 118.517 143.671 118.233 143.936C117.954 144.196 117.601 144.407 117.175 144.568C116.754 144.724 116.259 144.802 115.691 144.802ZM116.358 142.913C116.874 142.913 117.322 142.811 117.701 142.608C118.079 142.399 118.371 142.125 118.574 141.784C118.783 141.443 118.887 141.071 118.887 140.669V139.383C118.806 139.449 118.669 139.511 118.475 139.568C118.285 139.625 118.072 139.674 117.836 139.717C117.599 139.76 117.364 139.797 117.132 139.831C116.9 139.864 116.699 139.892 116.529 139.916C116.145 139.968 115.802 140.053 115.499 140.172C115.196 140.29 114.957 140.456 114.782 140.669C114.606 140.877 114.519 141.147 114.519 141.478C114.519 141.952 114.692 142.309 115.037 142.551C115.383 142.792 115.823 142.913 116.358 142.913ZM126.607 130.037V144.582H124.036V130.037H126.607ZM131.822 130.037V144.582H129.251V130.037H131.822ZM139.54 144.582V130.037H142.175V136.194H148.915V130.037H151.557V144.582H148.915V138.403H142.175V144.582H139.54ZM159.139 144.795C158.045 144.795 157.1 144.568 156.305 144.113C155.514 143.654 154.906 143.005 154.48 142.167C154.054 141.324 153.841 140.333 153.841 139.191C153.841 138.069 154.054 137.084 154.48 136.237C154.911 135.385 155.512 134.722 156.284 134.248C157.056 133.77 157.962 133.531 159.004 133.531C159.676 133.531 160.311 133.64 160.907 133.858C161.509 134.071 162.039 134.402 162.498 134.852C162.962 135.302 163.327 135.875 163.592 136.571C163.857 137.262 163.99 138.086 163.99 139.042V139.831H155.048V138.098H161.525C161.52 137.605 161.414 137.167 161.206 136.784C160.997 136.395 160.706 136.09 160.332 135.868C159.963 135.645 159.532 135.534 159.039 135.534C158.514 135.534 158.052 135.662 157.654 135.917C157.257 136.168 156.947 136.5 156.724 136.912C156.506 137.319 156.395 137.766 156.39 138.254V139.767C156.39 140.401 156.506 140.946 156.738 141.4C156.97 141.85 157.295 142.196 157.711 142.437C158.128 142.674 158.616 142.792 159.174 142.792C159.548 142.792 159.887 142.74 160.19 142.636C160.493 142.527 160.756 142.368 160.978 142.16C161.201 141.952 161.369 141.694 161.483 141.386L163.883 141.656C163.732 142.29 163.443 142.844 163.017 143.318C162.595 143.787 162.056 144.151 161.397 144.412C160.739 144.667 159.986 144.795 159.139 144.795ZM169.304 144.802C168.613 144.802 167.99 144.679 167.436 144.433C166.887 144.182 166.451 143.813 166.129 143.325C165.812 142.837 165.653 142.236 165.653 141.521C165.653 140.905 165.767 140.396 165.994 139.994C166.222 139.592 166.532 139.27 166.925 139.028C167.318 138.787 167.76 138.604 168.253 138.481C168.75 138.353 169.264 138.261 169.794 138.204C170.433 138.138 170.952 138.079 171.349 138.027C171.747 137.97 172.036 137.885 172.216 137.771C172.401 137.653 172.493 137.47 172.493 137.224V137.181C172.493 136.646 172.334 136.232 172.017 135.939C171.7 135.645 171.243 135.498 170.646 135.498C170.017 135.498 169.517 135.636 169.148 135.91C168.783 136.185 168.537 136.509 168.409 136.883L166.009 136.542C166.198 135.879 166.51 135.325 166.946 134.88C167.382 134.431 167.914 134.094 168.544 133.872C169.174 133.645 169.87 133.531 170.632 133.531C171.158 133.531 171.681 133.592 172.202 133.716C172.723 133.839 173.198 134.042 173.629 134.326C174.06 134.606 174.406 134.987 174.666 135.47C174.931 135.953 175.064 136.556 175.064 137.281V144.582H172.592V143.083H172.507C172.351 143.386 172.131 143.671 171.847 143.936C171.567 144.196 171.214 144.407 170.788 144.568C170.367 144.724 169.872 144.802 169.304 144.802ZM169.972 142.913C170.488 142.913 170.935 142.811 171.314 142.608C171.693 142.399 171.984 142.125 172.188 141.784C172.396 141.443 172.5 141.071 172.5 140.669V139.383C172.42 139.449 172.282 139.511 172.088 139.568C171.899 139.625 171.686 139.674 171.449 139.717C171.212 139.76 170.978 139.797 170.746 139.831C170.514 139.864 170.313 139.892 170.142 139.916C169.759 139.968 169.415 140.053 169.112 140.172C168.809 140.29 168.57 140.456 168.395 140.669C168.22 140.877 168.132 141.147 168.132 141.478C168.132 141.952 168.305 142.309 168.651 142.551C168.996 142.792 169.437 142.913 169.972 142.913ZM180.22 130.037V144.582H177.649V130.037H180.22ZM188.311 133.673V135.662H182.04V133.673H188.311ZM183.588 131.059H186.159V141.301C186.159 141.646 186.212 141.912 186.316 142.096C186.425 142.276 186.567 142.399 186.742 142.466C186.917 142.532 187.111 142.565 187.324 142.565C187.485 142.565 187.632 142.553 187.765 142.529C187.902 142.506 188.006 142.484 188.077 142.466L188.51 144.475C188.373 144.523 188.176 144.575 187.921 144.632C187.67 144.689 187.362 144.722 186.998 144.731C186.354 144.75 185.774 144.653 185.257 144.44C184.741 144.222 184.332 143.886 184.029 143.431C183.73 142.977 183.584 142.409 183.588 141.727V131.059ZM193.267 138.19V144.582H190.696V130.037H193.21V135.527H193.338C193.594 134.911 193.989 134.426 194.524 134.071C195.064 133.711 195.75 133.531 196.584 133.531C197.341 133.531 198.002 133.69 198.565 134.007C199.129 134.324 199.564 134.788 199.872 135.399C200.185 136.01 200.341 136.755 200.341 137.636V144.582H197.77V138.034C197.77 137.3 197.58 136.729 197.202 136.322C196.828 135.91 196.302 135.704 195.625 135.704C195.17 135.704 194.763 135.804 194.403 136.002C194.048 136.197 193.769 136.478 193.565 136.848C193.366 137.217 193.267 137.664 193.267 138.19ZM215.941 134.035C215.875 133.415 215.595 132.932 215.103 132.586C214.615 132.241 213.981 132.068 213.2 132.068C212.65 132.068 212.179 132.151 211.786 132.316C211.393 132.482 211.093 132.707 210.884 132.991C210.676 133.275 210.569 133.6 210.565 133.964C210.565 134.267 210.633 134.53 210.771 134.752C210.913 134.975 211.104 135.164 211.346 135.321C211.587 135.472 211.855 135.6 212.148 135.704C212.442 135.808 212.738 135.896 213.036 135.967L214.4 136.308C214.949 136.436 215.477 136.609 215.984 136.826C216.495 137.044 216.952 137.319 217.354 137.65C217.762 137.982 218.084 138.382 218.32 138.85C218.557 139.319 218.675 139.868 218.675 140.498C218.675 141.35 218.458 142.101 218.022 142.75C217.586 143.394 216.957 143.898 216.133 144.262C215.314 144.622 214.322 144.802 213.157 144.802C212.025 144.802 211.043 144.627 210.21 144.277C209.381 143.926 208.732 143.415 208.263 142.743C207.799 142.07 207.549 141.251 207.511 140.285H210.103C210.141 140.792 210.297 141.213 210.572 141.549C210.846 141.886 211.204 142.136 211.644 142.302C212.089 142.468 212.586 142.551 213.136 142.551C213.709 142.551 214.21 142.466 214.641 142.295C215.077 142.12 215.418 141.878 215.664 141.571C215.91 141.258 216.036 140.894 216.04 140.477C216.036 140.098 215.924 139.786 215.707 139.539C215.489 139.288 215.183 139.08 214.79 138.914C214.402 138.744 213.948 138.592 213.427 138.46L211.772 138.034C210.574 137.726 209.627 137.26 208.931 136.635C208.24 136.005 207.894 135.169 207.894 134.127C207.894 133.27 208.126 132.52 208.59 131.876C209.059 131.232 209.696 130.733 210.501 130.377C211.306 130.018 212.217 129.838 213.235 129.838C214.267 129.838 215.172 130.018 215.948 130.377C216.729 130.733 217.343 131.227 217.788 131.862C218.233 132.492 218.462 133.216 218.477 134.035H215.941ZM225.669 144.795C224.58 144.795 223.645 144.556 222.864 144.078C222.087 143.6 221.489 142.939 221.067 142.096C220.65 141.249 220.442 140.273 220.442 139.17C220.442 138.062 220.655 137.084 221.081 136.237C221.507 135.385 222.109 134.722 222.885 134.248C223.667 133.77 224.59 133.531 225.655 133.531C226.541 133.531 227.324 133.694 228.006 134.021C228.693 134.343 229.239 134.8 229.647 135.392C230.054 135.979 230.286 136.665 230.343 137.451H227.885C227.786 136.926 227.549 136.488 227.175 136.137C226.806 135.782 226.311 135.605 225.691 135.605C225.165 135.605 224.703 135.747 224.306 136.031C223.908 136.31 223.598 136.713 223.375 137.238C223.158 137.764 223.049 138.394 223.049 139.127C223.049 139.871 223.158 140.51 223.375 141.045C223.593 141.575 223.899 141.985 224.292 142.274C224.689 142.558 225.156 142.7 225.691 142.7C226.069 142.7 226.408 142.629 226.706 142.487C227.009 142.34 227.263 142.129 227.466 141.855C227.67 141.58 227.81 141.246 227.885 140.853H230.343C230.281 141.625 230.054 142.309 229.661 142.906C229.268 143.498 228.733 143.962 228.056 144.298C227.379 144.629 226.583 144.795 225.669 144.795ZM237.212 144.795C236.147 144.795 235.224 144.561 234.442 144.092C233.661 143.623 233.055 142.967 232.624 142.125C232.198 141.282 231.985 140.297 231.985 139.17C231.985 138.043 232.198 137.056 232.624 136.208C233.055 135.361 233.661 134.703 234.442 134.234C235.224 133.765 236.147 133.531 237.212 133.531C238.278 133.531 239.201 133.765 239.982 134.234C240.763 134.703 241.367 135.361 241.793 136.208C242.224 137.056 242.44 138.043 242.44 139.17C242.44 140.297 242.224 141.282 241.793 142.125C241.367 142.967 240.763 143.623 239.982 144.092C239.201 144.561 238.278 144.795 237.212 144.795ZM237.227 142.735C237.804 142.735 238.287 142.577 238.675 142.26C239.064 141.938 239.353 141.507 239.542 140.967C239.736 140.427 239.833 139.826 239.833 139.163C239.833 138.495 239.736 137.892 239.542 137.352C239.353 136.807 239.064 136.374 238.675 136.052C238.287 135.73 237.804 135.569 237.227 135.569C236.635 135.569 236.142 135.73 235.749 136.052C235.361 136.374 235.07 136.807 234.876 137.352C234.686 137.892 234.592 138.495 234.592 139.163C234.592 139.826 234.686 140.427 234.876 140.967C235.07 141.507 235.361 141.938 235.749 142.26C236.142 142.577 236.635 142.735 237.227 142.735ZM244.622 144.582V133.673H247.115V135.491H247.228C247.427 134.861 247.768 134.376 248.251 134.035C248.739 133.69 249.295 133.517 249.92 133.517C250.062 133.517 250.221 133.524 250.396 133.538C250.576 133.547 250.725 133.564 250.843 133.588V135.953C250.734 135.915 250.562 135.882 250.325 135.853C250.093 135.82 249.868 135.804 249.65 135.804C249.181 135.804 248.76 135.905 248.386 136.109C248.017 136.308 247.725 136.585 247.512 136.94C247.299 137.295 247.193 137.705 247.193 138.169V144.582H244.622ZM256.932 144.795C255.838 144.795 254.893 144.568 254.098 144.113C253.307 143.654 252.699 143.005 252.273 142.167C251.847 141.324 251.634 140.333 251.634 139.191C251.634 138.069 251.847 137.084 252.273 136.237C252.704 135.385 253.305 134.722 254.077 134.248C254.848 133.77 255.755 133.531 256.797 133.531C257.469 133.531 258.104 133.64 258.7 133.858C259.302 134.071 259.832 134.402 260.291 134.852C260.755 135.302 261.12 135.875 261.385 136.571C261.65 137.262 261.783 138.086 261.783 139.042V139.831H252.841V138.098H259.318C259.313 137.605 259.207 137.167 258.999 136.784C258.79 136.395 258.499 136.09 258.125 135.868C257.756 135.645 257.325 135.534 256.832 135.534C256.307 135.534 255.845 135.662 255.447 135.917C255.05 136.168 254.74 136.5 254.517 136.912C254.299 137.319 254.188 137.766 254.183 138.254V139.767C254.183 140.401 254.299 140.946 254.531 141.4C254.763 141.85 255.088 142.196 255.504 142.437C255.921 142.674 256.409 142.792 256.967 142.792C257.341 142.792 257.68 142.74 257.983 142.636C258.286 142.527 258.549 142.368 258.771 142.16C258.994 141.952 259.162 141.694 259.276 141.386L261.676 141.656C261.525 142.29 261.236 142.844 260.81 143.318C260.388 143.787 259.848 144.151 259.19 144.412C258.532 144.667 257.779 144.795 256.932 144.795Z" fill="#383E49"/>
<path d="M66.233 169.582V159.4H72.3381V160.494H67.4659V163.934H71.8807V165.028H67.4659V169.582H66.233ZM74.2086 169.582V161.946H75.3422V163.099H75.4217C75.5609 162.721 75.8128 162.415 76.1774 162.179C76.542 161.944 76.9529 161.826 77.4103 161.826C77.4965 161.826 77.6042 161.828 77.7335 161.831C77.8627 161.835 77.9605 161.84 78.0268 161.846V163.039C77.987 163.029 77.8959 163.015 77.7534 162.995C77.6142 162.971 77.4667 162.96 77.3109 162.96C76.9397 162.96 76.6083 163.038 76.3166 163.194C76.0282 163.346 75.7995 163.558 75.6305 163.83C75.4648 164.098 75.3819 164.405 75.3819 164.75V169.582H74.2086ZM82.2875 169.741C81.5981 169.741 80.9932 169.577 80.4728 169.249C79.9558 168.921 79.5514 168.462 79.2598 167.872C78.9714 167.282 78.8272 166.592 78.8272 165.804C78.8272 165.008 78.9714 164.314 79.2598 163.721C79.5514 163.127 79.9558 162.667 80.4728 162.338C80.9932 162.01 81.5981 161.846 82.2875 161.846C82.9769 161.846 83.5801 162.01 84.0971 162.338C84.6175 162.667 85.0218 163.127 85.3102 163.721C85.6019 164.314 85.7477 165.008 85.7477 165.804C85.7477 166.592 85.6019 167.282 85.3102 167.872C85.0218 168.462 84.6175 168.921 84.0971 169.249C83.5801 169.577 82.9769 169.741 82.2875 169.741ZM82.2875 168.687C82.8111 168.687 83.242 168.553 83.5801 168.284C83.9181 168.016 84.1684 167.663 84.3308 167.225C84.4932 166.788 84.5744 166.314 84.5744 165.804C84.5744 165.293 84.4932 164.818 84.3308 164.377C84.1684 163.936 83.9181 163.58 83.5801 163.308C83.242 163.036 82.8111 162.9 82.2875 162.9C81.7638 162.9 81.3329 163.036 80.9949 163.308C80.6568 163.58 80.4065 163.936 80.2441 164.377C80.0817 164.818 80.0005 165.293 80.0005 165.804C80.0005 166.314 80.0817 166.788 80.2441 167.225C80.4065 167.663 80.6568 168.016 80.9949 168.284C81.3329 168.553 81.7638 168.687 82.2875 168.687ZM87.5387 169.582V161.946H88.6722V163.139H88.7717C88.9308 162.731 89.1876 162.415 89.5423 162.189C89.8969 161.961 90.3228 161.846 90.82 161.846C91.3237 161.846 91.743 161.961 92.0778 162.189C92.4158 162.415 92.6793 162.731 92.8683 163.139H92.9478C93.1433 162.744 93.4367 162.431 93.8278 162.199C94.2189 161.964 94.6879 161.846 95.2347 161.846C95.9175 161.846 96.476 162.06 96.9102 162.488C97.3443 162.912 97.5614 163.573 97.5614 164.471V169.582H96.3881V164.471C96.3881 163.908 96.234 163.505 95.9258 163.263C95.6175 163.021 95.2546 162.9 94.837 162.9C94.3001 162.9 93.8841 163.063 93.5891 163.387C93.2942 163.709 93.1467 164.117 93.1467 164.61V169.582H91.9535V164.352C91.9535 163.918 91.8126 163.568 91.5309 163.303C91.2492 163.034 90.8862 162.9 90.4421 162.9C90.1372 162.9 89.8522 162.981 89.587 163.144C89.3252 163.306 89.113 163.532 88.9506 163.82C88.7915 164.105 88.712 164.435 88.712 164.809V169.582H87.5387ZM104.4 172.446C104.201 172.446 104.024 172.429 103.868 172.396C103.712 172.366 103.604 172.336 103.545 172.306L103.843 171.272C104.128 171.345 104.38 171.372 104.599 171.352C104.817 171.332 105.011 171.234 105.18 171.059C105.353 170.886 105.51 170.606 105.653 170.218L105.871 169.622L103.048 161.946H104.32L106.428 168.031H106.508L108.616 161.946H109.888L106.647 170.696C106.501 171.09 106.321 171.417 106.105 171.675C105.89 171.937 105.639 172.131 105.354 172.257C105.073 172.383 104.754 172.446 104.4 172.446ZM114.266 169.741C113.577 169.741 112.972 169.577 112.451 169.249C111.934 168.921 111.53 168.462 111.238 167.872C110.95 167.282 110.806 166.592 110.806 165.804C110.806 165.008 110.95 164.314 111.238 163.721C111.53 163.127 111.934 162.667 112.451 162.338C112.972 162.01 113.577 161.846 114.266 161.846C114.955 161.846 115.559 162.01 116.076 162.338C116.596 162.667 117 163.127 117.289 163.721C117.58 164.314 117.726 165.008 117.726 165.804C117.726 166.592 117.58 167.282 117.289 167.872C117 168.462 116.596 168.921 116.076 169.249C115.559 169.577 114.955 169.741 114.266 169.741ZM114.266 168.687C114.79 168.687 115.221 168.553 115.559 168.284C115.897 168.016 116.147 167.663 116.309 167.225C116.472 166.788 116.553 166.314 116.553 165.804C116.553 165.293 116.472 164.818 116.309 164.377C116.147 163.936 115.897 163.58 115.559 163.308C115.221 163.036 114.79 162.9 114.266 162.9C113.742 162.9 113.311 163.036 112.973 163.308C112.635 163.58 112.385 163.936 112.223 164.377C112.06 164.818 111.979 165.293 111.979 165.804C111.979 166.314 112.06 166.788 112.223 167.225C112.385 167.663 112.635 168.016 112.973 168.284C113.311 168.553 113.742 168.687 114.266 168.687ZM124.33 166.46V161.946H125.503V169.582H124.33V168.289H124.25C124.071 168.677 123.793 169.007 123.415 169.279C123.037 169.547 122.56 169.681 121.983 169.681C121.506 169.681 121.082 169.577 120.71 169.368C120.339 169.156 120.048 168.838 119.835 168.414C119.623 167.986 119.517 167.448 119.517 166.798V161.946H120.691V166.718C120.691 167.275 120.846 167.719 121.158 168.051C121.473 168.382 121.874 168.548 122.361 168.548C122.653 168.548 122.949 168.473 123.251 168.324C123.556 168.175 123.811 167.946 124.017 167.638C124.225 167.33 124.33 166.937 124.33 166.46ZM127.652 169.582V161.946H128.786V163.099H128.865C129.004 162.721 129.256 162.415 129.621 162.179C129.985 161.944 130.396 161.826 130.854 161.826C130.94 161.826 131.048 161.828 131.177 161.831C131.306 161.835 131.404 161.84 131.47 161.846V163.039C131.43 163.029 131.339 163.015 131.197 162.995C131.058 162.971 130.91 162.96 130.754 162.96C130.383 162.96 130.052 163.038 129.76 163.194C129.472 163.346 129.243 163.558 129.074 163.83C128.908 164.098 128.825 164.405 128.825 164.75V169.582H127.652ZM137.972 159.4V169.582H136.798V159.4H137.972ZM142.368 169.761C141.884 169.761 141.445 169.67 141.05 169.488C140.656 169.302 140.343 169.035 140.111 168.687C139.879 168.336 139.763 167.912 139.763 167.414C139.763 166.977 139.849 166.622 140.021 166.35C140.194 166.075 140.424 165.86 140.712 165.704C141.001 165.548 141.319 165.432 141.667 165.356C142.018 165.277 142.371 165.214 142.726 165.167C143.19 165.108 143.566 165.063 143.854 165.033C144.146 165 144.358 164.945 144.491 164.869C144.627 164.793 144.695 164.66 144.695 164.471V164.431C144.695 163.941 144.56 163.56 144.292 163.288C144.027 163.016 143.624 162.88 143.084 162.88C142.524 162.88 142.085 163.003 141.766 163.248C141.448 163.493 141.224 163.755 141.095 164.034L139.982 163.636C140.18 163.172 140.446 162.811 140.777 162.552C141.112 162.29 141.476 162.108 141.871 162.005C142.268 161.899 142.66 161.846 143.044 161.846C143.289 161.846 143.571 161.876 143.889 161.936C144.211 161.992 144.521 162.11 144.819 162.289C145.121 162.468 145.371 162.738 145.57 163.099C145.768 163.46 145.868 163.944 145.868 164.551V169.582H144.695V168.548H144.635C144.555 168.714 144.423 168.891 144.237 169.08C144.052 169.269 143.805 169.43 143.496 169.562C143.188 169.695 142.812 169.761 142.368 169.761ZM142.547 168.707C143.011 168.707 143.402 168.616 143.72 168.434C144.042 168.251 144.284 168.016 144.446 167.728C144.612 167.439 144.695 167.136 144.695 166.818V165.744C144.645 165.804 144.536 165.858 144.366 165.908C144.201 165.954 144.009 165.996 143.79 166.032C143.574 166.065 143.364 166.095 143.158 166.122C142.956 166.145 142.792 166.165 142.666 166.181C142.361 166.221 142.076 166.286 141.811 166.375C141.549 166.462 141.337 166.592 141.175 166.768C141.016 166.94 140.936 167.176 140.936 167.474C140.936 167.882 141.087 168.19 141.388 168.399C141.693 168.604 142.08 168.707 142.547 168.707ZM153.419 163.656L152.365 163.954C152.298 163.779 152.2 163.608 152.071 163.442C151.945 163.273 151.773 163.134 151.554 163.025C151.335 162.915 151.055 162.86 150.714 162.86C150.247 162.86 149.857 162.968 149.546 163.184C149.237 163.396 149.083 163.666 149.083 163.994C149.083 164.286 149.189 164.516 149.401 164.685C149.614 164.854 149.945 164.995 150.396 165.108L151.529 165.386C152.212 165.552 152.721 165.805 153.056 166.147C153.39 166.485 153.558 166.921 153.558 167.454C153.558 167.892 153.432 168.283 153.18 168.627C152.931 168.972 152.583 169.244 152.136 169.443C151.688 169.642 151.168 169.741 150.575 169.741C149.796 169.741 149.151 169.572 148.641 169.234C148.13 168.896 147.807 168.402 147.671 167.752L148.785 167.474C148.891 167.885 149.092 168.193 149.387 168.399C149.685 168.604 150.074 168.707 150.555 168.707C151.102 168.707 151.536 168.591 151.857 168.359C152.182 168.124 152.345 167.842 152.345 167.514C152.345 167.249 152.252 167.027 152.066 166.848C151.881 166.665 151.596 166.529 151.211 166.44L149.938 166.142C149.239 165.976 148.725 165.719 148.397 165.371C148.072 165.02 147.91 164.581 147.91 164.054C147.91 163.623 148.031 163.242 148.273 162.91C148.518 162.579 148.851 162.319 149.272 162.13C149.696 161.941 150.177 161.846 150.714 161.846C151.47 161.846 152.063 162.012 152.494 162.343C152.928 162.675 153.236 163.112 153.419 163.656ZM158.645 161.946V162.94H154.688V161.946H158.645ZM155.841 160.116H157.014V167.395C157.014 167.726 157.062 167.975 157.158 168.14C157.258 168.303 157.384 168.412 157.536 168.468C157.692 168.521 157.856 168.548 158.028 168.548C158.158 168.548 158.264 168.541 158.347 168.528C158.429 168.511 158.496 168.498 158.545 168.488L158.784 169.542C158.705 169.572 158.594 169.602 158.451 169.632C158.308 169.665 158.128 169.681 157.909 169.681C157.578 169.681 157.253 169.61 156.935 169.468C156.62 169.325 156.358 169.108 156.149 168.816C155.944 168.525 155.841 168.157 155.841 167.713V160.116ZM166.594 169.761C166.111 169.761 165.671 169.67 165.277 169.488C164.883 169.302 164.569 169.035 164.337 168.687C164.105 168.336 163.989 167.912 163.989 167.414C163.989 166.977 164.076 166.622 164.248 166.35C164.42 166.075 164.651 165.86 164.939 165.704C165.227 165.548 165.545 165.432 165.893 165.356C166.245 165.277 166.598 165.214 166.952 165.167C167.416 165.108 167.793 165.063 168.081 165.033C168.373 165 168.585 164.945 168.717 164.869C168.853 164.793 168.921 164.66 168.921 164.471V164.431C168.921 163.941 168.787 163.56 168.518 163.288C168.253 163.016 167.851 162.88 167.31 162.88C166.75 162.88 166.311 163.003 165.993 163.248C165.675 163.493 165.451 163.755 165.322 164.034L164.208 163.636C164.407 163.172 164.672 162.811 165.004 162.552C165.338 162.29 165.703 162.108 166.097 162.005C166.495 161.899 166.886 161.846 167.271 161.846C167.516 161.846 167.798 161.876 168.116 161.936C168.437 161.992 168.747 162.11 169.045 162.289C169.347 162.468 169.597 162.738 169.796 163.099C169.995 163.46 170.094 163.944 170.094 164.551V169.582H168.921V168.548H168.862C168.782 168.714 168.649 168.891 168.464 169.08C168.278 169.269 168.031 169.43 167.723 169.562C167.415 169.695 167.039 169.761 166.594 169.761ZM166.773 168.707C167.237 168.707 167.629 168.616 167.947 168.434C168.268 168.251 168.51 168.016 168.673 167.728C168.838 167.439 168.921 167.136 168.921 166.818V165.744C168.871 165.804 168.762 165.858 168.593 165.908C168.427 165.954 168.235 165.996 168.016 166.032C167.801 166.065 167.59 166.095 167.385 166.122C167.183 166.145 167.019 166.165 166.893 166.181C166.588 166.221 166.303 166.286 166.038 166.375C165.776 166.462 165.564 166.592 165.401 166.768C165.242 166.94 165.163 167.176 165.163 167.474C165.163 167.882 165.313 168.19 165.615 168.399C165.92 168.604 166.306 168.707 166.773 168.707ZM172.236 172.446V161.946H173.369V163.159H173.509C173.595 163.026 173.714 162.857 173.867 162.652C174.022 162.443 174.244 162.257 174.533 162.095C174.825 161.929 175.219 161.846 175.716 161.846C176.359 161.846 176.926 162.007 177.416 162.328C177.907 162.65 178.29 163.106 178.565 163.696C178.84 164.286 178.977 164.982 178.977 165.784C178.977 166.592 178.84 167.293 178.565 167.887C178.29 168.477 177.909 168.934 177.421 169.259C176.934 169.58 176.372 169.741 175.736 169.741C175.245 169.741 174.853 169.66 174.558 169.498C174.263 169.332 174.036 169.145 173.877 168.936C173.718 168.724 173.595 168.548 173.509 168.409H173.409V172.446H172.236ZM173.389 165.764C173.389 166.341 173.474 166.849 173.643 167.29C173.812 167.728 174.059 168.071 174.384 168.319C174.709 168.565 175.106 168.687 175.577 168.687C176.067 168.687 176.477 168.558 176.805 168.299C177.136 168.038 177.385 167.686 177.551 167.245C177.72 166.801 177.804 166.307 177.804 165.764C177.804 165.227 177.721 164.743 177.556 164.312C177.393 163.878 177.146 163.535 176.815 163.283C176.487 163.028 176.074 162.9 175.577 162.9C175.1 162.9 174.699 163.021 174.374 163.263C174.049 163.502 173.804 163.837 173.638 164.267C173.472 164.695 173.389 165.194 173.389 165.764ZM180.767 172.446V161.946H181.901V163.159H182.04C182.126 163.026 182.245 162.857 182.398 162.652C182.554 162.443 182.776 162.257 183.064 162.095C183.356 161.929 183.75 161.846 184.247 161.846C184.89 161.846 185.457 162.007 185.948 162.328C186.438 162.65 186.821 163.106 187.096 163.696C187.371 164.286 187.509 164.982 187.509 165.784C187.509 166.592 187.371 167.293 187.096 167.887C186.821 168.477 186.44 168.934 185.953 169.259C185.465 169.58 184.904 169.741 184.267 169.741C183.777 169.741 183.384 169.66 183.089 169.498C182.794 169.332 182.567 169.145 182.408 168.936C182.249 168.724 182.126 168.548 182.04 168.409H181.941V172.446H180.767ZM181.921 165.764C181.921 166.341 182.005 166.849 182.174 167.29C182.343 167.728 182.59 168.071 182.915 168.319C183.24 168.565 183.637 168.687 184.108 168.687C184.599 168.687 185.008 168.558 185.336 168.299C185.668 168.038 185.916 167.686 186.082 167.245C186.251 166.801 186.335 166.307 186.335 165.764C186.335 165.227 186.253 164.743 186.087 164.312C185.924 163.878 185.677 163.535 185.346 163.283C185.018 163.028 184.605 162.9 184.108 162.9C183.631 162.9 183.23 163.021 182.905 163.263C182.58 163.502 182.335 163.837 182.169 164.267C182.003 164.695 181.921 165.194 181.921 165.764ZM192.401 169.741C191.711 169.741 191.106 169.577 190.586 169.249C190.069 168.921 189.665 168.462 189.373 167.872C189.085 167.282 188.941 166.592 188.941 165.804C188.941 165.008 189.085 164.314 189.373 163.721C189.665 163.127 190.069 162.667 190.586 162.338C191.106 162.01 191.711 161.846 192.401 161.846C193.09 161.846 193.693 162.01 194.21 162.338C194.731 162.667 195.135 163.127 195.423 163.721C195.715 164.314 195.861 165.008 195.861 165.804C195.861 166.592 195.715 167.282 195.423 167.872C195.135 168.462 194.731 168.921 194.21 169.249C193.693 169.577 193.09 169.741 192.401 169.741ZM192.401 168.687C192.924 168.687 193.355 168.553 193.693 168.284C194.031 168.016 194.282 167.663 194.444 167.225C194.606 166.788 194.688 166.314 194.688 165.804C194.688 165.293 194.606 164.818 194.444 164.377C194.282 163.936 194.031 163.58 193.693 163.308C193.355 163.036 192.924 162.9 192.401 162.9C191.877 162.9 191.446 163.036 191.108 163.308C190.77 163.58 190.52 163.936 190.357 164.377C190.195 164.818 190.114 165.293 190.114 165.804C190.114 166.314 190.195 166.788 190.357 167.225C190.52 167.663 190.77 168.016 191.108 168.284C191.446 168.553 191.877 168.687 192.401 168.687ZM197.652 169.582V161.946H198.825V169.582H197.652ZM198.249 160.673C198.02 160.673 197.823 160.595 197.657 160.439C197.495 160.283 197.413 160.096 197.413 159.877C197.413 159.659 197.495 159.471 197.657 159.316C197.823 159.16 198.02 159.082 198.249 159.082C198.477 159.082 198.673 159.16 198.835 159.316C199.001 159.471 199.084 159.659 199.084 159.877C199.084 160.096 199.001 160.283 198.835 160.439C198.673 160.595 198.477 160.673 198.249 160.673ZM202.148 164.988V169.582H200.974V161.946H202.108V163.139H202.207C202.386 162.751 202.658 162.44 203.023 162.204C203.387 161.966 203.858 161.846 204.434 161.846C204.952 161.846 205.404 161.952 205.792 162.164C206.18 162.373 206.481 162.691 206.697 163.119C206.912 163.543 207.02 164.08 207.02 164.73V169.582H205.846V164.809C205.846 164.209 205.691 163.742 205.379 163.407C205.068 163.069 204.64 162.9 204.096 162.9C203.722 162.9 203.387 162.981 203.092 163.144C202.8 163.306 202.57 163.543 202.401 163.855C202.232 164.166 202.148 164.544 202.148 164.988ZM212.485 161.946V162.94H208.527V161.946H212.485ZM209.681 160.116H210.854V167.395C210.854 167.726 210.902 167.975 210.998 168.14C211.098 168.303 211.224 168.412 211.376 168.468C211.532 168.521 211.696 168.548 211.868 168.548C211.998 168.548 212.104 168.541 212.186 168.528C212.269 168.511 212.336 168.498 212.385 168.488L212.624 169.542C212.544 169.572 212.433 169.602 212.291 169.632C212.148 169.665 211.968 169.681 211.749 169.681C211.417 169.681 211.093 169.61 210.775 169.468C210.46 169.325 210.198 169.108 209.989 168.816C209.783 168.525 209.681 168.157 209.681 167.713V160.116ZM214.25 169.582V161.946H215.383V163.139H215.483C215.642 162.731 215.899 162.415 216.253 162.189C216.608 161.961 217.034 161.846 217.531 161.846C218.035 161.846 218.454 161.961 218.789 162.189C219.127 162.415 219.39 162.731 219.579 163.139H219.659C219.854 162.744 220.148 162.431 220.539 162.199C220.93 161.964 221.399 161.846 221.946 161.846C222.628 161.846 223.187 162.06 223.621 162.488C224.055 162.912 224.272 163.573 224.272 164.471V169.582H223.099V164.471C223.099 163.908 222.945 163.505 222.637 163.263C222.328 163.021 221.966 162.9 221.548 162.9C221.011 162.9 220.595 163.063 220.3 163.387C220.005 163.709 219.858 164.117 219.858 164.61V169.582H218.664V164.352C218.664 163.918 218.524 163.568 218.242 163.303C217.96 163.034 217.597 162.9 217.153 162.9C216.848 162.9 216.563 162.981 216.298 163.144C216.036 163.306 215.824 163.532 215.662 163.82C215.502 164.105 215.423 164.435 215.423 164.809V169.582H214.25ZM229.619 169.741C228.884 169.741 228.249 169.579 227.715 169.254C227.185 168.926 226.776 168.468 226.487 167.882C226.202 167.292 226.06 166.606 226.06 165.824C226.06 165.041 226.202 164.352 226.487 163.755C226.776 163.155 227.177 162.688 227.69 162.353C228.207 162.015 228.811 161.846 229.5 161.846C229.898 161.846 230.29 161.913 230.678 162.045C231.066 162.178 231.419 162.393 231.737 162.691C232.055 162.986 232.309 163.377 232.498 163.865C232.687 164.352 232.781 164.952 232.781 165.664V166.162H226.895V165.147H231.588C231.588 164.717 231.502 164.332 231.33 163.994C231.161 163.656 230.919 163.389 230.604 163.194C230.292 162.998 229.924 162.9 229.5 162.9C229.033 162.9 228.628 163.016 228.287 163.248C227.949 163.477 227.689 163.775 227.506 164.143C227.324 164.511 227.233 164.905 227.233 165.326V166.002C227.233 166.579 227.332 167.068 227.531 167.469C227.733 167.867 228.013 168.17 228.371 168.379C228.729 168.584 229.145 168.687 229.619 168.687C229.928 168.687 230.206 168.644 230.455 168.558C230.706 168.468 230.924 168.336 231.106 168.16C231.288 167.981 231.429 167.759 231.528 167.494L232.662 167.812C232.543 168.197 232.342 168.535 232.06 168.826C231.779 169.115 231.431 169.34 231.016 169.502C230.602 169.662 230.136 169.741 229.619 169.741ZM235.739 164.988V169.582H234.566V161.946H235.7V163.139H235.799C235.978 162.751 236.25 162.44 236.614 162.204C236.979 161.966 237.45 161.846 238.026 161.846C238.543 161.846 238.996 161.952 239.384 162.164C239.771 162.373 240.073 162.691 240.288 163.119C240.504 163.543 240.612 164.08 240.612 164.73V169.582H239.438V164.809C239.438 164.209 239.282 163.742 238.971 163.407C238.659 163.069 238.232 162.9 237.688 162.9C237.314 162.9 236.979 162.981 236.684 163.144C236.392 163.306 236.162 163.543 235.993 163.855C235.824 164.166 235.739 164.544 235.739 164.988ZM246.077 161.946V162.94H242.119V161.946H246.077ZM243.273 160.116H244.446V167.395C244.446 167.726 244.494 167.975 244.59 168.14C244.689 168.303 244.815 168.412 244.968 168.468C245.124 168.521 245.288 168.548 245.46 168.548C245.589 168.548 245.695 168.541 245.778 168.528C245.861 168.511 245.927 168.498 245.977 168.488L246.216 169.542C246.136 169.572 246.025 169.602 245.883 169.632C245.74 169.665 245.559 169.681 245.341 169.681C245.009 169.681 244.684 169.61 244.366 169.468C244.051 169.325 243.79 169.108 243.581 168.816C243.375 168.525 243.273 168.157 243.273 167.713V160.116ZM249.591 168.19L249.512 168.727C249.456 169.105 249.369 169.509 249.253 169.94C249.141 170.371 249.023 170.777 248.9 171.158C248.778 171.539 248.677 171.842 248.597 172.068H247.702C247.745 171.856 247.802 171.576 247.871 171.228C247.941 170.88 248.01 170.49 248.08 170.059C248.153 169.632 248.213 169.194 248.259 168.747L248.319 168.19H249.591ZM259.262 159.4V169.582H258.029V160.693H257.97L255.484 162.343V161.091L258.029 159.4H259.262ZM265.432 159.261C265.85 159.264 266.267 159.344 266.685 159.5C267.103 159.655 267.484 159.914 267.828 160.275C268.173 160.633 268.45 161.122 268.659 161.742C268.868 162.362 268.972 163.139 268.972 164.074C268.972 164.978 268.886 165.782 268.713 166.485C268.544 167.184 268.299 167.774 267.978 168.255C267.659 168.735 267.272 169.1 266.814 169.348C266.36 169.597 265.846 169.721 265.273 169.721C264.703 169.721 264.194 169.609 263.747 169.383C263.303 169.154 262.938 168.838 262.653 168.434C262.371 168.026 262.191 167.554 262.111 167.017H263.324C263.434 167.484 263.651 167.87 263.975 168.175C264.304 168.477 264.736 168.627 265.273 168.627C266.059 168.627 266.678 168.284 267.132 167.598C267.59 166.912 267.819 165.943 267.819 164.69H267.739C267.553 164.968 267.333 165.209 267.078 165.411C266.823 165.613 266.539 165.769 266.228 165.878C265.916 165.988 265.585 166.042 265.233 166.042C264.65 166.042 264.115 165.898 263.627 165.61C263.144 165.318 262.756 164.919 262.464 164.412C262.176 163.901 262.032 163.318 262.032 162.662C262.032 162.038 262.171 161.468 262.449 160.951C262.731 160.431 263.125 160.017 263.632 159.708C264.143 159.4 264.743 159.251 265.432 159.261ZM265.432 160.355C265.015 160.355 264.638 160.459 264.304 160.668C263.972 160.873 263.709 161.152 263.513 161.503C263.321 161.851 263.225 162.237 263.225 162.662C263.225 163.086 263.318 163.472 263.503 163.82C263.692 164.165 263.949 164.44 264.274 164.645C264.602 164.847 264.975 164.949 265.392 164.949C265.707 164.949 266.001 164.887 266.272 164.765C266.544 164.639 266.781 164.468 266.983 164.252C267.189 164.034 267.35 163.787 267.466 163.512C267.582 163.233 267.64 162.943 267.64 162.642C267.64 162.244 267.543 161.871 267.351 161.523C267.162 161.175 266.9 160.893 266.566 160.678C266.234 160.462 265.856 160.355 265.432 160.355ZM271.802 168.279C271.557 168.279 271.346 168.192 271.171 168.016C270.995 167.84 270.907 167.63 270.907 167.385C270.907 167.139 270.995 166.929 271.171 166.753C271.346 166.578 271.557 166.49 271.802 166.49C272.047 166.49 272.258 166.578 272.433 166.753C272.609 166.929 272.697 167.139 272.697 167.385C272.697 167.547 272.655 167.696 272.573 167.832C272.493 167.968 272.385 168.077 272.249 168.16C272.117 168.24 271.968 168.279 271.802 168.279ZM271.802 163.129C271.557 163.129 271.346 163.041 271.171 162.865C270.995 162.69 270.907 162.479 270.907 162.234C270.907 161.989 270.995 161.778 271.171 161.603C271.346 161.427 271.557 161.339 271.802 161.339C272.047 161.339 272.258 161.427 272.433 161.603C272.609 161.778 272.697 161.989 272.697 162.234C272.697 162.396 272.655 162.546 272.573 162.681C272.493 162.817 272.385 162.927 272.249 163.01C272.117 163.089 271.968 163.129 271.802 163.129ZM278.104 169.721C277.354 169.721 276.716 169.517 276.189 169.11C275.662 168.699 275.26 168.104 274.981 167.325C274.703 166.543 274.564 165.598 274.564 164.491C274.564 163.391 274.703 162.451 274.981 161.672C275.263 160.89 275.667 160.293 276.194 159.882C276.725 159.468 277.361 159.261 278.104 159.261C278.846 159.261 279.481 159.468 280.008 159.882C280.538 160.293 280.942 160.89 281.221 161.672C281.502 162.451 281.643 163.391 281.643 164.491C281.643 165.598 281.504 166.543 281.226 167.325C280.947 168.104 280.545 168.699 280.018 169.11C279.491 169.517 278.853 169.721 278.104 169.721ZM278.104 168.627C278.846 168.627 279.423 168.27 279.834 167.554C280.245 166.838 280.45 165.817 280.45 164.491C280.45 163.609 280.356 162.859 280.167 162.239C279.981 161.619 279.713 161.147 279.361 160.822C279.013 160.497 278.594 160.335 278.104 160.335C277.368 160.335 276.793 160.698 276.378 161.424C275.964 162.146 275.757 163.169 275.757 164.491C275.757 165.373 275.85 166.122 276.035 166.738C276.221 167.355 276.488 167.824 276.836 168.145C277.187 168.467 277.61 168.627 278.104 168.627ZM286.854 169.721C286.104 169.721 285.466 169.517 284.939 169.11C284.412 168.699 284.01 168.104 283.731 167.325C283.453 166.543 283.314 165.598 283.314 164.491C283.314 163.391 283.453 162.451 283.731 161.672C284.013 160.89 284.417 160.293 284.944 159.882C285.475 159.468 286.111 159.261 286.854 159.261C287.596 159.261 288.231 159.468 288.758 159.882C289.288 160.293 289.692 160.89 289.971 161.672C290.252 162.451 290.393 163.391 290.393 164.491C290.393 165.598 290.254 166.543 289.976 167.325C289.697 168.104 289.295 168.699 288.768 169.11C288.241 169.517 287.603 169.721 286.854 169.721ZM286.854 168.627C287.596 168.627 288.173 168.27 288.584 167.554C288.995 166.838 289.2 165.817 289.2 164.491C289.2 163.609 289.106 162.859 288.917 162.239C288.731 161.619 288.463 161.147 288.111 160.822C287.763 160.497 287.344 160.335 286.854 160.335C286.118 160.335 285.543 160.698 285.128 161.424C284.714 162.146 284.507 163.169 284.507 164.491C284.507 165.373 284.6 166.122 284.785 166.738C284.971 167.355 285.238 167.824 285.586 168.145C285.937 168.467 286.36 168.627 286.854 168.627ZM300.615 163.944V165.038H296.16V163.944H300.615ZM312.344 161.946C312.284 161.442 312.042 161.051 311.618 160.772C311.194 160.494 310.674 160.355 310.057 160.355C309.606 160.355 309.212 160.428 308.874 160.574C308.539 160.719 308.277 160.92 308.088 161.175C307.903 161.43 307.81 161.72 307.81 162.045C307.81 162.317 307.875 162.551 308.004 162.746C308.136 162.938 308.306 163.099 308.511 163.228C308.717 163.354 308.932 163.459 309.157 163.542C309.383 163.621 309.59 163.686 309.779 163.735L310.813 164.014C311.078 164.083 311.373 164.18 311.698 164.302C312.026 164.425 312.339 164.592 312.637 164.804C312.939 165.013 313.188 165.282 313.383 165.61C313.579 165.938 313.676 166.341 313.676 166.818C313.676 167.368 313.532 167.865 313.244 168.309C312.959 168.753 312.541 169.106 311.991 169.368C311.444 169.63 310.78 169.761 309.998 169.761C309.268 169.761 308.637 169.643 308.103 169.408C307.573 169.173 307.155 168.845 306.85 168.424C306.549 168.003 306.378 167.514 306.338 166.957H307.611C307.644 167.342 307.774 167.66 307.999 167.912C308.228 168.16 308.516 168.346 308.864 168.468C309.215 168.588 309.593 168.647 309.998 168.647C310.468 168.647 310.891 168.571 311.265 168.419C311.64 168.263 311.936 168.047 312.155 167.772C312.374 167.494 312.483 167.169 312.483 166.798C312.483 166.46 312.389 166.185 312.2 165.973C312.011 165.761 311.762 165.588 311.454 165.456C311.146 165.323 310.813 165.207 310.455 165.108L309.202 164.75C308.407 164.521 307.777 164.194 307.313 163.77C306.849 163.346 306.617 162.791 306.617 162.105C306.617 161.535 306.771 161.038 307.079 160.613C307.391 160.186 307.808 159.854 308.332 159.619C308.859 159.38 309.447 159.261 310.097 159.261C310.753 159.261 311.337 159.379 311.847 159.614C312.357 159.846 312.762 160.164 313.06 160.569C313.362 160.973 313.521 161.432 313.537 161.946H312.344ZM318.746 169.741C318.01 169.741 317.376 169.579 316.842 169.254C316.312 168.926 315.903 168.468 315.614 167.882C315.329 167.292 315.187 166.606 315.187 165.824C315.187 165.041 315.329 164.352 315.614 163.755C315.903 163.155 316.304 162.688 316.817 162.353C317.334 162.015 317.938 161.846 318.627 161.846C319.025 161.846 319.417 161.913 319.805 162.045C320.193 162.178 320.546 162.393 320.864 162.691C321.182 162.986 321.436 163.377 321.625 163.865C321.814 164.352 321.908 164.952 321.908 165.664V166.162H316.022V165.147H320.715C320.715 164.717 320.629 164.332 320.456 163.994C320.287 163.656 320.046 163.389 319.731 163.194C319.419 162.998 319.051 162.9 318.627 162.9C318.16 162.9 317.755 163.016 317.414 163.248C317.076 163.477 316.816 163.775 316.633 164.143C316.451 164.511 316.36 164.905 316.36 165.326V166.002C316.36 166.579 316.459 167.068 316.658 167.469C316.86 167.867 317.14 168.17 317.498 168.379C317.856 168.584 318.272 168.687 318.746 168.687C319.055 168.687 319.333 168.644 319.581 168.558C319.833 168.468 320.05 168.336 320.233 168.16C320.415 167.981 320.556 167.759 320.655 167.494L321.789 167.812C321.67 168.197 321.469 168.535 321.187 168.826C320.906 169.115 320.558 169.34 320.143 169.502C319.729 169.662 319.263 169.741 318.746 169.741ZM323.693 172.446V161.946H324.827V163.159H324.966C325.052 163.026 325.171 162.857 325.324 162.652C325.479 162.443 325.702 162.257 325.99 162.095C326.282 161.929 326.676 161.846 327.173 161.846C327.816 161.846 328.383 162.007 328.873 162.328C329.364 162.65 329.747 163.106 330.022 163.696C330.297 164.286 330.434 164.982 330.434 165.784C330.434 166.592 330.297 167.293 330.022 167.887C329.747 168.477 329.366 168.934 328.878 169.259C328.391 169.58 327.829 169.741 327.193 169.741C326.702 169.741 326.31 169.66 326.015 169.498C325.72 169.332 325.493 169.145 325.334 168.936C325.175 168.724 325.052 168.548 324.966 168.409H324.866V172.446H323.693ZM324.846 165.764C324.846 166.341 324.931 166.849 325.1 167.29C325.269 167.728 325.516 168.071 325.841 168.319C326.166 168.565 326.563 168.687 327.034 168.687C327.524 168.687 327.934 168.558 328.262 168.299C328.593 168.038 328.842 167.686 329.008 167.245C329.177 166.801 329.261 166.307 329.261 165.764C329.261 165.227 329.178 164.743 329.013 164.312C328.85 163.878 328.603 163.535 328.272 163.283C327.944 163.028 327.531 162.9 327.034 162.9C326.557 162.9 326.156 163.021 325.831 163.263C325.506 163.502 325.261 163.837 325.095 164.267C324.929 164.695 324.846 165.194 324.846 165.764ZM339.721 159.4V169.582H338.488V160.693H338.429L335.943 162.343V161.091L338.488 159.4H339.721ZM346.229 159.4V169.582H344.996V160.693H344.937L342.451 162.343V161.091L344.996 159.4H346.229ZM350.326 168.19L350.246 168.727C350.19 169.105 350.104 169.509 349.988 169.94C349.875 170.371 349.757 170.777 349.635 171.158C349.512 171.539 349.411 171.842 349.331 172.068H348.437C348.48 171.856 348.536 171.576 348.606 171.228C348.675 170.88 348.745 170.49 348.814 170.059C348.887 169.632 348.947 169.194 348.993 168.747L349.053 168.19H350.326ZM356.417 169.582V168.687L359.778 165.008C360.172 164.577 360.497 164.203 360.752 163.885C361.008 163.563 361.197 163.261 361.319 162.98C361.445 162.695 361.508 162.396 361.508 162.085C361.508 161.727 361.422 161.417 361.25 161.155C361.081 160.893 360.849 160.691 360.554 160.549C360.259 160.406 359.927 160.335 359.559 160.335C359.168 160.335 358.827 160.416 358.535 160.578C358.247 160.738 358.023 160.961 357.864 161.25C357.708 161.538 357.63 161.876 357.63 162.264H356.457C356.457 161.667 356.595 161.144 356.87 160.693C357.145 160.242 357.519 159.891 357.993 159.639C358.471 159.387 359.006 159.261 359.599 159.261C360.196 159.261 360.724 159.387 361.185 159.639C361.646 159.891 362.007 160.23 362.269 160.658C362.531 161.086 362.662 161.561 362.662 162.085C362.662 162.459 362.594 162.826 362.458 163.184C362.325 163.538 362.093 163.934 361.762 164.372C361.434 164.806 360.978 165.336 360.395 165.963L358.108 168.409V168.488H362.841V169.582H356.417ZM368.215 169.721C367.466 169.721 366.828 169.517 366.301 169.11C365.774 168.699 365.371 168.104 365.093 167.325C364.814 166.543 364.675 165.598 364.675 164.491C364.675 163.391 364.814 162.451 365.093 161.672C365.374 160.89 365.779 160.293 366.306 159.882C366.836 159.468 367.472 159.261 368.215 159.261C368.957 159.261 369.592 159.468 370.119 159.882C370.649 160.293 371.054 160.89 371.332 161.672C371.614 162.451 371.755 163.391 371.755 164.491C371.755 165.598 371.615 166.543 371.337 167.325C371.059 168.104 370.656 168.699 370.129 169.11C369.602 169.517 368.964 169.721 368.215 169.721ZM368.215 168.627C368.957 168.627 369.534 168.27 369.945 167.554C370.356 166.838 370.561 165.817 370.561 164.491C370.561 163.609 370.467 162.859 370.278 162.239C370.092 161.619 369.824 161.147 369.473 160.822C369.125 160.497 368.705 160.335 368.215 160.335C367.479 160.335 366.904 160.698 366.49 161.424C366.075 162.146 365.868 163.169 365.868 164.491C365.868 165.373 365.961 166.122 366.147 166.738C366.332 167.355 366.599 167.824 366.947 168.145C367.298 168.467 367.721 168.627 368.215 168.627ZM373.644 169.582V168.687L377.005 165.008C377.399 164.577 377.724 164.203 377.979 163.885C378.234 163.563 378.423 163.261 378.546 162.98C378.672 162.695 378.735 162.396 378.735 162.085C378.735 161.727 378.649 161.417 378.476 161.155C378.307 160.893 378.075 160.691 377.78 160.549C377.485 160.406 377.154 160.335 376.786 160.335C376.395 160.335 376.053 160.416 375.762 160.578C375.473 160.738 375.25 160.961 375.091 161.25C374.935 161.538 374.857 161.876 374.857 162.264H373.684C373.684 161.667 373.821 161.144 374.096 160.693C374.371 160.242 374.746 159.891 375.22 159.639C375.697 159.387 376.232 159.261 376.826 159.261C377.422 159.261 377.951 159.387 378.412 159.639C378.872 159.891 379.234 160.23 379.495 160.658C379.757 161.086 379.888 161.561 379.888 162.085C379.888 162.459 379.82 162.826 379.684 163.184C379.552 163.538 379.32 163.934 378.988 164.372C378.66 164.806 378.204 165.336 377.621 165.963L375.334 168.409V168.488H380.067V169.582H373.644ZM381.663 167.494V166.48L386.137 159.4H386.873V160.971H386.376L382.995 166.321V166.4H389.021V167.494H381.663ZM386.456 169.582V167.186V166.713V159.4H387.629V169.582H386.456Z" fill="#858D9D"/>
<path d="M76.9148 224.94C75.6619 224.931 74.4389 224.714 73.2457 224.288C72.0526 223.853 70.9787 223.15 70.0241 222.179C69.0696 221.199 68.3111 219.899 67.7486 218.279C67.1861 216.652 66.9091 214.636 66.9176 212.233C66.9176 209.991 67.1563 207.993 67.6335 206.237C68.1108 204.481 68.7969 202.998 69.6918 201.788C70.5866 200.569 71.6648 199.64 72.9261 199.001C74.196 198.362 75.6151 198.042 77.1832 198.042C78.8281 198.042 80.2855 198.366 81.5554 199.014C82.8338 199.662 83.8651 200.548 84.6491 201.673C85.4332 202.789 85.919 204.051 86.1065 205.457H81.4403C81.2017 204.451 80.7116 203.65 79.9702 203.054C79.2372 202.449 78.3082 202.146 77.1832 202.146C75.3679 202.146 73.9702 202.934 72.9901 204.511C72.0185 206.088 71.5284 208.252 71.5199 211.005H71.6989C72.1165 210.255 72.6577 209.612 73.3224 209.075C73.9872 208.538 74.7372 208.125 75.5724 207.835C76.4162 207.537 77.3068 207.387 78.2443 207.387C79.7784 207.387 81.1548 207.754 82.3736 208.487C83.6009 209.22 84.5724 210.23 85.2884 211.517C86.0043 212.795 86.358 214.261 86.3494 215.914C86.358 217.636 85.9659 219.183 85.1733 220.555C84.3807 221.919 83.277 222.993 81.8622 223.777C80.4474 224.561 78.7983 224.949 76.9148 224.94ZM76.8892 221.105C77.8182 221.105 78.6491 220.879 79.3821 220.427C80.1151 219.975 80.6946 219.366 81.1207 218.599C81.5469 217.832 81.7557 216.971 81.7472 216.017C81.7557 215.079 81.5511 214.231 81.1335 213.473C80.7244 212.714 80.1577 212.113 79.4332 211.67C78.7088 211.227 77.8821 211.005 76.9531 211.005C76.2628 211.005 75.6193 211.137 75.0227 211.402C74.4261 211.666 73.9063 212.032 73.4631 212.501C73.0199 212.961 72.6705 213.498 72.4148 214.112C72.1676 214.717 72.0398 215.365 72.0312 216.055C72.0398 216.967 72.2528 217.806 72.6705 218.574C73.0881 219.341 73.6634 219.954 74.3963 220.414C75.1293 220.875 75.9602 221.105 76.8892 221.105ZM99.9773 224.94C98.0767 224.94 96.3892 224.62 94.9148 223.981C93.4489 223.342 92.2983 222.468 91.4631 221.36C90.6364 220.244 90.2273 218.978 90.2358 217.564C90.2273 216.464 90.4659 215.454 90.9517 214.534C91.4375 213.613 92.0938 212.846 92.9205 212.233C93.7557 211.61 94.6847 211.214 95.7074 211.044V210.865C94.3608 210.566 93.2699 209.88 92.4347 208.806C91.608 207.724 91.1989 206.475 91.2074 205.061C91.1989 203.714 91.5739 202.512 92.3324 201.456C93.0909 200.399 94.1307 199.568 95.4517 198.963C96.7727 198.349 98.2813 198.042 99.9773 198.042C101.656 198.042 103.152 198.349 104.464 198.963C105.786 199.568 106.825 200.399 107.584 201.456C108.351 202.512 108.734 203.714 108.734 205.061C108.734 206.475 108.312 207.724 107.469 208.806C106.634 209.88 105.555 210.566 104.234 210.865V211.044C105.257 211.214 106.178 211.61 106.996 212.233C107.822 212.846 108.479 213.613 108.964 214.534C109.459 215.454 109.706 216.464 109.706 217.564C109.706 218.978 109.288 220.244 108.453 221.36C107.618 222.468 106.467 223.342 105.001 223.981C103.544 224.62 101.869 224.94 99.9773 224.94ZM99.9773 221.284C100.957 221.284 101.81 221.118 102.534 220.785C103.259 220.444 103.821 219.967 104.222 219.353C104.622 218.74 104.827 218.032 104.835 217.231C104.827 216.396 104.609 215.659 104.183 215.02C103.766 214.372 103.19 213.865 102.457 213.498C101.733 213.132 100.906 212.949 99.9773 212.949C99.0398 212.949 98.2045 213.132 97.4716 213.498C96.7386 213.865 96.1591 214.372 95.733 215.02C95.3153 215.659 95.1108 216.396 95.1193 217.231C95.1108 218.032 95.3068 218.74 95.7074 219.353C96.108 219.958 96.6705 220.431 97.3949 220.772C98.1278 221.113 98.9886 221.284 99.9773 221.284ZM99.9773 209.356C100.778 209.356 101.486 209.194 102.099 208.87C102.722 208.547 103.212 208.095 103.57 207.515C103.928 206.936 104.111 206.267 104.119 205.508C104.111 204.758 103.932 204.102 103.582 203.539C103.233 202.968 102.747 202.529 102.125 202.223C101.503 201.907 100.787 201.75 99.9773 201.75C99.1506 201.75 98.4219 201.907 97.7912 202.223C97.169 202.529 96.6832 202.968 96.3338 203.539C95.9929 204.102 95.8267 204.758 95.8352 205.508C95.8267 206.267 95.9972 206.936 96.3466 207.515C96.7045 208.086 97.1946 208.538 97.8168 208.87C98.4474 209.194 99.1676 209.356 99.9773 209.356Z" fill="#90BD40"/>
<path d="M121.818 222.758C121 222.758 120.286 222.571 119.676 222.196C119.066 221.821 118.593 221.296 118.256 220.622C117.919 219.948 117.75 219.16 117.75 218.258C117.75 217.353 117.919 216.561 118.256 215.883C118.593 215.205 119.066 214.679 119.676 214.304C120.286 213.929 121 213.741 121.818 213.741C122.636 213.741 123.35 213.929 123.96 214.304C124.57 214.679 125.044 215.205 125.381 215.883C125.718 216.561 125.886 217.353 125.886 218.258C125.886 219.16 125.718 219.948 125.381 220.622C125.044 221.296 124.57 221.821 123.96 222.196C123.35 222.571 122.636 222.758 121.818 222.758ZM121.824 221.332C122.354 221.332 122.794 221.192 123.142 220.912C123.491 220.631 123.748 220.258 123.915 219.792C124.085 219.326 124.17 218.813 124.17 218.252C124.17 217.696 124.085 217.184 123.915 216.718C123.748 216.249 123.491 215.872 123.142 215.588C122.794 215.304 122.354 215.162 121.824 215.162C121.29 215.162 120.847 215.304 120.494 215.588C120.146 215.872 119.886 216.249 119.716 216.718C119.549 217.184 119.466 217.696 119.466 218.252C119.466 218.813 119.549 219.326 119.716 219.792C119.886 220.258 120.146 220.631 120.494 220.912C120.847 221.192 121.29 221.332 121.824 221.332ZM131.936 213.855V215.218H127.004V213.855H131.936ZM128.357 222.582V212.843C128.357 212.298 128.476 211.845 128.714 211.485C128.953 211.122 129.269 210.851 129.663 210.673C130.057 210.491 130.485 210.4 130.947 210.4C131.288 210.4 131.58 210.429 131.822 210.485C132.065 210.538 132.245 210.588 132.362 210.633L131.964 212.008C131.885 211.985 131.783 211.959 131.658 211.929C131.533 211.895 131.381 211.877 131.203 211.877C130.79 211.877 130.495 211.98 130.317 212.184C130.143 212.389 130.055 212.684 130.055 213.071V222.582H128.357ZM142.315 210.946V222.582H140.554V212.707H140.486L137.702 214.525V212.843L140.605 210.946H142.315ZM149.514 222.775C148.616 222.771 147.849 222.535 147.213 222.065C146.577 221.595 146.09 220.912 145.753 220.014C145.416 219.116 145.247 218.035 145.247 216.77C145.247 215.508 145.416 214.431 145.753 213.537C146.094 212.643 146.582 211.961 147.219 211.491C147.859 211.021 148.624 210.787 149.514 210.787C150.404 210.787 151.168 211.023 151.804 211.497C152.44 211.967 152.927 212.648 153.264 213.542C153.605 214.432 153.776 215.508 153.776 216.77C153.776 218.038 153.607 219.122 153.27 220.02C152.933 220.913 152.446 221.597 151.81 222.071C151.173 222.54 150.408 222.775 149.514 222.775ZM149.514 221.258C150.302 221.258 150.918 220.874 151.361 220.105C151.808 219.336 152.031 218.224 152.031 216.77C152.031 215.804 151.929 214.987 151.724 214.321C151.524 213.65 151.234 213.143 150.855 212.798C150.48 212.449 150.033 212.275 149.514 212.275C148.73 212.275 148.115 212.662 147.668 213.434C147.221 214.207 146.995 215.319 146.991 216.77C146.991 217.739 147.092 218.559 147.293 219.23C147.497 219.896 147.787 220.402 148.162 220.747C148.537 221.088 148.988 221.258 149.514 221.258ZM159.842 222.775C158.945 222.771 158.178 222.535 157.541 222.065C156.905 221.595 156.418 220.912 156.081 220.014C155.744 219.116 155.575 218.035 155.575 216.77C155.575 215.508 155.744 214.431 156.081 213.537C156.422 212.643 156.911 211.961 157.547 211.491C158.187 211.021 158.952 210.787 159.842 210.787C160.732 210.787 161.496 211.023 162.132 211.497C162.768 211.967 163.255 212.648 163.592 213.542C163.933 214.432 164.104 215.508 164.104 216.77C164.104 218.038 163.935 219.122 163.598 220.02C163.261 220.913 162.774 221.597 162.138 222.071C161.501 222.54 160.736 222.775 159.842 222.775ZM159.842 221.258C160.63 221.258 161.246 220.874 161.689 220.105C162.136 219.336 162.359 218.224 162.359 216.77C162.359 215.804 162.257 214.987 162.053 214.321C161.852 213.65 161.562 213.143 161.183 212.798C160.808 212.449 160.361 212.275 159.842 212.275C159.058 212.275 158.443 212.662 157.996 213.434C157.549 214.207 157.323 215.319 157.32 216.77C157.32 217.739 157.42 218.559 157.621 219.23C157.825 219.896 158.115 220.402 158.49 220.747C158.865 221.088 159.316 221.258 159.842 221.258Z" fill="#90BD40"/>
<rect x="183" y="196.582" width="105" height="30" rx="15" fill="#43BD17" fill-opacity="0.08"/>
<circle cx="199" cy="211.582" r="3.5" fill="#43BD17"/>
<path d="M211.819 206.9H213.683L216.925 214.815H217.044L220.285 206.9H222.15V217.082H220.688V209.714H220.594L217.591 217.067H216.378L213.375 209.709H213.28V217.082H211.819V206.9ZM227.481 217.236C226.765 217.236 226.14 217.072 225.606 216.744C225.073 216.416 224.658 215.957 224.363 215.367C224.068 214.777 223.921 214.087 223.921 213.299C223.921 212.507 224.068 211.814 224.363 211.221C224.658 210.627 225.073 210.167 225.606 209.838C226.14 209.51 226.765 209.346 227.481 209.346C228.196 209.346 228.821 209.51 229.355 209.838C229.888 210.167 230.303 210.627 230.598 211.221C230.893 211.814 231.04 212.507 231.04 213.299C231.04 214.087 230.893 214.777 230.598 215.367C230.303 215.957 229.888 216.416 229.355 216.744C228.821 217.072 228.196 217.236 227.481 217.236ZM227.486 215.988C227.95 215.988 228.334 215.866 228.639 215.62C228.944 215.375 229.169 215.049 229.315 214.641C229.464 214.233 229.539 213.784 229.539 213.294C229.539 212.806 229.464 212.359 229.315 211.951C229.169 211.54 228.944 211.211 228.639 210.962C228.334 210.713 227.95 210.589 227.486 210.589C227.018 210.589 226.63 210.713 226.322 210.962C226.017 211.211 225.79 211.54 225.641 211.951C225.495 212.359 225.422 212.806 225.422 213.294C225.422 213.784 225.495 214.233 225.641 214.641C225.79 215.049 226.017 215.375 226.322 215.62C226.63 215.866 227.018 215.988 227.486 215.988ZM235.558 217.231C234.942 217.231 234.391 217.074 233.908 216.759C233.427 216.441 233.049 215.988 232.774 215.402C232.502 214.812 232.366 214.104 232.366 213.279C232.366 212.453 232.504 211.748 232.779 211.161C233.057 210.574 233.439 210.125 233.922 209.814C234.406 209.502 234.955 209.346 235.568 209.346C236.042 209.346 236.423 209.426 236.712 209.585C237.003 209.741 237.229 209.923 237.388 210.132C237.55 210.341 237.676 210.525 237.766 210.684H237.855V206.9H239.342V217.082H237.89V215.894H237.766C237.676 216.056 237.547 216.242 237.378 216.451C237.212 216.659 236.983 216.842 236.692 216.998C236.4 217.153 236.022 217.231 235.558 217.231ZM235.886 215.963C236.314 215.963 236.675 215.851 236.97 215.625C237.268 215.397 237.494 215.08 237.646 214.676C237.802 214.271 237.88 213.801 237.88 213.264C237.88 212.734 237.804 212.27 237.651 211.872C237.499 211.474 237.275 211.164 236.98 210.942C236.685 210.72 236.32 210.609 235.886 210.609C235.439 210.609 235.066 210.725 234.768 210.957C234.469 211.189 234.244 211.506 234.092 211.907C233.942 212.308 233.868 212.76 233.868 213.264C233.868 213.774 233.944 214.233 234.097 214.641C234.249 215.049 234.474 215.372 234.773 215.61C235.074 215.846 235.445 215.963 235.886 215.963ZM244.754 217.236C244.002 217.236 243.354 217.075 242.81 216.754C242.27 216.429 241.853 215.973 241.558 215.387C241.266 214.797 241.12 214.106 241.12 213.314C241.12 212.531 241.266 211.842 241.558 211.245C241.853 210.649 242.264 210.183 242.791 209.848C243.321 209.514 243.941 209.346 244.65 209.346C245.081 209.346 245.498 209.417 245.903 209.56C246.307 209.703 246.67 209.926 246.992 210.231C247.313 210.536 247.567 210.932 247.752 211.419C247.938 211.903 248.031 212.492 248.031 213.184V213.711H241.96V212.598H246.574C246.574 212.207 246.494 211.86 246.335 211.559C246.176 211.254 245.953 211.013 245.664 210.838C245.379 210.662 245.044 210.574 244.66 210.574C244.242 210.574 243.878 210.677 243.566 210.882C243.258 211.085 243.019 211.35 242.85 211.678C242.685 212.003 242.602 212.356 242.602 212.737V213.607C242.602 214.117 242.691 214.551 242.87 214.909C243.052 215.267 243.306 215.541 243.631 215.73C243.956 215.915 244.335 216.008 244.769 216.008C245.051 216.008 245.308 215.968 245.54 215.889C245.772 215.806 245.972 215.683 246.141 215.521C246.31 215.359 246.44 215.158 246.529 214.919L247.936 215.173C247.823 215.587 247.621 215.95 247.33 216.262C247.041 216.57 246.678 216.81 246.241 216.983C245.807 217.152 245.311 217.236 244.754 217.236ZM249.68 217.082V209.446H251.117V210.659H251.196C251.335 210.248 251.581 209.925 251.932 209.689C252.287 209.451 252.688 209.331 253.135 209.331C253.228 209.331 253.337 209.335 253.463 209.341C253.593 209.348 253.694 209.356 253.767 209.366V210.788C253.707 210.771 253.601 210.753 253.448 210.733C253.296 210.71 253.143 210.699 252.991 210.699C252.64 210.699 252.326 210.773 252.051 210.922C251.78 211.068 251.564 211.272 251.405 211.534C251.246 211.792 251.166 212.087 251.166 212.419V217.082H249.68ZM257.207 217.251C256.723 217.251 256.286 217.162 255.894 216.983C255.503 216.8 255.193 216.537 254.965 216.192C254.739 215.847 254.627 215.425 254.627 214.924C254.627 214.493 254.71 214.139 254.875 213.86C255.041 213.582 255.265 213.362 255.546 213.199C255.828 213.037 256.143 212.914 256.491 212.831C256.839 212.748 257.194 212.685 257.555 212.642C258.012 212.589 258.384 212.546 258.669 212.513C258.954 212.477 259.161 212.419 259.29 212.339C259.419 212.26 259.484 212.13 259.484 211.951V211.917C259.484 211.482 259.361 211.146 259.116 210.907C258.874 210.669 258.513 210.549 258.032 210.549C257.532 210.549 257.137 210.66 256.849 210.882C256.564 211.101 256.367 211.345 256.257 211.613L254.86 211.295C255.026 210.831 255.268 210.457 255.586 210.172C255.908 209.883 256.277 209.674 256.695 209.545C257.112 209.413 257.552 209.346 258.012 209.346C258.317 209.346 258.64 209.383 258.982 209.456C259.326 209.525 259.648 209.654 259.946 209.843C260.248 210.032 260.495 210.302 260.687 210.654C260.879 211.002 260.975 211.454 260.975 212.011V217.082H259.524V216.038H259.464C259.368 216.23 259.224 216.419 259.032 216.605C258.839 216.79 258.592 216.944 258.291 217.067C257.989 217.19 257.628 217.251 257.207 217.251ZM257.53 216.058C257.941 216.058 258.292 215.977 258.584 215.814C258.879 215.652 259.103 215.44 259.255 215.178C259.411 214.913 259.489 214.629 259.489 214.328V213.343C259.436 213.396 259.333 213.446 259.181 213.493C259.032 213.536 258.861 213.574 258.669 213.607C258.476 213.637 258.289 213.665 258.107 213.691C257.925 213.715 257.772 213.734 257.649 213.751C257.361 213.788 257.098 213.849 256.859 213.935C256.624 214.021 256.435 214.145 256.292 214.308C256.153 214.467 256.083 214.679 256.083 214.944C256.083 215.312 256.219 215.591 256.491 215.779C256.763 215.965 257.109 216.058 257.53 216.058ZM266.52 209.446V210.639H262.349V209.446H266.52ZM263.467 207.616H264.954V214.84C264.954 215.128 264.997 215.345 265.083 215.491C265.169 215.634 265.28 215.731 265.416 215.784C265.555 215.834 265.706 215.859 265.869 215.859C265.988 215.859 266.092 215.851 266.182 215.834C266.271 215.818 266.341 215.804 266.391 215.794L266.659 217.022C266.573 217.056 266.45 217.089 266.291 217.122C266.132 217.158 265.933 217.178 265.695 217.181C265.304 217.188 264.939 217.118 264.601 216.973C264.263 216.827 263.989 216.601 263.781 216.297C263.572 215.992 263.467 215.609 263.467 215.148V207.616ZM271.373 217.236C270.621 217.236 269.973 217.075 269.43 216.754C268.889 216.429 268.472 215.973 268.177 215.387C267.885 214.797 267.739 214.106 267.739 213.314C267.739 212.531 267.885 211.842 268.177 211.245C268.472 210.649 268.883 210.183 269.41 209.848C269.94 209.514 270.56 209.346 271.269 209.346C271.7 209.346 272.118 209.417 272.522 209.56C272.926 209.703 273.289 209.926 273.611 210.231C273.932 210.536 274.186 210.932 274.371 211.419C274.557 211.903 274.65 212.492 274.65 213.184V213.711H268.579V212.598H273.193C273.193 212.207 273.114 211.86 272.954 211.559C272.795 211.254 272.572 211.013 272.283 210.838C271.998 210.662 271.664 210.574 271.279 210.574C270.861 210.574 270.497 210.677 270.185 210.882C269.877 211.085 269.638 211.35 269.469 211.678C269.304 212.003 269.221 212.356 269.221 212.737V213.607C269.221 214.117 269.31 214.551 269.489 214.909C269.672 215.267 269.925 215.541 270.25 215.73C270.575 215.915 270.954 216.008 271.388 216.008C271.67 216.008 271.927 215.968 272.159 215.889C272.391 215.806 272.592 215.683 272.761 215.521C272.93 215.359 273.059 215.158 273.148 214.919L274.555 215.173C274.443 215.587 274.24 215.95 273.949 216.262C273.66 216.57 273.297 216.81 272.86 216.983C272.426 217.152 271.93 217.236 271.373 217.236Z" fill="#43BD17"/>
<path d="M72.5341 257.145C72.4811 256.648 72.2576 256.262 71.8636 255.985C71.4735 255.709 70.9659 255.571 70.3409 255.571C69.9015 255.571 69.5246 255.637 69.2102 255.77C68.8958 255.902 68.6553 256.082 68.4886 256.309C68.322 256.537 68.2367 256.796 68.233 257.088C68.233 257.33 68.2879 257.54 68.3977 257.718C68.5114 257.896 68.6648 258.048 68.858 258.173C69.0511 258.294 69.2652 258.396 69.5 258.48C69.7348 258.563 69.9716 258.633 70.2102 258.69L71.3011 258.963C71.7405 259.065 72.1629 259.203 72.5682 259.377C72.9773 259.552 73.3428 259.771 73.6648 260.037C73.9905 260.302 74.2481 260.622 74.4375 260.997C74.6269 261.372 74.7216 261.811 74.7216 262.315C74.7216 262.997 74.5473 263.597 74.1989 264.116C73.8504 264.631 73.3466 265.035 72.6875 265.326C72.0322 265.614 71.2386 265.758 70.3068 265.758C69.4015 265.758 68.6155 265.618 67.9489 265.338C67.286 265.057 66.767 264.648 66.392 264.11C66.0208 263.573 65.8201 262.917 65.7898 262.145H67.8636C67.8939 262.55 68.0189 262.887 68.2386 263.156C68.4583 263.425 68.7443 263.626 69.0966 263.758C69.4527 263.891 69.8504 263.957 70.2898 263.957C70.7481 263.957 71.1496 263.889 71.4943 263.752C71.8428 263.612 72.1155 263.419 72.3125 263.173C72.5095 262.923 72.6098 262.631 72.6136 262.298C72.6098 261.995 72.5208 261.745 72.3466 261.548C72.1723 261.347 71.928 261.181 71.6136 261.048C71.303 260.912 70.9394 260.79 70.5227 260.684L69.1989 260.343C68.2405 260.097 67.483 259.724 66.9261 259.224C66.3731 258.72 66.0966 258.052 66.0966 257.218C66.0966 256.533 66.2822 255.932 66.6534 255.417C67.0284 254.902 67.5379 254.502 68.1818 254.218C68.8258 253.931 69.5549 253.787 70.3693 253.787C71.1951 253.787 71.9186 253.931 72.5398 254.218C73.1648 254.502 73.6553 254.898 74.0114 255.406C74.3674 255.91 74.5511 256.489 74.5625 257.145H72.5341ZM80.3736 265.752C79.4986 265.752 78.7429 265.571 78.1065 265.207C77.474 264.84 76.9872 264.321 76.6463 263.65C76.3054 262.976 76.1349 262.182 76.1349 261.27C76.1349 260.372 76.3054 259.584 76.6463 258.906C76.991 258.224 77.4721 257.694 78.0895 257.315C78.7069 256.932 79.4323 256.741 80.2656 256.741C80.8035 256.741 81.3111 256.828 81.7884 257.002C82.2694 257.173 82.6937 257.438 83.0611 257.798C83.4323 258.158 83.724 258.616 83.9361 259.173C84.1482 259.726 84.2543 260.385 84.2543 261.15V261.781H77.1009V260.395H82.2827C82.2789 260.001 82.1937 259.65 82.027 259.343C81.8603 259.033 81.6274 258.788 81.3281 258.61C81.0327 258.432 80.688 258.343 80.294 258.343C79.8736 258.343 79.5043 258.446 79.1861 258.65C78.8679 258.851 78.6198 259.116 78.4418 259.446C78.2675 259.771 78.1785 260.129 78.1747 260.52V261.73C78.1747 262.237 78.2675 262.673 78.4531 263.037C78.6387 263.396 78.8982 263.673 79.2315 263.866C79.5649 264.056 79.955 264.15 80.402 264.15C80.7012 264.15 80.9721 264.109 81.2145 264.025C81.4569 263.938 81.6671 263.811 81.8452 263.645C82.0232 263.478 82.1577 263.271 82.2486 263.025L84.169 263.241C84.0478 263.749 83.8168 264.192 83.4759 264.571C83.1387 264.946 82.7069 265.237 82.1804 265.446C81.6539 265.65 81.0516 265.752 80.3736 265.752ZM89.858 265.752C88.983 265.752 88.2273 265.571 87.5909 265.207C86.9583 264.84 86.4716 264.321 86.1307 263.65C85.7898 262.976 85.6193 262.182 85.6193 261.27C85.6193 260.372 85.7898 259.584 86.1307 258.906C86.4754 258.224 86.9564 257.694 87.5739 257.315C88.1913 256.932 88.9167 256.741 89.75 256.741C90.2879 256.741 90.7955 256.828 91.2727 257.002C91.7538 257.173 92.178 257.438 92.5455 257.798C92.9167 258.158 93.2083 258.616 93.4205 259.173C93.6326 259.726 93.7386 260.385 93.7386 261.15V261.781H86.5852V260.395H91.767C91.7633 260.001 91.678 259.65 91.5114 259.343C91.3447 259.033 91.1117 258.788 90.8125 258.61C90.517 258.432 90.1723 258.343 89.7784 258.343C89.358 258.343 88.9886 258.446 88.6705 258.65C88.3523 258.851 88.1042 259.116 87.9261 259.446C87.7519 259.771 87.6629 260.129 87.6591 260.52V261.73C87.6591 262.237 87.7519 262.673 87.9375 263.037C88.1231 263.396 88.3826 263.673 88.7159 263.866C89.0492 264.056 89.4394 264.15 89.8864 264.15C90.1856 264.15 90.4564 264.109 90.6989 264.025C90.9413 263.938 91.1515 263.811 91.3295 263.645C91.5076 263.478 91.642 263.271 91.733 263.025L93.6534 263.241C93.5322 263.749 93.3011 264.192 92.9602 264.571C92.6231 264.946 92.1913 265.237 91.6648 265.446C91.1383 265.65 90.536 265.752 89.858 265.752ZM99.5384 265.582V253.946H103.902C104.796 253.946 105.546 254.101 106.152 254.412C106.762 254.722 107.222 255.158 107.533 255.718C107.847 256.275 108.004 256.925 108.004 257.667C108.004 258.413 107.845 259.061 107.527 259.61C107.213 260.156 106.749 260.578 106.135 260.877C105.521 261.173 104.768 261.321 103.874 261.321H100.766V259.571H103.589C104.112 259.571 104.54 259.499 104.874 259.355C105.207 259.207 105.453 258.993 105.612 258.713C105.775 258.429 105.857 258.08 105.857 257.667C105.857 257.254 105.775 256.902 105.612 256.61C105.449 256.315 105.201 256.092 104.868 255.94C104.535 255.785 104.105 255.707 103.578 255.707H101.646V265.582H99.5384ZM105.55 260.309L108.43 265.582H106.078L103.249 260.309H105.55ZM113.592 265.752C112.717 265.752 111.962 265.571 111.325 265.207C110.693 264.84 110.206 264.321 109.865 263.65C109.524 262.976 109.354 262.182 109.354 261.27C109.354 260.372 109.524 259.584 109.865 258.906C110.21 258.224 110.691 257.694 111.308 257.315C111.926 256.932 112.651 256.741 113.484 256.741C114.022 256.741 114.53 256.828 115.007 257.002C115.488 257.173 115.912 257.438 116.28 257.798C116.651 258.158 116.943 258.616 117.155 259.173C117.367 259.726 117.473 260.385 117.473 261.15V261.781H110.32V260.395H115.501C115.498 260.001 115.412 259.65 115.246 259.343C115.079 259.033 114.846 258.788 114.547 258.61C114.251 258.432 113.907 258.343 113.513 258.343C113.092 258.343 112.723 258.446 112.405 258.65C112.087 258.851 111.839 259.116 111.661 259.446C111.486 259.771 111.397 260.129 111.393 260.52V261.73C111.393 262.237 111.486 262.673 111.672 263.037C111.857 263.396 112.117 263.673 112.45 263.866C112.784 264.056 113.174 264.15 113.621 264.15C113.92 264.15 114.191 264.109 114.433 264.025C114.676 263.938 114.886 263.811 115.064 263.645C115.242 263.478 115.376 263.271 115.467 263.025L117.388 263.241C117.267 263.749 117.036 264.192 116.695 264.571C116.357 264.946 115.926 265.237 115.399 265.446C114.873 265.65 114.27 265.752 113.592 265.752ZM126.111 259.162L124.236 259.366C124.183 259.177 124.09 258.999 123.957 258.832C123.829 258.665 123.654 258.531 123.435 258.429C123.215 258.326 122.946 258.275 122.628 258.275C122.2 258.275 121.84 258.368 121.548 258.554C121.26 258.739 121.118 258.98 121.122 259.275C121.118 259.529 121.211 259.735 121.401 259.895C121.594 260.054 121.912 260.184 122.355 260.287L123.844 260.605C124.67 260.783 125.283 261.065 125.685 261.451C126.09 261.838 126.295 262.343 126.298 262.968C126.295 263.518 126.134 264.002 125.815 264.423C125.501 264.84 125.063 265.165 124.503 265.4C123.942 265.635 123.298 265.752 122.571 265.752C121.503 265.752 120.643 265.529 119.991 265.082C119.34 264.631 118.952 264.004 118.827 263.201L120.832 263.008C120.923 263.402 121.116 263.699 121.412 263.9C121.707 264.101 122.092 264.201 122.565 264.201C123.054 264.201 123.446 264.101 123.741 263.9C124.041 263.699 124.19 263.451 124.19 263.156C124.19 262.906 124.094 262.699 123.901 262.537C123.711 262.374 123.416 262.249 123.014 262.162L121.526 261.849C120.688 261.675 120.069 261.381 119.668 260.968C119.266 260.552 119.067 260.025 119.071 259.389C119.067 258.851 119.213 258.385 119.509 257.991C119.808 257.593 120.223 257.287 120.753 257.071C121.287 256.851 121.902 256.741 122.599 256.741C123.622 256.741 124.427 256.959 125.014 257.395C125.605 257.83 125.971 258.419 126.111 259.162ZM133.557 261.912V256.855H135.614V265.582H133.619V264.031H133.528C133.331 264.52 133.008 264.919 132.557 265.23C132.11 265.54 131.559 265.696 130.903 265.696C130.331 265.696 129.826 265.569 129.386 265.315C128.951 265.057 128.61 264.684 128.364 264.196C128.117 263.703 127.994 263.109 127.994 262.412V256.855H130.051V262.093C130.051 262.646 130.203 263.086 130.506 263.412C130.809 263.737 131.206 263.9 131.699 263.9C132.002 263.9 132.295 263.826 132.58 263.679C132.864 263.531 133.097 263.311 133.278 263.02C133.464 262.724 133.557 262.355 133.557 261.912ZM139.786 253.946V265.582H137.729V253.946H139.786ZM146.259 256.855V258.446H141.241V256.855H146.259ZM142.48 254.764H144.537V262.957C144.537 263.234 144.579 263.446 144.662 263.593C144.749 263.737 144.863 263.836 145.003 263.889C145.143 263.942 145.298 263.968 145.469 263.968C145.598 263.968 145.715 263.959 145.821 263.94C145.931 263.921 146.014 263.904 146.071 263.889L146.418 265.497C146.308 265.535 146.151 265.576 145.946 265.622C145.745 265.667 145.499 265.694 145.207 265.701C144.692 265.717 144.228 265.639 143.815 265.468C143.402 265.294 143.075 265.025 142.832 264.662C142.594 264.298 142.476 263.843 142.48 263.298V254.764ZM154.751 259.162L152.876 259.366C152.823 259.177 152.731 258.999 152.598 258.832C152.469 258.665 152.295 258.531 152.075 258.429C151.856 258.326 151.587 258.275 151.268 258.275C150.84 258.275 150.481 258.368 150.189 258.554C149.901 258.739 149.759 258.98 149.763 259.275C149.759 259.529 149.852 259.735 150.041 259.895C150.234 260.054 150.553 260.184 150.996 260.287L152.484 260.605C153.31 260.783 153.924 261.065 154.325 261.451C154.731 261.838 154.935 262.343 154.939 262.968C154.935 263.518 154.774 264.002 154.456 264.423C154.142 264.84 153.704 265.165 153.143 265.4C152.583 265.635 151.939 265.752 151.212 265.752C150.143 265.752 149.284 265.529 148.632 265.082C147.981 264.631 147.592 264.004 147.467 263.201L149.473 263.008C149.564 263.402 149.757 263.699 150.053 263.9C150.348 264.101 150.732 264.201 151.206 264.201C151.695 264.201 152.087 264.101 152.382 263.9C152.681 263.699 152.831 263.451 152.831 263.156C152.831 262.906 152.734 262.699 152.541 262.537C152.352 262.374 152.056 262.249 151.655 262.162L150.166 261.849C149.329 261.675 148.71 261.381 148.308 260.968C147.907 260.552 147.708 260.025 147.712 259.389C147.708 258.851 147.854 258.385 148.149 257.991C148.448 257.593 148.863 257.287 149.393 257.071C149.928 256.851 150.543 256.741 151.24 256.741C152.263 256.741 153.068 256.959 153.655 257.395C154.246 257.83 154.611 258.419 154.751 259.162ZM164.081 265.752C163.286 265.752 162.602 265.609 162.03 265.321C161.458 265.033 161.017 264.645 160.706 264.156C160.399 263.663 160.246 263.109 160.246 262.491C160.246 262.025 160.34 261.612 160.53 261.252C160.723 260.893 160.988 260.559 161.325 260.252C161.666 259.946 162.06 259.641 162.507 259.338L164.57 257.934C164.873 257.737 165.102 257.529 165.257 257.309C165.416 257.09 165.496 256.832 165.496 256.537C165.496 256.287 165.39 256.05 165.178 255.826C164.969 255.603 164.681 255.491 164.314 255.491C164.068 255.491 163.85 255.55 163.661 255.667C163.475 255.781 163.329 255.931 163.223 256.116C163.121 256.302 163.07 256.499 163.07 256.707C163.07 256.961 163.14 257.218 163.28 257.48C163.424 257.741 163.609 258.012 163.837 258.292C164.068 258.573 164.314 258.87 164.575 259.184L170.036 265.582H167.808L163.274 260.389C162.937 259.995 162.611 259.607 162.297 259.224C161.986 258.842 161.731 258.444 161.53 258.031C161.333 257.614 161.234 257.163 161.234 256.679C161.234 256.129 161.361 255.639 161.615 255.207C161.869 254.771 162.223 254.429 162.678 254.179C163.136 253.929 163.672 253.804 164.286 253.804C164.899 253.804 165.426 253.925 165.865 254.167C166.304 254.41 166.643 254.732 166.882 255.133C167.121 255.535 167.24 255.972 167.24 256.446C167.24 256.995 167.104 257.487 166.831 257.923C166.558 258.355 166.179 258.747 165.695 259.099L163.342 260.821C162.956 261.101 162.679 261.385 162.513 261.673C162.346 261.957 162.263 262.199 162.263 262.4C162.263 262.707 162.34 262.985 162.496 263.235C162.651 263.485 162.869 263.686 163.149 263.838C163.433 263.985 163.765 264.059 164.143 264.059C164.56 264.059 164.971 263.967 165.376 263.781C165.782 263.592 166.151 263.323 166.484 262.974C166.818 262.626 167.083 262.209 167.28 261.724C167.477 261.235 167.575 260.694 167.575 260.099H169.342C169.342 260.834 169.261 261.474 169.098 262.02C168.935 262.561 168.725 263.02 168.467 263.395C168.21 263.766 167.937 264.063 167.649 264.287C167.558 264.351 167.471 264.415 167.388 264.48C167.304 264.544 167.217 264.609 167.126 264.673C166.717 265.044 166.238 265.317 165.689 265.491C165.143 265.665 164.607 265.752 164.081 265.752ZM175.273 265.582V253.946H179.636C180.53 253.946 181.28 254.112 181.886 254.446C182.496 254.779 182.956 255.237 183.267 255.821C183.581 256.4 183.739 257.059 183.739 257.798C183.739 258.544 183.581 259.207 183.267 259.787C182.953 260.366 182.489 260.823 181.875 261.156C181.261 261.485 180.506 261.65 179.608 261.65H176.716V259.917H179.324C179.847 259.917 180.275 259.826 180.608 259.645C180.941 259.463 181.188 259.213 181.347 258.895C181.509 258.576 181.591 258.211 181.591 257.798C181.591 257.385 181.509 257.021 181.347 256.707C181.188 256.393 180.939 256.148 180.602 255.974C180.269 255.796 179.839 255.707 179.312 255.707H177.381V265.582H175.273ZM185.479 265.582V256.855H187.473V258.309H187.564C187.723 257.806 187.996 257.417 188.382 257.145C188.772 256.868 189.217 256.73 189.717 256.73C189.831 256.73 189.958 256.735 190.098 256.747C190.242 256.754 190.361 256.768 190.456 256.787V258.679C190.369 258.648 190.231 258.622 190.041 258.599C189.856 258.573 189.676 258.559 189.501 258.559C189.126 258.559 188.789 258.641 188.49 258.804C188.195 258.963 187.962 259.184 187.791 259.468C187.621 259.752 187.536 260.08 187.536 260.451V265.582H185.479ZM195.327 265.752C194.452 265.752 193.696 265.571 193.06 265.207C192.427 264.84 191.94 264.321 191.599 263.65C191.259 262.976 191.088 262.182 191.088 261.27C191.088 260.372 191.259 259.584 191.599 258.906C191.944 258.224 192.425 257.694 193.043 257.315C193.66 256.932 194.385 256.741 195.219 256.741C195.757 256.741 196.264 256.828 196.741 257.002C197.223 257.173 197.647 257.438 198.014 257.798C198.385 258.158 198.677 258.616 198.889 259.173C199.101 259.726 199.207 260.385 199.207 261.15V261.781H192.054V260.395H197.236C197.232 260.001 197.147 259.65 196.98 259.343C196.813 259.033 196.58 258.788 196.281 258.61C195.986 258.432 195.641 258.343 195.247 258.343C194.827 258.343 194.457 258.446 194.139 258.65C193.821 258.851 193.573 259.116 193.395 259.446C193.221 259.771 193.132 260.129 193.128 260.52V261.73C193.128 262.237 193.221 262.673 193.406 263.037C193.592 263.396 193.851 263.673 194.185 263.866C194.518 264.056 194.908 264.15 195.355 264.15C195.654 264.15 195.925 264.109 196.168 264.025C196.41 263.938 196.62 263.811 196.798 263.645C196.976 263.478 197.111 263.271 197.202 263.025L199.122 263.241C199.001 263.749 198.77 264.192 198.429 264.571C198.092 264.946 197.66 265.237 197.134 265.446C196.607 265.65 196.005 265.752 195.327 265.752ZM207.845 259.162L205.97 259.366C205.917 259.177 205.824 258.999 205.692 258.832C205.563 258.665 205.389 258.531 205.169 258.429C204.949 258.326 204.68 258.275 204.362 258.275C203.934 258.275 203.574 258.368 203.283 258.554C202.995 258.739 202.853 258.98 202.857 259.275C202.853 259.529 202.946 259.735 203.135 259.895C203.328 260.054 203.646 260.184 204.089 260.287L205.578 260.605C206.404 260.783 207.018 261.065 207.419 261.451C207.824 261.838 208.029 262.343 208.033 262.968C208.029 263.518 207.868 264.002 207.55 264.423C207.235 264.84 206.798 265.165 206.237 265.4C205.677 265.635 205.033 265.752 204.305 265.752C203.237 265.752 202.377 265.529 201.726 265.082C201.074 264.631 200.686 264.004 200.561 263.201L202.567 263.008C202.658 263.402 202.851 263.699 203.146 263.9C203.442 264.101 203.826 264.201 204.3 264.201C204.788 264.201 205.18 264.101 205.476 263.9C205.775 263.699 205.925 263.451 205.925 263.156C205.925 262.906 205.828 262.699 205.635 262.537C205.446 262.374 205.15 262.249 204.749 262.162L203.26 261.849C202.423 261.675 201.804 261.381 201.402 260.968C201 260.552 200.802 260.025 200.805 259.389C200.802 258.851 200.947 258.385 201.243 257.991C201.542 257.593 201.957 257.287 202.487 257.071C203.021 256.851 203.637 256.741 204.334 256.741C205.357 256.741 206.161 256.959 206.749 257.395C207.339 257.83 207.705 258.419 207.845 259.162ZM213.536 265.752C212.664 265.752 211.916 265.561 211.291 265.179C210.67 264.796 210.191 264.268 209.854 263.593C209.52 262.915 209.354 262.135 209.354 261.252C209.354 260.366 209.524 259.584 209.865 258.906C210.206 258.224 210.687 257.694 211.308 257.315C211.933 256.932 212.672 256.741 213.524 256.741C214.232 256.741 214.859 256.872 215.405 257.133C215.954 257.391 216.392 257.756 216.717 258.23C217.043 258.699 217.229 259.249 217.274 259.877H215.308C215.229 259.457 215.039 259.107 214.74 258.826C214.445 258.542 214.049 258.4 213.553 258.4C213.132 258.4 212.763 258.514 212.445 258.741C212.126 258.965 211.878 259.287 211.7 259.707C211.526 260.127 211.439 260.631 211.439 261.218C211.439 261.813 211.526 262.324 211.7 262.752C211.875 263.177 212.119 263.504 212.433 263.735C212.751 263.963 213.125 264.076 213.553 264.076C213.856 264.076 214.126 264.02 214.365 263.906C214.607 263.788 214.81 263.62 214.973 263.4C215.136 263.181 215.248 262.913 215.308 262.599H217.274C217.225 263.217 217.043 263.764 216.729 264.241C216.414 264.715 215.986 265.086 215.445 265.355C214.903 265.62 214.267 265.752 213.536 265.752ZM218.963 265.582V256.855H220.957V258.309H221.048C221.207 257.806 221.48 257.417 221.866 257.145C222.257 256.868 222.702 256.73 223.202 256.73C223.315 256.73 223.442 256.735 223.582 256.747C223.726 256.754 223.846 256.768 223.94 256.787V258.679C223.853 258.648 223.715 258.622 223.526 258.599C223.34 258.573 223.16 258.559 222.986 258.559C222.611 258.559 222.274 258.641 221.974 258.804C221.679 258.963 221.446 259.184 221.276 259.468C221.105 259.752 221.02 260.08 221.02 260.451V265.582H218.963ZM225.307 265.582V256.855H227.364V265.582H225.307ZM226.341 255.616C226.015 255.616 225.735 255.508 225.5 255.292C225.265 255.073 225.148 254.809 225.148 254.502C225.148 254.192 225.265 253.929 225.5 253.713C225.735 253.493 226.015 253.383 226.341 253.383C226.67 253.383 226.951 253.493 227.182 253.713C227.417 253.929 227.534 254.192 227.534 254.502C227.534 254.809 227.417 255.073 227.182 255.292C226.951 255.508 226.67 255.616 226.341 255.616ZM229.479 268.855V256.855H231.501V258.298H231.621C231.727 258.086 231.876 257.86 232.07 257.622C232.263 257.379 232.524 257.173 232.854 257.002C233.183 256.828 233.604 256.741 234.115 256.741C234.789 256.741 235.397 256.913 235.939 257.258C236.484 257.599 236.916 258.105 237.234 258.775C237.556 259.442 237.717 260.26 237.717 261.23C237.717 262.188 237.56 263.002 237.246 263.673C236.931 264.343 236.503 264.855 235.962 265.207C235.42 265.559 234.806 265.735 234.121 265.735C233.621 265.735 233.206 265.652 232.876 265.485C232.547 265.319 232.282 265.118 232.081 264.883C231.884 264.645 231.731 264.419 231.621 264.207H231.536V268.855H229.479ZM231.496 261.218C231.496 261.783 231.575 262.277 231.734 262.701C231.897 263.126 232.13 263.457 232.433 263.696C232.74 263.931 233.111 264.048 233.547 264.048C234.001 264.048 234.382 263.927 234.689 263.684C234.996 263.438 235.227 263.103 235.382 262.679C235.541 262.251 235.621 261.764 235.621 261.218C235.621 260.677 235.543 260.196 235.388 259.775C235.232 259.355 235.001 259.025 234.695 258.787C234.388 258.548 234.005 258.429 233.547 258.429C233.107 258.429 232.734 258.544 232.428 258.775C232.121 259.006 231.888 259.33 231.729 259.747C231.573 260.163 231.496 260.654 231.496 261.218ZM243.837 256.855V258.446H238.82V256.855H243.837ZM240.058 254.764H242.115V262.957C242.115 263.234 242.157 263.446 242.24 263.593C242.327 263.737 242.441 263.836 242.581 263.889C242.721 263.942 242.876 263.968 243.047 263.968C243.176 263.968 243.293 263.959 243.399 263.94C243.509 263.921 243.592 263.904 243.649 263.889L243.996 265.497C243.886 265.535 243.729 265.576 243.524 265.622C243.323 265.667 243.077 265.694 242.786 265.701C242.27 265.717 241.806 265.639 241.393 265.468C240.981 265.294 240.653 265.025 240.411 264.662C240.172 264.298 240.054 263.843 240.058 263.298V254.764ZM245.557 265.582V256.855H247.614V265.582H245.557ZM246.591 255.616C246.265 255.616 245.985 255.508 245.75 255.292C245.515 255.073 245.398 254.809 245.398 254.502C245.398 254.192 245.515 253.929 245.75 253.713C245.985 253.493 246.265 253.383 246.591 253.383C246.92 253.383 247.201 253.493 247.432 253.713C247.667 253.929 247.784 254.192 247.784 254.502C247.784 254.809 247.667 255.073 247.432 255.292C247.201 255.508 246.92 255.616 246.591 255.616ZM253.536 265.752C252.683 265.752 251.945 265.565 251.32 265.19C250.695 264.815 250.21 264.29 249.865 263.616C249.524 262.942 249.354 262.154 249.354 261.252C249.354 260.351 249.524 259.561 249.865 258.883C250.21 258.205 250.695 257.679 251.32 257.304C251.945 256.929 252.683 256.741 253.536 256.741C254.388 256.741 255.126 256.929 255.751 257.304C256.376 257.679 256.859 258.205 257.2 258.883C257.545 259.561 257.717 260.351 257.717 261.252C257.717 262.154 257.545 262.942 257.2 263.616C256.859 264.29 256.376 264.815 255.751 265.19C255.126 265.565 254.388 265.752 253.536 265.752ZM253.547 264.105C254.009 264.105 254.395 263.978 254.706 263.724C255.017 263.467 255.248 263.122 255.399 262.69C255.554 262.258 255.632 261.777 255.632 261.247C255.632 260.713 255.554 260.23 255.399 259.798C255.248 259.362 255.017 259.016 254.706 258.758C254.395 258.501 254.009 258.372 253.547 258.372C253.073 258.372 252.679 258.501 252.365 258.758C252.054 259.016 251.821 259.362 251.666 259.798C251.515 260.23 251.439 260.713 251.439 261.247C251.439 261.777 251.515 262.258 251.666 262.69C251.821 263.122 252.054 263.467 252.365 263.724C252.679 263.978 253.073 264.105 253.547 264.105ZM261.52 260.468V265.582H259.463V256.855H261.429V258.338H261.531C261.732 257.849 262.052 257.461 262.491 257.173C262.935 256.885 263.482 256.741 264.134 256.741C264.736 256.741 265.26 256.87 265.707 257.127C266.158 257.385 266.507 257.758 266.753 258.247C267.003 258.735 267.126 259.328 267.122 260.025V265.582H265.065V260.343C265.065 259.76 264.914 259.304 264.611 258.974C264.312 258.645 263.897 258.48 263.366 258.48C263.007 258.48 262.687 258.559 262.406 258.718C262.13 258.874 261.912 259.099 261.753 259.395C261.598 259.69 261.52 260.048 261.52 260.468ZM276.111 259.162L274.236 259.366C274.183 259.177 274.09 258.999 273.957 258.832C273.829 258.665 273.654 258.531 273.435 258.429C273.215 258.326 272.946 258.275 272.628 258.275C272.2 258.275 271.84 258.368 271.548 258.554C271.26 258.739 271.118 258.98 271.122 259.275C271.118 259.529 271.211 259.735 271.401 259.895C271.594 260.054 271.912 260.184 272.355 260.287L273.844 260.605C274.67 260.783 275.283 261.065 275.685 261.451C276.09 261.838 276.295 262.343 276.298 262.968C276.295 263.518 276.134 264.002 275.815 264.423C275.501 264.84 275.063 265.165 274.503 265.4C273.942 265.635 273.298 265.752 272.571 265.752C271.503 265.752 270.643 265.529 269.991 265.082C269.34 264.631 268.952 264.004 268.827 263.201L270.832 263.008C270.923 263.402 271.116 263.699 271.412 263.9C271.707 264.101 272.092 264.201 272.565 264.201C273.054 264.201 273.446 264.101 273.741 263.9C274.041 263.699 274.19 263.451 274.19 263.156C274.19 262.906 274.094 262.699 273.901 262.537C273.711 262.374 273.416 262.249 273.014 262.162L271.526 261.849C270.688 261.675 270.069 261.381 269.668 260.968C269.266 260.552 269.067 260.025 269.071 259.389C269.067 258.851 269.213 258.385 269.509 257.991C269.808 257.593 270.223 257.287 270.753 257.071C271.287 256.851 271.902 256.741 272.599 256.741C273.622 256.741 274.427 256.959 275.014 257.395C275.605 257.83 275.971 258.419 276.111 259.162Z" fill="#483380"/>
<path d="M295.025 265.265C294.867 265.265 294.708 265.207 294.583 265.082C294.342 264.84 294.342 264.44 294.583 264.199L299.2 259.582L294.583 254.965C294.342 254.724 294.342 254.324 294.583 254.082C294.825 253.84 295.225 253.84 295.467 254.082L300.525 259.14C300.767 259.382 300.767 259.782 300.525 260.024L295.467 265.082C295.342 265.207 295.183 265.265 295.025 265.265Z" fill="#483380"/>
<path d="M299.942 260.207H285.917C285.575 260.207 285.292 259.924 285.292 259.582C285.292 259.24 285.575 258.957 285.917 258.957H299.942C300.283 258.957 300.567 259.24 300.567 259.582C300.567 259.924 300.283 260.207 299.942 260.207Z" fill="#483380"/>
<path opacity="0.4" d="M430.166 133.072C438.441 133.072 445.148 126.364 445.148 118.09C445.148 109.815 438.441 103.107 430.166 103.107C421.891 103.107 415.184 109.815 415.184 118.09C415.184 126.364 421.891 133.072 430.166 133.072Z" fill="#90BD40"/>
<path d="M445.621 134.649C445.338 134.649 445.054 134.539 444.849 134.334L441.915 131.4C441.489 130.974 441.489 130.28 441.915 129.839C442.341 129.413 443.035 129.413 443.477 129.839L446.41 132.772C446.836 133.198 446.836 133.892 446.41 134.334C446.189 134.539 445.905 134.649 445.621 134.649Z" fill="#90BD40"/>
<path d="M434.424 117.223H431.664V114.463C431.664 113.816 431.128 113.28 430.481 113.28C429.835 113.28 429.298 113.816 429.298 114.463V117.223H426.539C425.892 117.223 425.356 117.759 425.356 118.405C425.356 119.052 425.892 119.588 426.539 119.588H429.298V122.348C429.298 122.995 429.835 123.531 430.481 123.531C431.128 123.531 431.664 122.995 431.664 122.348V119.588H434.424C435.071 119.588 435.607 119.052 435.607 118.405C435.607 117.759 435.071 117.223 434.424 117.223Z" fill="#90BD40"/>
<path opacity="0.4" d="M493.865 84.7616L474.204 79.4936C468.478 77.9592 462.592 81.3768 461.064 87.0802L455.219 108.897C453.69 114.6 457.102 120.509 462.805 122.037L482.442 127.298C488.169 128.833 494.054 125.415 495.582 119.712L501.428 97.8956C502.986 92.1753 499.568 86.2898 493.865 84.7616Z" fill="#90BD40"/>
<path d="M490.508 79.7623L479.611 76.8426C477.2 76.1965 474.708 77.6159 474.062 80.0271L473.478 82.2064C472.832 84.6176 474.257 87.0869 476.668 87.7329L487.588 90.6589C489.999 91.305 492.469 89.8793 493.115 87.4681L493.699 85.2888C494.368 82.8839 492.919 80.4084 490.508 79.7623Z" fill="#90BD40"/>
<path d="M473.014 112.224C472.573 112.106 472.176 111.825 471.921 111.384L469.376 106.975C468.883 106.122 469.182 105.01 470.034 104.517C470.887 104.025 471.999 104.323 472.492 105.176L474.138 108.027L484.338 102.138C485.191 101.646 486.304 101.944 486.796 102.797C487.288 103.649 486.99 104.762 486.138 105.254L474.379 112.043C473.961 112.304 473.454 112.342 473.014 112.224Z" fill="#90BD40"/>
<path opacity="0.4" d="M433.748 62.4564C429.945 63.4756 427.681 67.3965 428.7 71.2003C429.7 74.9314 433.427 77.1692 437.266 76.2807C437.378 76.235 437.494 76.2039 437.585 76.1951C437.614 76.1873 437.629 76.1834 437.658 76.1756C437.672 76.1718 437.672 76.1718 437.687 76.1679C441.368 75.0413 443.477 71.2397 442.492 67.5047C441.473 63.701 437.552 61.4372 433.748 62.4564Z" fill="#90BD40"/>
<path d="M445.85 78.1196C441.076 76.5045 434.47 78.2745 431.114 82.068C429.601 83.7961 429.032 85.7379 429.511 87.5237C429.989 89.3094 431.449 90.6921 433.605 91.4215C436.003 92.2416 438.857 92.2081 441.529 91.4924C444.2 90.7766 446.689 89.3785 448.355 87.4692C449.854 85.745 450.427 83.8176 449.944 82.0174C449.451 80.2356 448.006 78.8489 445.85 78.1196Z" fill="#90BD40"/>
</svg>
