<svg width="191" height="50" viewBox="0 0 191 50" fill="none" xmlns="http://www.w3.org/2000/svg">
<rect x="1" y="0.5" width="49" height="49" rx="24.5" stroke="#90BD40"/>
<rect x="5.5" y="5" width="40" height="40" rx="20" fill="#90BD40"/>
<path d="M25.4061 20.912H22.5261V18.842H27.6201V32H25.4061V20.912Z" fill="white"/>
<line x1="50.5" y1="24.5" x2="150.5" y2="24.5" stroke="#D0D3D9"/>
<rect x="150.5" y="5" width="40" height="40" rx="20" fill="#B9BDC7"/>
<path d="M175.154 31.982L166.028 32V30.272L170.33 26.636C172.112 25.124 172.706 24.26 172.706 23C172.706 21.506 171.896 20.66 170.51 20.66C169.07 20.66 168.17 21.668 168.152 23.36H165.866C165.884 20.48 167.72 18.608 170.51 18.608C173.318 18.608 175.064 20.21 175.064 22.874C175.064 24.71 174.056 26.096 172.058 27.806L169.682 29.84H175.154V31.982Z" fill="white"/>
</svg>
