<svg width="191" height="50" viewBox="0 0 191 50" fill="none" xmlns="http://www.w3.org/2000/svg">
<rect x="0.5" y="5" width="40" height="40" rx="20" fill="#90BD40"/>
<path d="M13.9375 25.9375L18.3125 30.3125L27.0625 20.9375" stroke="white" stroke-width="2.5" stroke-linecap="round" stroke-linejoin="round"/>
<line x1="40.5" y1="24.5" x2="140.5" y2="24.5" stroke="#90BD40"/>
<rect x="141" y="0.5" width="49" height="49" rx="24.5" stroke="#90BD40"/>
<rect x="145.5" y="5" width="40" height="40" rx="20" fill="#90BD40"/>
<path d="M170.154 31.982L161.028 32V30.272L165.33 26.636C167.112 25.124 167.706 24.26 167.706 23C167.706 21.506 166.896 20.66 165.51 20.66C164.07 20.66 163.17 21.668 163.152 23.36H160.866C160.884 20.48 162.72 18.608 165.51 18.608C168.318 18.608 170.064 20.21 170.064 22.874C170.064 24.71 169.056 26.096 167.058 27.806L164.682 29.84H170.154V31.982Z" fill="white"/>
</svg>
