<svg width="691" height="50" viewBox="0 0 691 50" fill="none" xmlns="http://www.w3.org/2000/svg">
<rect y="5" width="40" height="40" rx="20" fill="#90BD40"/>
<path d="M13.4375 25.9375L17.8125 30.3125L26.5625 20.9375" stroke="white" stroke-width="2.5" stroke-linecap="round" stroke-linejoin="round"/>
<line x1="40" y1="24.5" x2="320" y2="24.5" stroke="#90BD40"/>
<rect x="320.5" y="0.5" width="49" height="49" rx="24.5" stroke="#90BD40"/>
<rect x="325" y="5" width="40" height="40" rx="20" fill="#90BD40"/>
<path d="M349.654 31.982L340.528 32V30.272L344.83 26.636C346.612 25.124 347.206 24.26 347.206 23C347.206 21.506 346.396 20.66 345.01 20.66C343.57 20.66 342.67 21.668 342.652 23.36H340.366C340.384 20.48 342.22 18.608 345.01 18.608C347.818 18.608 349.564 20.21 349.564 22.874C349.564 24.71 348.556 26.096 346.558 27.806L344.182 29.84H349.654V31.982Z" fill="white"/>
<line x1="370" y1="24.5" x2="651" y2="24.5" stroke="#D0D3D9"/>
<rect x="651" y="5" width="40" height="40" rx="20" fill="#B9BDC7"/>
<path d="M670.538 25.484H668.936V23.99L672.32 20.876H666.848V18.842H675.2V20.678L671.996 23.63C674.012 24.026 675.578 25.502 675.578 27.824C675.578 30.524 673.472 32.234 670.808 32.234C668.234 32.234 666.236 30.65 666.236 27.806H668.504C668.504 29.318 669.44 30.182 670.844 30.182C672.284 30.182 673.238 29.246 673.238 27.788C673.238 26.456 672.374 25.484 670.538 25.484Z" fill="white"/>
</svg>
