<svg width="382" height="50" viewBox="0 0 382 50" fill="none" xmlns="http://www.w3.org/2000/svg">
<rect y="5" width="40" height="40" rx="20" fill="#90BD40"/>
<path d="M13.4375 25.9375L17.8125 30.3125L26.5625 20.9375" stroke="white" stroke-width="2.5" stroke-linecap="round" stroke-linejoin="round"/>
<line x1="40" y1="24.5" x2="166" y2="24.5" stroke="#90BD40"/>
<rect x="166.5" y="0.5" width="49" height="49" rx="24.5" stroke="#90BD40"/>
<rect x="171" y="5" width="40" height="40" rx="20" fill="#90BD40"/>
<path d="M195.654 31.982L186.528 32V30.272L190.83 26.636C192.612 25.124 193.206 24.26 193.206 23C193.206 21.506 192.396 20.66 191.01 20.66C189.57 20.66 188.67 21.668 188.652 23.36H186.366C186.384 20.48 188.22 18.608 191.01 18.608C193.818 18.608 195.564 20.21 195.564 22.874C195.564 24.71 194.556 26.096 192.558 27.806L190.182 29.84H195.654V31.982Z" fill="white"/>
<line x1="216" y1="24.5" x2="342" y2="24.5" stroke="#D0D3D9"/>
<rect x="342" y="5" width="40" height="40" rx="20" fill="#B9BDC7"/>
<path d="M361.538 25.484H359.936V23.99L363.32 20.876H357.848V18.842H366.2V20.678L362.996 23.63C365.012 24.026 366.578 25.502 366.578 27.824C366.578 30.524 364.472 32.234 361.808 32.234C359.234 32.234 357.236 30.65 357.236 27.806H359.504C359.504 29.318 360.44 30.182 361.844 30.182C363.284 30.182 364.238 29.246 364.238 27.788C364.238 26.456 363.374 25.484 361.538 25.484Z" fill="white"/>
</svg>
