<svg width="43" height="42" viewBox="0 0 43 42" fill="none" xmlns="http://www.w3.org/2000/svg">
<path d="M21.6665 39.8126C20.4415 39.8126 19.199 39.34 18.2715 38.4125L15.279 35.4551C14.5265 34.7201 13.5465 34.3175 12.4965 34.3175H11.1665C7.544 34.3175 4.604 31.3951 4.604 27.8076V8.71503C4.604 5.12753 7.544 2.20508 11.1665 2.20508H32.1665C35.789 2.20508 38.729 5.12753 38.729 8.71503V27.8076C38.729 31.3951 35.789 34.3175 32.1665 34.3175H30.8365C29.7865 34.3175 28.789 34.7201 28.054 35.4551L25.0615 38.4125C24.134 39.34 22.8915 39.8126 21.6665 39.8126ZM11.1665 4.81256C8.9965 4.81256 7.229 6.56251 7.229 8.69751V27.7901C7.229 29.9426 8.9965 31.675 11.1665 31.675H12.4965C14.2465 31.675 15.8915 32.3575 17.134 33.5825L20.1265 36.5401C20.984 37.3801 22.3665 37.3801 23.224 36.5401L26.2165 33.5825C27.459 32.3575 29.104 31.675 30.854 31.675H32.1665C34.3365 31.675 36.104 29.9251 36.104 27.7901V8.69751C36.104 6.54501 34.3365 4.81256 32.1665 4.81256H11.1665Z" fill="#483380"/>
<path d="M18.8319 25.3925H14.1419C13.3719 25.3925 12.6544 25.0249 12.1994 24.3949C11.7619 23.7999 11.6569 23.0651 11.8669 22.3651C12.4794 20.4926 13.9844 19.4775 15.3144 18.5675C16.7144 17.6225 17.5019 17.0275 17.5019 16.0125C17.5019 15.1025 16.7669 14.3674 15.8569 14.3674C14.9469 14.3674 14.2119 15.1025 14.2119 16.0125C14.2119 16.73 13.6169 17.325 12.8994 17.325C12.1819 17.325 11.5869 16.73 11.5869 16.0125C11.5869 13.6675 13.4944 11.7424 15.8569 11.7424C18.2194 11.7424 20.1269 13.65 20.1269 16.0125C20.1269 18.48 18.2719 19.74 16.7844 20.755C15.8569 21.385 14.9819 21.98 14.5444 22.7675H18.8144C19.5319 22.7675 20.1269 23.3625 20.1269 24.08C20.1269 24.7975 19.5494 25.3925 18.8319 25.3925Z" fill="#483380"/>
<path d="M28.7363 25.3926C28.0188 25.3926 27.4238 24.7976 27.4238 24.0801V22.8725H23.9938C23.9938 22.8725 23.9938 22.8725 23.9763 22.8725C23.1188 22.8725 22.3313 22.4177 21.8938 21.6827C21.4563 20.9302 21.4563 20.0026 21.8938 19.2676C23.0838 17.2201 24.4663 14.8926 25.7263 12.8626C26.2863 11.9701 27.3538 11.5677 28.3513 11.8477C29.3488 12.1452 30.0488 13.0552 30.0313 14.1052V20.2651H30.4163C31.1338 20.2651 31.7288 20.8601 31.7288 21.5776C31.7288 22.2951 31.1338 22.8901 30.4163 22.8901H30.0488V24.0977C30.0488 24.8152 29.4713 25.3926 28.7363 25.3926ZM27.4238 15.1202C26.3913 16.8002 25.3238 18.6025 24.3613 20.2475H27.4238V15.1202Z" fill="#483380"/>
</svg>
