<svg width="20" height="20" viewBox="0 0 20 20" fill="none" xmlns="http://www.w3.org/2000/svg">
<path d="M10.0001 18.9583C5.05841 18.9583 1.04175 14.9416 1.04175 9.99996C1.04175 5.05829 5.05841 1.04163 10.0001 1.04163C14.9417 1.04163 18.9584 5.05829 18.9584 9.99996C18.9584 14.9416 14.9417 18.9583 10.0001 18.9583ZM10.0001 2.29163C5.75008 2.29163 2.29175 5.74996 2.29175 9.99996C2.29175 14.25 5.75008 17.7083 10.0001 17.7083C14.2501 17.7083 17.7084 14.25 17.7084 9.99996C17.7084 5.74996 14.2501 2.29163 10.0001 2.29163Z" fill="#483380"/>
<path d="M10 12.7084C9.65833 12.7084 9.375 12.425 9.375 12.0834V7.08337C9.375 6.74171 9.65833 6.45837 10 6.45837C10.3417 6.45837 10.625 6.74171 10.625 7.08337V12.0834C10.625 12.425 10.3417 12.7084 10 12.7084Z" fill="#483380"/>
<path d="M10.0001 13.5416C9.84178 13.5416 9.68345 13.4833 9.55845 13.3583L7.05845 10.8583C6.81678 10.6166 6.81678 10.2166 7.05845 9.97495C7.30011 9.73328 7.70011 9.73328 7.94178 9.97495L10.0001 12.0333L12.0584 9.97495C12.3001 9.73328 12.7001 9.73328 12.9418 9.97495C13.1834 10.2166 13.1834 10.6166 12.9418 10.8583L10.4418 13.3583C10.3168 13.4833 10.1584 13.5416 10.0001 13.5416Z" fill="#483380"/>
</svg>
