<svg width="19" height="18" viewBox="0 0 19 18" fill="none" xmlns="http://www.w3.org/2000/svg">
<path d="M6.5 4.3125C6.1925 4.3125 5.9375 4.0575 5.9375 3.75V1.5C5.9375 1.1925 6.1925 0.9375 6.5 0.9375C6.8075 0.9375 7.0625 1.1925 7.0625 1.5V3.75C7.0625 4.0575 6.8075 4.3125 6.5 4.3125Z" fill="#989FAD"/>
<path d="M12.5 4.3125C12.1925 4.3125 11.9375 4.0575 11.9375 3.75V1.5C11.9375 1.1925 12.1925 0.9375 12.5 0.9375C12.8075 0.9375 13.0625 1.1925 13.0625 1.5V3.75C13.0625 4.0575 12.8075 4.3125 12.5 4.3125Z" fill="#989FAD"/>
<path d="M6.875 10.875C6.7775 10.875 6.68 10.8525 6.59 10.815C6.4925 10.7775 6.4175 10.725 6.3425 10.6575C6.2075 10.515 6.125 10.3275 6.125 10.125C6.125 10.0275 6.1475 9.92999 6.185 9.83999C6.2225 9.74999 6.275 9.6675 6.3425 9.5925C6.4175 9.525 6.4925 9.47248 6.59 9.43498C6.86 9.32248 7.1975 9.3825 7.4075 9.5925C7.5425 9.735 7.625 9.92999 7.625 10.125C7.625 10.17 7.6175 10.2225 7.61 10.275C7.6025 10.32 7.5875 10.365 7.565 10.41C7.55 10.455 7.5275 10.5 7.4975 10.545C7.475 10.5825 7.4375 10.62 7.4075 10.6575C7.265 10.7925 7.07 10.875 6.875 10.875Z" fill="#989FAD"/>
<path d="M9.5 10.875C9.4025 10.875 9.305 10.8525 9.215 10.815C9.1175 10.7775 9.0425 10.725 8.9675 10.6575C8.8325 10.515 8.75 10.3275 8.75 10.125C8.75 10.0275 8.7725 9.93002 8.81 9.84002C8.8475 9.75002 8.9 9.66753 8.9675 9.59253C9.0425 9.52503 9.1175 9.47252 9.215 9.43502C9.485 9.31502 9.8225 9.38253 10.0325 9.59253C10.1675 9.73503 10.25 9.93003 10.25 10.125C10.25 10.17 10.2425 10.2225 10.235 10.275C10.2275 10.32 10.2125 10.365 10.19 10.41C10.175 10.455 10.1525 10.5 10.1225 10.545C10.1 10.5825 10.0625 10.62 10.0325 10.6575C9.89 10.7925 9.695 10.875 9.5 10.875Z" fill="#989FAD"/>
<path d="M12.125 10.875C12.0275 10.875 11.93 10.8525 11.84 10.815C11.7425 10.7775 11.6675 10.725 11.5925 10.6575C11.5625 10.62 11.5325 10.5825 11.5025 10.545C11.4725 10.5 11.45 10.455 11.435 10.41C11.4125 10.365 11.3975 10.32 11.39 10.275C11.3825 10.2225 11.375 10.17 11.375 10.125C11.375 9.93003 11.4575 9.73503 11.5925 9.59253C11.6675 9.52503 11.7425 9.47252 11.84 9.43502C12.1175 9.31502 12.4475 9.38253 12.6575 9.59253C12.7925 9.73503 12.875 9.93003 12.875 10.125C12.875 10.17 12.8675 10.2225 12.86 10.275C12.8525 10.32 12.8375 10.365 12.815 10.41C12.8 10.455 12.7775 10.5 12.7475 10.545C12.725 10.5825 12.6875 10.62 12.6575 10.6575C12.515 10.7925 12.32 10.875 12.125 10.875Z" fill="#989FAD"/>
<path d="M6.875 13.5C6.7775 13.5 6.68 13.4775 6.59 13.44C6.5 13.4025 6.4175 13.35 6.3425 13.2825C6.2075 13.14 6.125 12.945 6.125 12.75C6.125 12.6525 6.1475 12.555 6.185 12.465C6.2225 12.3675 6.275 12.285 6.3425 12.2175C6.62 11.94 7.13 11.94 7.4075 12.2175C7.5425 12.36 7.625 12.555 7.625 12.75C7.625 12.945 7.5425 13.14 7.4075 13.2825C7.265 13.4175 7.07 13.5 6.875 13.5Z" fill="#989FAD"/>
<path d="M9.5 13.5C9.305 13.5 9.11 13.4175 8.9675 13.2825C8.8325 13.14 8.75 12.945 8.75 12.75C8.75 12.6525 8.7725 12.555 8.81 12.465C8.8475 12.3675 8.9 12.285 8.9675 12.2175C9.245 11.94 9.755 11.94 10.0325 12.2175C10.1 12.285 10.1525 12.3675 10.19 12.465C10.2275 12.555 10.25 12.6525 10.25 12.75C10.25 12.945 10.1675 13.14 10.0325 13.2825C9.89 13.4175 9.695 13.5 9.5 13.5Z" fill="#989FAD"/>
<path d="M12.125 13.5001C11.93 13.5001 11.735 13.4176 11.5925 13.2826C11.525 13.2151 11.4725 13.1326 11.435 13.0351C11.3975 12.9451 11.375 12.8476 11.375 12.7501C11.375 12.6526 11.3975 12.5551 11.435 12.4651C11.4725 12.3676 11.525 12.2851 11.5925 12.2176C11.765 12.0451 12.0275 11.9625 12.2675 12.015C12.32 12.0225 12.365 12.0375 12.41 12.06C12.455 12.075 12.5 12.0976 12.545 12.1276C12.5825 12.1501 12.62 12.1876 12.6575 12.2176C12.7925 12.3601 12.875 12.5551 12.875 12.7501C12.875 12.9451 12.7925 13.1401 12.6575 13.2826C12.515 13.4176 12.32 13.5001 12.125 13.5001Z" fill="#989FAD"/>
<path d="M15.875 7.38H3.125C2.8175 7.38 2.5625 7.125 2.5625 6.8175C2.5625 6.51 2.8175 6.255 3.125 6.255H15.875C16.1825 6.255 16.4375 6.51 16.4375 6.8175C16.4375 7.125 16.1825 7.38 15.875 7.38Z" fill="#989FAD"/>
<path d="M12.5 17.0625H6.5C3.7625 17.0625 2.1875 15.4875 2.1875 12.75V6.375C2.1875 3.6375 3.7625 2.0625 6.5 2.0625H12.5C15.2375 2.0625 16.8125 3.6375 16.8125 6.375V12.75C16.8125 15.4875 15.2375 17.0625 12.5 17.0625ZM6.5 3.1875C4.355 3.1875 3.3125 4.23 3.3125 6.375V12.75C3.3125 14.895 4.355 15.9375 6.5 15.9375H12.5C14.645 15.9375 15.6875 14.895 15.6875 12.75V6.375C15.6875 4.23 14.645 3.1875 12.5 3.1875H6.5Z" fill="#989FAD"/>
</svg>
