<svg width="22" height="22" viewBox="0 0 22 22" fill="none" xmlns="http://www.w3.org/2000/svg">
<path d="M7.33398 5.27087C6.95815 5.27087 6.64648 4.95921 6.64648 4.58337V1.83337C6.64648 1.45754 6.95815 1.14587 7.33398 1.14587C7.70982 1.14587 8.02148 1.45754 8.02148 1.83337V4.58337C8.02148 4.95921 7.70982 5.27087 7.33398 5.27087Z" fill="#989FAD"/>
<path d="M14.666 5.27087C14.2902 5.27087 13.9785 4.95921 13.9785 4.58337V1.83337C13.9785 1.45754 14.2902 1.14587 14.666 1.14587C15.0418 1.14587 15.3535 1.45754 15.3535 1.83337V4.58337C15.3535 4.95921 15.0418 5.27087 14.666 5.27087Z" fill="#989FAD"/>
<path d="M18.7923 9.02002H3.20898C2.83315 9.02002 2.52148 8.70835 2.52148 8.33252C2.52148 7.95669 2.83315 7.64502 3.20898 7.64502H18.7923C19.1681 7.64502 19.4798 7.95669 19.4798 8.33252C19.4798 8.70835 19.1681 9.02002 18.7923 9.02002Z" fill="#989FAD"/>
<path d="M14.6667 20.8542H7.33333C3.9875 20.8542 2.0625 18.9292 2.0625 15.5834V7.79171C2.0625 4.44587 3.9875 2.52087 7.33333 2.52087H14.6667C18.0125 2.52087 19.9375 4.44587 19.9375 7.79171V15.5834C19.9375 18.9292 18.0125 20.8542 14.6667 20.8542ZM7.33333 3.89587C4.71167 3.89587 3.4375 5.17004 3.4375 7.79171V15.5834C3.4375 18.205 4.71167 19.4792 7.33333 19.4792H14.6667C17.2883 19.4792 18.5625 18.205 18.5625 15.5834V7.79171C18.5625 5.17004 17.2883 3.89587 14.6667 3.89587H7.33333Z" fill="#989FAD"/>
<path d="M7.79167 13.2917C7.6725 13.2917 7.55333 13.2642 7.44333 13.2184C7.33333 13.1726 7.23251 13.1084 7.14084 13.0259C7.05834 12.9342 6.99415 12.8334 6.94832 12.7234C6.90249 12.6134 6.875 12.4942 6.875 12.3751C6.875 12.1367 6.97584 11.8984 7.14084 11.7242C7.23251 11.6417 7.33333 11.5775 7.44333 11.5317C7.60833 11.4584 7.79168 11.44 7.97501 11.4767C8.03001 11.4859 8.085 11.5042 8.14 11.5317C8.195 11.55 8.25 11.5776 8.305 11.6142C8.35083 11.6509 8.39666 11.6876 8.44249 11.7242C8.47916 11.7701 8.52499 11.8159 8.55249 11.8617C8.58915 11.9167 8.61668 11.9717 8.63501 12.0267C8.66251 12.0817 8.68084 12.1367 8.69001 12.1917C8.69918 12.2559 8.70833 12.3109 8.70833 12.3751C8.70833 12.6134 8.60749 12.8517 8.44249 13.0259C8.26833 13.1909 8.03 13.2917 7.79167 13.2917Z" fill="#989FAD"/>
<path d="M11.0007 13.2917C10.7623 13.2917 10.524 13.1908 10.3498 13.0258C10.3132 12.98 10.2765 12.9342 10.2398 12.8883C10.2032 12.8333 10.1756 12.7783 10.1573 12.7233C10.1298 12.6683 10.1115 12.6134 10.1023 12.5584C10.0931 12.4942 10.084 12.4392 10.084 12.375C10.084 12.2558 10.1115 12.1367 10.1573 12.0267C10.2031 11.9167 10.2673 11.8158 10.3498 11.7242C10.6065 11.4675 11.019 11.385 11.349 11.5317C11.4682 11.5775 11.5598 11.6417 11.6515 11.7242C11.8165 11.8983 11.9173 12.1367 11.9173 12.375C11.9173 12.4392 11.9082 12.4942 11.899 12.5584C11.8898 12.6134 11.8715 12.6683 11.844 12.7233C11.8257 12.7783 11.7981 12.8333 11.7615 12.8883C11.7248 12.9342 11.6881 12.98 11.6515 13.0258C11.5598 13.1083 11.4682 13.1725 11.349 13.2184C11.239 13.2642 11.1198 13.2917 11.0007 13.2917Z" fill="#989FAD"/>
<path d="M7.79167 16.5C7.6725 16.5 7.55333 16.4726 7.44333 16.4267C7.33333 16.3809 7.23251 16.3167 7.14084 16.2342C7.05834 16.1425 6.99415 16.0509 6.94832 15.9317C6.90249 15.8217 6.875 15.7025 6.875 15.5834C6.875 15.345 6.97584 15.1067 7.14084 14.9326C7.23251 14.8501 7.33333 14.7859 7.44333 14.74C7.7825 14.5934 8.18583 14.6759 8.44249 14.9326C8.47916 14.9784 8.52499 15.0242 8.55249 15.07C8.58915 15.125 8.61668 15.18 8.63501 15.235C8.66251 15.29 8.68084 15.345 8.69001 15.4092C8.69918 15.4642 8.70833 15.5284 8.70833 15.5834C8.70833 15.8217 8.60749 16.06 8.44249 16.2342C8.26833 16.3992 8.03 16.5 7.79167 16.5Z" fill="#989FAD"/>
</svg>
