<svg width="21" height="20" viewBox="0 0 21 20" fill="none" xmlns="http://www.w3.org/2000/svg">
<path d="M15.041 18.9582C14.0993 18.9582 13.1077 18.7332 12.0827 18.2998C11.0827 17.8748 10.0743 17.2915 9.09102 16.5832C8.11602 15.8665 7.17435 15.0665 6.28268 14.1915C5.39935 13.2998 4.59935 12.3582 3.89102 11.3915C3.17435 10.3915 2.59935 9.3915 2.19102 8.42484C1.75768 7.3915 1.54102 6.3915 1.54102 5.44984C1.54102 4.79984 1.65768 4.18317 1.88268 3.60817C2.11602 3.0165 2.49102 2.4665 2.99935 1.9915C3.64102 1.35817 4.37435 1.0415 5.15768 1.0415C5.48268 1.0415 5.81602 1.1165 6.09935 1.24984C6.42435 1.39984 6.69935 1.62484 6.89935 1.92484L8.83268 4.64984C9.00768 4.8915 9.14102 5.12484 9.23268 5.35817C9.34102 5.60817 9.39935 5.85817 9.39935 6.09984C9.39935 6.4165 9.30768 6.72484 9.13268 7.0165C9.00768 7.2415 8.81602 7.48317 8.57435 7.72484L8.00768 8.3165C8.01602 8.3415 8.02435 8.35817 8.03268 8.37484C8.13268 8.54984 8.33268 8.84984 8.71602 9.29984C9.12435 9.7665 9.50768 10.1915 9.89102 10.5832C10.3827 11.0665 10.791 11.4498 11.1743 11.7665C11.6494 12.1665 11.9577 12.3665 12.141 12.4582L12.1243 12.4998L12.7327 11.8998C12.991 11.6415 13.241 11.4498 13.4827 11.3248C13.941 11.0415 14.5244 10.9915 15.1077 11.2332C15.3244 11.3248 15.5577 11.4498 15.8077 11.6248L18.5744 13.5915C18.8827 13.7998 19.1077 14.0665 19.241 14.3832C19.366 14.6998 19.4243 14.9915 19.4243 15.2832C19.4243 15.6832 19.3327 16.0832 19.1577 16.4582C18.9827 16.8332 18.766 17.1582 18.491 17.4582C18.016 17.9832 17.4993 18.3582 16.8994 18.5998C16.3244 18.8332 15.6994 18.9582 15.041 18.9582ZM5.15768 2.2915C4.69935 2.2915 4.27435 2.4915 3.86602 2.8915C3.48268 3.24984 3.21602 3.6415 3.04935 4.0665C2.87435 4.49984 2.79102 4.95817 2.79102 5.44984C2.79102 6.22484 2.97435 7.0665 3.34102 7.93317C3.71602 8.8165 4.24102 9.73317 4.90768 10.6498C5.57435 11.5665 6.33268 12.4582 7.16602 13.2998C7.99935 14.1248 8.89935 14.8915 9.82435 15.5665C10.7243 16.2248 11.6493 16.7582 12.566 17.1415C13.991 17.7498 15.3244 17.8915 16.4243 17.4332C16.8493 17.2582 17.2243 16.9915 17.566 16.6082C17.7577 16.3998 17.9077 16.1748 18.0327 15.9082C18.1327 15.6998 18.1827 15.4832 18.1827 15.2665C18.1827 15.1332 18.1577 14.9998 18.091 14.8498C18.066 14.7998 18.016 14.7082 17.8577 14.5998L15.091 12.6332C14.9243 12.5165 14.7743 12.4332 14.6327 12.3748C14.4493 12.2998 14.3743 12.2248 14.091 12.3998C13.9243 12.4832 13.7743 12.6082 13.6077 12.7748L12.9743 13.3998C12.6494 13.7165 12.1494 13.7915 11.766 13.6498L11.541 13.5498C11.1993 13.3665 10.7993 13.0832 10.3577 12.7082C9.95768 12.3665 9.52435 11.9665 8.99935 11.4498C8.59102 11.0332 8.18268 10.5915 7.75768 10.0998C7.36602 9.6415 7.08268 9.24984 6.90768 8.92484L6.80768 8.67484C6.75768 8.48317 6.74102 8.37484 6.74102 8.25817C6.74102 7.95817 6.84935 7.6915 7.05768 7.48317L7.68268 6.83317C7.84935 6.6665 7.97435 6.50817 8.05768 6.3665C8.12435 6.25817 8.14935 6.1665 8.14935 6.08317C8.14935 6.0165 8.12435 5.9165 8.08268 5.8165C8.02435 5.68317 7.93268 5.53317 7.81602 5.37484L5.88268 2.6415C5.79935 2.52484 5.69935 2.4415 5.57435 2.38317C5.44102 2.32484 5.29935 2.2915 5.15768 2.2915ZM12.1243 12.5082L11.991 13.0748L12.216 12.4915C12.1743 12.4832 12.141 12.4915 12.1243 12.5082Z" fill="#667085"/>
</svg>
