<svg width="17" height="16" viewBox="0 0 17 16" fill="none" xmlns="http://www.w3.org/2000/svg">
<path d="M15.1668 6.16663H1.8335C1.56016 6.16663 1.3335 5.93996 1.3335 5.66663C1.3335 5.39329 1.56016 5.16663 1.8335 5.16663H15.1668C15.4402 5.16663 15.6668 5.39329 15.6668 5.66663C15.6668 5.93996 15.4402 6.16663 15.1668 6.16663Z" fill="#858D9D"/>
<path d="M5.83333 11.5H4.5C4.22667 11.5 4 11.2733 4 11C4 10.7267 4.22667 10.5 4.5 10.5H5.83333C6.10667 10.5 6.33333 10.7267 6.33333 11C6.33333 11.2733 6.10667 11.5 5.83333 11.5Z" fill="#858D9D"/>
<path d="M10.1667 11.5H7.5C7.22667 11.5 7 11.2733 7 11C7 10.7267 7.22667 10.5 7.5 10.5H10.1667C10.44 10.5 10.6667 10.7267 10.6667 11C10.6667 11.2733 10.44 11.5 10.1667 11.5Z" fill="#858D9D"/>
<path d="M12.2068 14.1667H4.7935C2.14016 14.1667 1.3335 13.3667 1.3335 10.74V5.26004C1.3335 2.63337 2.14016 1.83337 4.7935 1.83337H12.2002C14.8535 1.83337 15.6602 2.63337 15.6602 5.26004V10.7334C15.6668 13.3667 14.8602 14.1667 12.2068 14.1667ZM4.7935 2.83337C2.70016 2.83337 2.3335 3.19337 2.3335 5.26004V10.7334C2.3335 12.8 2.70016 13.16 4.7935 13.16H12.2002C14.2935 13.16 14.6602 12.8 14.6602 10.7334V5.26004C14.6602 3.19337 14.2935 2.83337 12.2002 2.83337H4.7935Z" fill="#858D9D"/>
</svg>
