<svg width="43" height="42" viewBox="0 0 43 42" fill="none" xmlns="http://www.w3.org/2000/svg">
<path d="M26.5833 22.6626H14.3333C13.6158 22.6626 13.0208 22.0676 13.0208 21.3501C13.0208 20.6326 13.6158 20.0376 14.3333 20.0376H26.5833C27.3008 20.0376 27.8958 20.6326 27.8958 21.3501C27.8958 22.0676 27.3008 22.6626 26.5833 22.6626Z" fill="#483380"/>
<path d="M21.9983 29.6626H14.3333C13.6158 29.6626 13.0208 29.0676 13.0208 28.3501C13.0208 27.6326 13.6158 27.0376 14.3333 27.0376H21.9983C22.7158 27.0376 23.3108 27.6326 23.3108 28.3501C23.3108 29.0676 22.7158 29.6626 21.9983 29.6626Z" fill="#483380"/>
<path d="M24.8333 11.8125H17.8333C16.1533 11.8125 13.0208 11.8125 13.0208 7C13.0208 2.1875 16.1533 2.1875 17.8333 2.1875H24.8333C26.5133 2.1875 29.6458 2.1875 29.6458 7C29.6458 8.68 29.6458 11.8125 24.8333 11.8125ZM17.8333 4.8125C16.1008 4.8125 15.6458 4.8125 15.6458 7C15.6458 9.1875 16.1008 9.1875 17.8333 9.1875H24.8333C27.0208 9.1875 27.0208 8.7325 27.0208 7C27.0208 4.8125 26.5658 4.8125 24.8333 4.8125H17.8333Z" fill="#483380"/>
<path d="M26.5833 39.8125H16.0833C6.24825 39.8125 4.27075 35.2975 4.27075 28V17.5C4.27075 9.52 7.15825 6.1075 14.2633 5.74C14.9633 5.705 15.6108 6.2475 15.6458 6.9825C15.6808 7.7175 15.1208 8.3125 14.4033 8.3475C9.43325 8.6275 6.89575 10.115 6.89575 17.5V28C6.89575 34.475 8.17325 37.1875 16.0833 37.1875H26.5833C34.4933 37.1875 35.7708 34.475 35.7708 28V17.5C35.7708 10.115 33.2333 8.6275 28.2633 8.3475C27.5458 8.3125 26.9858 7.6825 27.0208 6.965C27.0558 6.2475 27.6858 5.6875 28.4033 5.7225C35.5083 6.1075 38.3958 9.52 38.3958 17.4825V27.9825C38.3958 35.2975 36.4183 39.8125 26.5833 39.8125Z" fill="#483380"/>
</svg>
