<svg width="19" height="18" viewBox="0 0 19 18" fill="none" xmlns="http://www.w3.org/2000/svg">
<path d="M8.825 17.0625H5.675C2.7425 17.0625 1.4375 15.7575 1.4375 12.825V9.675C1.4375 6.7425 2.7425 5.4375 5.675 5.4375H8.825C11.7575 5.4375 13.0625 6.7425 13.0625 9.675V12.825C13.0625 15.7575 11.7575 17.0625 8.825 17.0625ZM5.675 6.5625C3.35 6.5625 2.5625 7.35 2.5625 9.675V12.825C2.5625 15.15 3.35 15.9375 5.675 15.9375H8.825C11.15 15.9375 11.9375 15.15 11.9375 12.825V9.675C11.9375 7.35 11.15 6.5625 8.825 6.5625H5.675Z" fill="#858D9D"/>
<path d="M13.325 12.5625H12.5C12.1925 12.5625 11.9375 12.3075 11.9375 12V9.675C11.9375 7.35 11.15 6.5625 8.825 6.5625H6.5C6.1925 6.5625 5.9375 6.3075 5.9375 6V5.175C5.9375 2.2425 7.2425 0.9375 10.175 0.9375H13.325C16.2575 0.9375 17.5625 2.2425 17.5625 5.175V8.325C17.5625 11.2575 16.2575 12.5625 13.325 12.5625ZM13.0625 11.4375H13.325C15.65 11.4375 16.4375 10.65 16.4375 8.325V5.175C16.4375 2.85 15.65 2.0625 13.325 2.0625H10.175C7.85 2.0625 7.0625 2.85 7.0625 5.175V5.4375H8.825C11.7575 5.4375 13.0625 6.7425 13.0625 9.675V11.4375Z" fill="#858D9D"/>
</svg>
