<svg width="43" height="42" viewBox="0 0 43 42" fill="none" xmlns="http://www.w3.org/2000/svg">
<path d="M21.6665 38.0624C19.094 38.0624 16.749 36.6449 15.559 34.3699L4.88398 14.0874C3.44898 11.3749 3.92148 8.22491 6.05648 6.03741C8.19148 3.84991 11.3415 3.32491 14.0715 4.68991L19.7415 7.52491C20.9315 8.11991 22.3665 8.11991 23.574 7.52491L29.244 4.68991C31.9915 3.32491 35.1415 3.84991 37.2765 6.03741C39.4115 8.22491 39.884 11.3749 38.449 14.0874L27.774 34.3699C26.584 36.6449 24.239 38.0624 21.6665 38.0624ZM10.9565 6.56241C9.71398 6.56241 8.62898 7.15741 7.92898 7.87491C6.87898 8.95991 6.12648 10.8324 7.19398 12.8624L17.869 33.1449C18.6215 34.5799 20.039 35.4374 21.649 35.4374C23.259 35.4374 24.6765 34.5799 25.429 33.1449L36.104 12.8624C37.1715 10.8324 36.4365 8.94241 35.369 7.87491C34.319 6.80741 32.464 6.01991 30.399 7.03491L24.729 9.86991C22.7865 10.8324 20.494 10.8324 18.5515 9.86991L12.899 7.03491C12.234 6.70241 11.569 6.56241 10.9565 6.56241Z" fill="#483380"/>
</svg>
