<svg width="21" height="20" viewBox="0 0 21 20" fill="none" xmlns="http://www.w3.org/2000/svg">
<path d="M9.66602 1.66675H7.99935C3.83268 1.66675 2.16602 3.33341 2.16602 7.50008V12.5001C2.16602 16.6667 3.83268 18.3334 7.99935 18.3334H12.9993C17.166 18.3334 18.8327 16.6667 18.8327 12.5001V10.8334" stroke="#858D9D" stroke-width="1.5" stroke-linecap="round" stroke-linejoin="round"/>
<path d="M13.8675 2.51663L7.30088 9.0833C7.05088 9.3333 6.80088 9.82497 6.75088 10.1833L6.39254 12.6916C6.25921 13.6 6.90088 14.2333 7.80921 14.1083L10.3175 13.75C10.6675 13.7 11.1592 13.45 11.4175 13.2L17.9842 6.6333C19.1175 5.49997 19.6509 4.1833 17.9842 2.51663C16.3175 0.849966 15.0009 1.3833 13.8675 2.51663Z" stroke="#858D9D" stroke-width="1.5" stroke-miterlimit="10" stroke-linecap="round" stroke-linejoin="round"/>
<path d="M12.9258 3.45825C13.4841 5.44992 15.0424 7.00825 17.0424 7.57492" stroke="#858D9D" stroke-width="1.5" stroke-miterlimit="10" stroke-linecap="round" stroke-linejoin="round"/>
</svg>
