<svg width="80" height="80" viewBox="0 0 80 80" fill="none" xmlns="http://www.w3.org/2000/svg">
<path d="M40 60C41.1333 60 42.084 59.616 42.852 58.848C43.62 58.08 44.0026 57.1306 44 56C43.9973 54.8693 43.6133 53.92 42.848 53.152C42.0826 52.384 41.1333 52 40 52C38.8666 52 37.9173 52.384 37.152 53.152C36.3866 53.92 36.0026 54.8693 36 56C35.9973 57.1306 36.3813 58.0813 37.152 58.852C37.9226 59.6226 38.872 60.0053 40 60ZM40 44C41.1333 44 42.084 43.616 42.852 42.848C43.62 42.08 44.0026 41.1307 44 40V24C44 22.8667 43.616 21.9173 42.848 21.152C42.08 20.3867 41.1306 20.0027 40 20C38.8693 19.9973 37.92 20.3813 37.152 21.152C36.384 21.9227 36 22.872 36 24V40C36 41.1333 36.384 42.084 37.152 42.852C37.92 43.62 38.8693 44.0027 40 44ZM40 80C34.4666 80 29.2667 78.9493 24.4 76.848C19.5333 74.7466 15.3 71.8973 11.7 68.3C8.1 64.7027 5.25067 60.4693 3.152 55.6C1.05334 50.7307 0.00267173 45.5307 5.06329e-06 40C-0.0026616 34.4693 1.048 29.2693 3.152 24.4C5.256 19.5307 8.10533 15.2973 11.7 11.7C15.2947 8.10266 19.528 5.25333 24.4 3.152C29.272 1.05067 34.472 0 40 0C45.528 0 50.728 1.05067 55.6 3.152C60.472 5.25333 64.7053 8.10266 68.3 11.7C71.8946 15.2973 74.7453 19.5307 76.852 24.4C78.9586 29.2693 80.008 34.4693 80 40C79.992 45.5307 78.9413 50.7307 76.848 55.6C74.7546 60.4693 71.9053 64.7027 68.3 68.3C64.6946 71.8973 60.4613 74.748 55.6 76.852C50.7386 78.956 45.5386 80.0053 40 80Z" fill="#DC1D47"/>
</svg>
