<svg width="21" height="20" viewBox="0 0 21 20" fill="none" xmlns="http://www.w3.org/2000/svg">
<path d="M17.9776 0.833374H15.5276C14.8026 0.833374 14.2693 1.13337 14.0276 1.66671C13.8943 1.90837 13.8359 2.19171 13.8359 2.52504V4.97504C13.8359 6.03337 14.4693 6.66671 15.5276 6.66671H17.9776C18.3109 6.66671 18.5943 6.60837 18.8359 6.47504C19.3693 6.23337 19.6693 5.70004 19.6693 4.97504V2.52504C19.6693 1.46671 19.0359 0.833374 17.9776 0.833374ZM18.7609 4.10837C18.6776 4.19171 18.5526 4.25004 18.4193 4.25837H17.2443V4.68337L17.2526 5.41671C17.2443 5.55837 17.1943 5.67504 17.0943 5.77504C17.0109 5.85837 16.8859 5.91671 16.7526 5.91671C16.4776 5.91671 16.2526 5.69171 16.2526 5.41671V4.25004L15.0859 4.25837C14.8109 4.25837 14.5859 4.02504 14.5859 3.75004C14.5859 3.47504 14.8109 3.25004 15.0859 3.25004L15.8193 3.25837H16.2526V2.09171C16.2526 1.81671 16.4776 1.58337 16.7526 1.58337C17.0276 1.58337 17.2526 1.81671 17.2526 2.09171L17.2443 2.68337V3.25004H18.4193C18.6943 3.25004 18.9193 3.47504 18.9193 3.75004C18.9109 3.89171 18.8526 4.00837 18.7609 4.10837Z" fill="#90BD40"/>
<path d="M7.99896 8.65014C9.09432 8.65014 9.98229 7.76217 9.98229 6.66681C9.98229 5.57144 9.09432 4.68347 7.99896 4.68347C6.90359 4.68347 6.01562 5.57144 6.01562 6.66681C6.01562 7.76217 6.90359 8.65014 7.99896 8.65014Z" fill="#90BD40"/>
<path d="M17.9724 6.66663H17.5807V10.5083L17.4724 10.4166C16.8224 9.85829 15.7724 9.85829 15.1224 10.4166L11.6557 13.3916C11.0057 13.95 9.95573 13.95 9.30573 13.3916L9.0224 13.1583C8.43073 12.6416 7.48906 12.5916 6.8224 13.0416L3.70573 15.1333C3.5224 14.6666 3.41406 14.125 3.41406 13.4916V6.50829C3.41406 4.15829 4.65573 2.91663 7.00573 2.91663H13.8307V2.52496C13.8307 2.19163 13.8891 1.90829 14.0224 1.66663H7.00573C3.9724 1.66663 2.16406 3.47496 2.16406 6.50829V13.4916C2.16406 14.4 2.3224 15.1916 2.63073 15.8583C3.3474 17.4416 4.88073 18.3333 7.00573 18.3333H13.9891C17.0224 18.3333 18.8307 16.525 18.8307 13.4916V6.47496C18.5891 6.60829 18.3057 6.66663 17.9724 6.66663Z" fill="#90BD40"/>
</svg>
