<svg width="22" height="22" viewBox="0 0 22 22" fill="none" xmlns="http://www.w3.org/2000/svg">
<path d="M11.0007 20.8542C5.56482 20.8542 1.14648 16.4359 1.14648 11C1.14648 5.56421 5.56482 1.14587 11.0007 1.14587C16.4365 1.14587 20.8548 5.56421 20.8548 11C20.8548 16.4359 16.4365 20.8542 11.0007 20.8542ZM11.0007 2.52087C6.32565 2.52087 2.52148 6.32504 2.52148 11C2.52148 15.675 6.32565 19.4792 11.0007 19.4792C15.6757 19.4792 19.4798 15.675 19.4798 11C19.4798 6.32504 15.6757 2.52087 11.0007 2.52087Z" fill="#989FAD"/>
<path d="M8.2507 19.9375H7.33404C6.9582 19.9375 6.64654 19.6258 6.64654 19.25C6.64654 18.8742 6.93987 18.5717 7.3157 18.5625C5.87654 13.6492 5.87654 8.35083 7.3157 3.4375C6.93987 3.42833 6.64654 3.12583 6.64654 2.75C6.64654 2.37417 6.9582 2.0625 7.33404 2.0625H8.2507C8.4707 2.0625 8.68154 2.1725 8.80987 2.34667C8.9382 2.53 8.97487 2.75917 8.90154 2.97C7.1782 8.14917 7.1782 13.8508 8.90154 19.0392C8.97487 19.25 8.9382 19.4792 8.80987 19.6625C8.68154 19.8275 8.4707 19.9375 8.2507 19.9375Z" fill="#989FAD"/>
<path d="M13.7502 19.9375C13.6769 19.9375 13.6035 19.9283 13.5302 19.9008C13.1727 19.7816 12.971 19.3875 13.0994 19.03C14.8227 13.8508 14.8227 8.14913 13.0994 2.96079C12.9802 2.60329 13.1727 2.20913 13.5302 2.08996C13.8969 1.97079 14.2819 2.16329 14.401 2.52079C16.2252 7.98413 16.2252 13.9975 14.401 19.4516C14.3094 19.7541 14.0344 19.9375 13.7502 19.9375Z" fill="#989FAD"/>
<path d="M11 15.7666C8.4425 15.7666 5.89417 15.4091 3.4375 14.685C3.42833 15.0516 3.12583 15.3541 2.75 15.3541C2.37417 15.3541 2.0625 15.0425 2.0625 14.6666V13.75C2.0625 13.53 2.1725 13.3191 2.34667 13.1908C2.53 13.0625 2.75917 13.0258 2.97 13.0991C8.14917 14.8225 13.86 14.8225 19.0392 13.0991C19.25 13.0258 19.4792 13.0625 19.6625 13.1908C19.8458 13.3191 19.9467 13.53 19.9467 13.75V14.6666C19.9467 15.0425 19.635 15.3541 19.2592 15.3541C18.8833 15.3541 18.5808 15.0608 18.5717 14.685C16.1058 15.4091 13.5575 15.7666 11 15.7666Z" fill="#989FAD"/>
<path d="M19.2495 8.93754C19.1761 8.93754 19.1028 8.92837 19.0295 8.90087C13.8503 7.17754 8.13948 7.17754 2.96031 8.90087C2.59364 9.02004 2.20864 8.82754 2.08948 8.47004C1.97948 8.10337 2.17198 7.71837 2.52948 7.5992C7.99281 5.77504 14.0061 5.77504 19.4603 7.5992C19.8178 7.71837 20.0195 8.11254 19.8911 8.47004C19.8086 8.7542 19.5336 8.93754 19.2495 8.93754Z" fill="#989FAD"/>
</svg>
