<svg width="23" height="18" viewBox="0 0 23 18" fill="none" xmlns="http://www.w3.org/2000/svg">
<g clip-path="url(#clip0_344_1991)">
<path d="M12.8535 8.98477L14.9825 11.4184L17.8457 13.2478L18.3437 9.00012L17.8457 4.84827L14.9277 6.45538L12.8535 8.98477Z" fill="#00832D"/>
<path d="M0.5 12.8525V16.4722C0.5 17.2986 1.17086 17.9697 1.9975 17.9697H5.61712L6.36663 15.2348L5.61712 12.8525L3.1338 12.103L0.5 12.8525Z" fill="#0066DA"/>
<path d="M5.61712 0L0.5 5.11712L3.13397 5.86484L5.61712 5.11712L6.35299 2.76731L5.61712 0Z" fill="#E94235"/>
<path d="M0.5 12.8542H5.61703V5.11707H0.5V12.8542Z" fill="#2684FC"/>
<path d="M21.1146 2.16671L17.8457 4.84846V13.2479L21.1281 15.94C21.6195 16.325 22.3383 15.9742 22.3383 15.3495V2.74527C22.3383 2.11374 21.6023 1.76466 21.1145 2.1668" fill="#00AC47"/>
<path d="M12.8546 8.98486V12.8526H5.61719V17.9697H16.3493C17.1759 17.9697 17.8467 17.2986 17.8467 16.4722V13.2479L12.8546 8.98486Z" fill="#00AC47"/>
<path d="M16.3493 0H5.61719V5.11712H12.8546V8.98482L17.8468 4.84823V1.49758C17.8468 0.670948 17.1759 8.53081e-05 16.3493 8.53081e-05" fill="#FFBA00"/>
</g>
<defs>
<clipPath id="clip0_344_1991">
<rect width="21.8389" height="18" fill="white" transform="translate(0.5)"/>
</clipPath>
</defs>
</svg>
