<svg width="21" height="20" viewBox="0 0 21 20" fill="none" xmlns="http://www.w3.org/2000/svg">
<path d="M17.9166 0.25C18.4912 0.25 19.0423 0.478273 19.4487 0.884602C19.855 1.29093 20.0833 1.84203 20.0833 2.41667V17.5833C20.0833 18.158 19.855 18.7091 19.4487 19.1154C19.0423 19.5217 18.4912 19.75 17.9166 19.75H2.74992C2.17528 19.75 1.62418 19.5217 1.21785 19.1154C0.811525 18.7091 0.583252 18.158 0.583252 17.5833V2.41667C0.583252 1.84203 0.811525 1.29093 1.21785 0.884602C1.62418 0.478273 2.17528 0.25 2.74992 0.25H17.9166ZM17.3749 17.0417V11.3C17.3749 10.3633 17.0028 9.46505 16.3405 8.80273C15.6782 8.14042 14.7799 7.76833 13.8433 7.76833C12.9224 7.76833 11.8499 8.33167 11.3299 9.17667V7.97417H8.30742V17.0417H11.3299V11.7008C11.3299 10.8667 12.0016 10.1842 12.8358 10.1842C13.238 10.1842 13.6238 10.344 13.9082 10.6284C14.1926 10.9128 14.3524 11.2986 14.3524 11.7008V17.0417H17.3749ZM4.78659 6.27333C5.26928 6.27333 5.7322 6.08158 6.07352 5.74027C6.41484 5.39895 6.60659 4.93603 6.60659 4.45333C6.60659 3.44583 5.79409 2.6225 4.78659 2.6225C4.30102 2.6225 3.83534 2.81539 3.49199 3.15874C3.14864 3.50209 2.95575 3.96777 2.95575 4.45333C2.95575 5.46083 3.77909 6.27333 4.78659 6.27333ZM6.29242 17.0417V7.97417H3.29159V17.0417H6.29242Z" fill="#D0D3D9"/>
</svg>
