<svg width="21" height="21" viewBox="0 0 21 21" fill="none" xmlns="http://www.w3.org/2000/svg">
<path d="M10.3051 12.3084C8.53008 12.3084 7.08008 10.8667 7.08008 9.08337C7.08008 7.30003 8.53008 5.8667 10.3051 5.8667C12.0801 5.8667 13.5301 7.30837 13.5301 9.0917C13.5301 10.875 12.0801 12.3084 10.3051 12.3084ZM10.3051 7.1167C9.22174 7.1167 8.33008 8.00003 8.33008 9.0917C8.33008 10.1834 9.21341 11.0667 10.3051 11.0667C11.3967 11.0667 12.2801 10.1834 12.2801 9.0917C12.2801 8.00003 11.3884 7.1167 10.3051 7.1167Z" fill="#858D9D"/>
<path d="M10.3041 19.4666C9.07077 19.4666 7.8291 19 6.86243 18.075C4.4041 15.7083 1.68744 11.9333 2.71244 7.44163C3.63744 3.36663 7.19577 1.54163 10.3041 1.54163C10.3041 1.54163 10.3041 1.54163 10.3124 1.54163C13.4208 1.54163 16.9791 3.36663 17.9041 7.44996C18.9208 11.9416 16.2041 15.7083 13.7458 18.075C12.7791 19 11.5374 19.4666 10.3041 19.4666ZM10.3041 2.79163C7.8791 2.79163 4.76244 4.08329 3.93744 7.71663C3.03744 11.6416 5.5041 15.025 7.73743 17.1666C9.1791 18.5583 11.4374 18.5583 12.8791 17.1666C15.1041 15.025 17.5708 11.6416 16.6874 7.71663C15.8541 4.08329 12.7291 2.79163 10.3041 2.79163Z" fill="#858D9D"/>
</svg>
