<svg width="23" height="23" viewBox="0 0 23 23" fill="none" xmlns="http://www.w3.org/2000/svg">
<path d="M15.9165 19.9788H6.74984C3.404 19.9788 1.479 18.0538 1.479 14.708V8.29134C1.479 4.94551 3.404 3.02051 6.74984 3.02051H15.9165C19.2623 3.02051 21.1873 4.94551 21.1873 8.29134V14.708C21.1873 18.0538 19.2623 19.9788 15.9165 19.9788ZM6.74984 4.39551C4.12817 4.39551 2.854 5.66967 2.854 8.29134V14.708C2.854 17.3297 4.12817 18.6038 6.74984 18.6038H15.9165C18.5382 18.6038 19.8123 17.3297 19.8123 14.708V8.29134C19.8123 5.66967 18.5382 4.39551 15.9165 4.39551H6.74984Z" fill="#B9BDC7"/>
<path d="M11.3331 12.297C10.5631 12.297 9.78397 12.0587 9.18813 11.5728L6.31896 9.28115C6.02563 9.04282 5.97063 8.61198 6.20897 8.31865C6.4473 8.02532 6.87814 7.97032 7.17147 8.20865L10.0406 10.5003C10.7373 11.0595 11.9198 11.0595 12.6165 10.5003L15.4856 8.20865C15.779 7.97032 16.219 8.01615 16.4481 8.31865C16.6865 8.61198 16.6406 9.05199 16.3381 9.28115L13.469 11.5728C12.8823 12.0587 12.1031 12.297 11.3331 12.297Z" fill="#B9BDC7"/>
</svg>
