<svg width="21" height="20" viewBox="0 0 21 20" fill="none" xmlns="http://www.w3.org/2000/svg">
<path d="M7.16602 4.7915C6.82435 4.7915 6.54102 4.50817 6.54102 4.1665V1.6665C6.54102 1.32484 6.82435 1.0415 7.16602 1.0415C7.50768 1.0415 7.79102 1.32484 7.79102 1.6665V4.1665C7.79102 4.50817 7.50768 4.7915 7.16602 4.7915Z" fill="#667085"/>
<path d="M13.834 4.7915C13.4923 4.7915 13.209 4.50817 13.209 4.1665V1.6665C13.209 1.32484 13.4923 1.0415 13.834 1.0415C14.1757 1.0415 14.459 1.32484 14.459 1.6665V4.1665C14.459 4.50817 14.1757 4.7915 13.834 4.7915Z" fill="#667085"/>
<path d="M13.8333 18.9582H7.16667C4.125 18.9582 2.375 17.2082 2.375 14.1665V7.08317C2.375 4.0415 4.125 2.2915 7.16667 2.2915H13.8333C16.875 2.2915 18.625 4.0415 18.625 7.08317V14.1665C18.625 17.2082 16.875 18.9582 13.8333 18.9582ZM7.16667 3.5415C4.78333 3.5415 3.625 4.69984 3.625 7.08317V14.1665C3.625 16.5498 4.78333 17.7082 7.16667 17.7082H13.8333C16.2167 17.7082 17.375 16.5498 17.375 14.1665V7.08317C17.375 4.69984 16.2167 3.5415 13.8333 3.5415H7.16667Z" fill="#667085"/>
<path d="M13.8327 9.7915H7.16602C6.82435 9.7915 6.54102 9.50817 6.54102 9.1665C6.54102 8.82484 6.82435 8.5415 7.16602 8.5415H13.8327C14.1743 8.5415 14.4577 8.82484 14.4577 9.1665C14.4577 9.50817 14.1743 9.7915 13.8327 9.7915Z" fill="#667085"/>
<path d="M10.4993 13.9585H7.16602C6.82435 13.9585 6.54102 13.6752 6.54102 13.3335C6.54102 12.9918 6.82435 12.7085 7.16602 12.7085H10.4993C10.841 12.7085 11.1243 12.9918 11.1243 13.3335C11.1243 13.6752 10.841 13.9585 10.4993 13.9585Z" fill="#667085"/>
</svg>
