<svg width="26" height="27" viewBox="0 0 26 27" fill="none" xmlns="http://www.w3.org/2000/svg">
<path d="M13.0222 22.4408C10.498 22.4408 7.97384 22.0399 5.57968 21.2383C4.66968 20.9241 3.97634 20.2849 3.67301 19.4508C3.35884 18.6166 3.46718 17.6958 3.96551 16.8724L5.21134 14.8033C5.47134 14.3699 5.70968 13.5033 5.70968 12.9941V9.86328C5.70968 5.83328 8.99218 2.55078 13.0222 2.55078C17.0522 2.55078 20.3347 5.83328 20.3347 9.86328V12.9941C20.3347 13.4924 20.573 14.3699 20.833 14.8141L22.068 16.8724C22.5338 17.6524 22.6205 18.5949 22.3063 19.4508C21.9922 20.3066 21.3097 20.9566 20.4538 21.2383C18.0705 22.0399 15.5463 22.4408 13.0222 22.4408ZM13.0222 4.17578C9.89134 4.17578 7.33468 6.72161 7.33468 9.86328V12.9941C7.33468 13.7849 7.00968 14.9549 6.60884 15.6374L5.36301 17.7066C5.12468 18.1074 5.05968 18.5299 5.20051 18.8874C5.33051 19.2558 5.65551 19.5374 6.09968 19.6891C10.628 21.2058 15.4272 21.2058 19.9555 19.6891C20.3455 19.5591 20.6488 19.2666 20.7897 18.8766C20.9305 18.4866 20.898 18.0641 20.6813 17.7066L19.4355 15.6374C19.0238 14.9333 18.7097 13.7741 18.7097 12.9833V9.86328C18.7097 6.72161 16.1638 4.17578 13.0222 4.17578Z" fill="#667085"/>
<path d="M15.037 4.46827C14.9612 4.46827 14.8853 4.45744 14.8095 4.43577C14.4953 4.3491 14.192 4.28411 13.8995 4.24077C12.9787 4.12161 12.0903 4.1866 11.2562 4.43577C10.9528 4.53327 10.6278 4.43577 10.422 4.20827C10.2162 3.98077 10.1512 3.65577 10.2703 3.36327C10.7145 2.22577 11.7978 1.47827 13.0328 1.47827C14.2678 1.47827 15.3512 2.21494 15.7953 3.36327C15.9037 3.65577 15.8495 3.98077 15.6437 4.20827C15.4812 4.3816 15.2537 4.46827 15.037 4.46827Z" fill="#667085"/>
<path d="M13.0234 24.9108C11.9509 24.9108 10.9109 24.4774 10.1526 23.7191C9.39427 22.9608 8.96094 21.9208 8.96094 20.8483H10.5859C10.5859 21.4874 10.8459 22.1158 11.3009 22.5708C11.7559 23.0258 12.3843 23.2858 13.0234 23.2858C14.3668 23.2858 15.4609 22.1916 15.4609 20.8483H17.0859C17.0859 23.0908 15.2659 24.9108 13.0234 24.9108Z" fill="#667085"/>
</svg>
