<svg width="23" height="22" viewBox="0 0 23 22" fill="none" xmlns="http://www.w3.org/2000/svg">
<path d="M16.329 20.8538C15.2932 20.8538 14.2023 20.6063 13.0748 20.1297C11.9748 19.6622 10.8657 19.0205 9.784 18.2413C8.7115 17.453 7.67567 16.573 6.69484 15.6105C5.72317 14.6297 4.84317 13.5938 4.064 12.5305C3.27567 11.4305 2.64317 10.3305 2.194 9.26717C1.71734 8.13051 1.479 7.03051 1.479 5.99467C1.479 5.27967 1.60734 4.60134 1.85484 3.96884C2.1115 3.31801 2.524 2.71301 3.08317 2.19051C3.789 1.49384 4.59567 1.14551 5.45734 1.14551C5.81484 1.14551 6.1815 1.22801 6.49317 1.37467C6.85067 1.53967 7.15317 1.78717 7.37317 2.11717L9.49984 5.11467C9.69234 5.38051 9.839 5.63717 9.93984 5.89384C10.059 6.16884 10.1232 6.44384 10.1232 6.70967C10.1232 7.05801 10.0223 7.39717 9.82984 7.71801C9.69234 7.96551 9.4815 8.23134 9.21567 8.49717L8.59234 9.14801C8.6015 9.17551 8.61067 9.19384 8.61984 9.21217C8.72984 9.40467 8.94984 9.73467 9.3715 10.2297C9.82067 10.743 10.2423 11.2105 10.664 11.6413C11.2048 12.173 11.654 12.5947 12.0757 12.943C12.5982 13.383 12.9373 13.603 13.139 13.7038L13.1207 13.7497L13.7898 13.0897C14.074 12.8055 14.349 12.5947 14.6148 12.4572C15.119 12.1455 15.7607 12.0905 16.4023 12.3563C16.6407 12.4572 16.8973 12.5947 17.1723 12.7872L20.2157 14.9505C20.5548 15.1797 20.8023 15.473 20.949 15.8213C21.0865 16.1697 21.1507 16.4905 21.1507 16.8113C21.1507 17.2513 21.0498 17.6913 20.8573 18.1038C20.6648 18.5163 20.4265 18.8738 20.124 19.2038C19.6015 19.7813 19.0332 20.1938 18.3732 20.4597C17.7407 20.7163 17.0532 20.8538 16.329 20.8538ZM5.45734 2.52051C4.95317 2.52051 4.48567 2.74051 4.0365 3.18051C3.61484 3.57467 3.3215 4.00551 3.13817 4.47301C2.94567 4.94967 2.854 5.45384 2.854 5.99467C2.854 6.84717 3.05567 7.77301 3.459 8.72634C3.8715 9.69801 4.449 10.7063 5.18234 11.7147C5.91567 12.723 6.74984 13.7038 7.6665 14.6297C8.58317 15.5372 9.57317 16.3805 10.5907 17.123C11.5807 17.8472 12.5982 18.4338 13.6065 18.8555C15.174 19.5247 16.6407 19.6805 17.8507 19.1763C18.3182 18.9838 18.7307 18.6905 19.1065 18.2688C19.3173 18.0397 19.4823 17.7922 19.6198 17.4988C19.7298 17.2697 19.7848 17.0313 19.7848 16.793C19.7848 16.6463 19.7573 16.4997 19.684 16.3347C19.6565 16.2797 19.6015 16.1788 19.4273 16.0597L16.384 13.8963C16.2007 13.768 16.0357 13.6763 15.8798 13.6122C15.6782 13.5297 15.5957 13.4472 15.284 13.6397C15.1007 13.7313 14.9357 13.8688 14.7523 14.0522L14.0557 14.7397C13.6982 15.088 13.1482 15.1705 12.7265 15.0147L12.479 14.9047C12.1032 14.703 11.6632 14.3913 11.1773 13.9788C10.7373 13.603 10.2607 13.163 9.68317 12.5947C9.234 12.1363 8.78484 11.6505 8.31734 11.1097C7.8865 10.6055 7.57484 10.1747 7.38234 9.81717L7.27234 9.54217C7.21734 9.33134 7.199 9.21217 7.199 9.08384C7.199 8.75384 7.31817 8.46051 7.54734 8.23134L8.23484 7.51634C8.41817 7.33301 8.55567 7.15884 8.64734 7.00301C8.72067 6.88384 8.74817 6.78301 8.74817 6.69134C8.74817 6.61801 8.72067 6.50801 8.67484 6.39801C8.61067 6.25134 8.50984 6.08634 8.3815 5.91217L6.25484 2.90551C6.16317 2.77717 6.05317 2.68551 5.91567 2.62134C5.769 2.55717 5.61317 2.52051 5.45734 2.52051ZM13.1207 13.7588L12.974 14.3822L13.2215 13.7405C13.1757 13.7313 13.139 13.7405 13.1207 13.7588Z" fill="#B9BDC7"/>
</svg>
