<svg width="42" height="42" viewBox="0 0 42 42" fill="none" xmlns="http://www.w3.org/2000/svg">
<path d="M21.8226 7.82257C22.0687 7.57678 22.4023 7.43872 22.7501 7.43872C23.0979 7.43872 23.4315 7.57678 23.6776 7.82257L26.3026 10.4476C26.5344 10.6964 26.6606 11.0255 26.6546 11.3655C26.6486 11.7055 26.5109 12.0299 26.2704 12.2704C26.0299 12.5109 25.7055 12.6486 25.3655 12.6546C25.0255 12.6606 24.6964 12.5344 24.4476 12.3026L21.8226 9.67757C21.5768 9.43147 21.4387 9.09788 21.4387 8.75007C21.4387 8.40225 21.5768 8.06866 21.8226 7.82257Z" fill="#483380"/>
<path fill-rule="evenodd" clip-rule="evenodd" d="M12.3585 5.35847C13.3639 4.353 14.5575 3.55541 15.8712 3.01125C17.1849 2.46709 18.5928 2.18701 20.0147 2.18701C21.4367 2.18701 22.8446 2.46709 24.1583 3.01125C25.472 3.55541 26.6656 4.353 27.671 5.35847L36.6415 14.329C38.3982 16.084 39.4982 18.3895 39.7573 20.8591C40.0163 23.3287 39.4186 25.8123 38.0643 27.8936C36.7101 29.9749 34.6816 31.5275 32.3187 32.2912C29.9559 33.0548 27.4025 32.9831 25.0862 32.088C24.125 34.6879 22.2802 36.8672 19.8746 38.2445C17.469 39.6219 14.6557 40.1096 11.9269 39.6224C9.19803 39.1353 6.72732 37.7042 4.94691 35.5796C3.16651 33.4549 2.18976 30.772 2.1875 28C2.18675 25.5839 2.92689 23.2257 4.30811 21.2433C5.68933 19.261 7.64521 17.7499 9.912 16.9137C9.15782 14.9575 8.98753 12.8244 9.4218 10.7733C9.85606 8.72221 10.8762 6.84119 12.3585 5.35847ZM25.816 7.21347C24.2774 5.67488 22.1906 4.81051 20.0147 4.81051C17.8389 4.81051 15.7521 5.67488 14.2135 7.21347C12.6749 8.75206 11.8105 10.8388 11.8105 13.0147C11.8105 15.1906 12.6749 17.2774 14.2135 18.816L18.158 22.757C18.536 22.631 19.068 22.4297 19.7155 22.12C21.1242 21.4392 23.0772 20.237 25.158 18.158C27.2387 16.079 28.4392 14.1242 29.1182 12.7155C29.3622 12.2096 29.5755 11.6895 29.757 11.158L25.816 7.21347ZM31.787 13.188C31.6972 13.398 31.5962 13.6196 31.4842 13.853C30.688 15.505 29.3195 17.7065 27.013 20.013C24.7065 22.3195 22.5032 23.688 20.853 24.4842C20.6197 24.5962 20.398 24.6977 20.188 24.7887L23.1857 27.7847C23.9442 28.5604 24.849 29.178 25.8478 29.6016C26.8466 30.0252 27.9195 30.2464 29.0043 30.2525C30.0892 30.2586 31.1645 30.0495 32.168 29.6371C33.1715 29.2248 34.0832 28.6174 34.8503 27.8503C35.6175 27.0832 36.2248 26.1715 36.6371 25.168C37.0495 24.1645 37.2587 23.0892 37.2526 22.0043C37.2465 20.9194 37.0252 19.8465 36.6016 18.8478C36.178 17.849 35.5605 16.9442 34.7847 16.1857L31.787 13.188ZM11.1667 19.257C9.67157 19.7426 8.32601 20.6037 7.25879 21.7581C6.19157 22.9124 5.4384 24.3212 5.07132 25.8498C4.70424 27.3784 4.73553 28.9757 5.16221 30.4887C5.58889 32.0018 6.39668 33.38 7.5083 34.4917C8.61992 35.6033 9.99818 36.4111 11.5112 36.8378C13.0243 37.2644 14.6215 37.2957 16.1501 36.9286C17.6787 36.5616 19.0876 35.8084 20.2419 34.7412C21.3962 33.674 22.2574 32.3284 22.743 30.8332C22.2375 30.4783 21.7644 30.0795 21.329 29.6415L12.3585 20.671C11.9204 20.2356 11.5216 19.7624 11.1667 19.257Z" fill="#483380"/>
</svg>
