<svg width="21" height="21" viewBox="0 0 21 21" fill="none" xmlns="http://www.w3.org/2000/svg">
<path d="M10.4749 2.24902C5.87493 2.24902 2.1416 5.98236 2.1416 10.5824C2.1416 15.1824 5.87493 18.9157 10.4749 18.9157C15.0749 18.9157 18.8083 15.1824 18.8083 10.5824C18.8083 5.98236 15.0833 2.24902 10.4749 2.24902ZM12.9749 12.4407L10.5583 13.8324C10.2583 14.0074 9.92493 14.0907 9.59993 14.0907C9.2666 14.0907 8.9416 14.0074 8.6416 13.8324C8.0416 13.4824 7.68327 12.8657 7.68327 12.1657V9.37402C7.68327 8.68236 8.0416 8.05736 8.6416 7.70736C9.2416 7.35736 9.95827 7.35736 10.5666 7.70736L12.9833 9.09902C13.5833 9.44902 13.9416 10.0657 13.9416 10.7657C13.9416 11.4657 13.5833 12.0907 12.9749 12.4407Z" fill="white"/>
</svg>
