<svg width="43" height="42" viewBox="0 0 43 42" fill="none" xmlns="http://www.w3.org/2000/svg">
<path d="M21.6125 20.335C21.56 20.335 21.525 20.335 21.4725 20.335C21.385 20.3175 21.2625 20.3175 21.1575 20.335C16.0825 20.1775 12.25 16.1875 12.25 11.27C12.25 6.265 16.3275 2.1875 21.3325 2.1875C26.3375 2.1875 30.415 6.265 30.415 11.27C30.3975 16.1875 26.5475 20.1775 21.665 20.335C21.6475 20.335 21.63 20.335 21.6125 20.335ZM21.3325 4.8125C17.78 4.8125 14.875 7.7175 14.875 11.27C14.875 14.77 17.605 17.5875 21.0875 17.71C21.175 17.6925 21.42 17.6925 21.6475 17.71C25.0775 17.5525 27.7725 14.735 27.79 11.27C27.79 7.7175 24.885 4.8125 21.3325 4.8125Z" fill="#483380"/>
<path d="M21.6301 39.4625C18.2001 39.4625 14.7526 38.5875 12.1451 36.8375C9.71257 35.2275 8.38257 33.0225 8.38257 30.625C8.38257 28.2275 9.71257 26.005 12.1451 24.3775C17.3951 20.895 25.9001 20.895 31.1151 24.3775C33.5301 25.9875 34.8776 28.1925 34.8776 30.59C34.8776 32.9875 33.5476 35.21 31.1151 36.8375C28.4901 38.5875 25.0601 39.4625 21.6301 39.4625ZM13.5976 26.5825C11.9176 27.7025 11.0076 29.1375 11.0076 30.6425C11.0076 32.13 11.9351 33.565 13.5976 34.6675C17.9551 37.59 25.3051 37.59 29.6626 34.6675C31.3426 33.5475 32.2526 32.1125 32.2526 30.6075C32.2526 29.12 31.3251 27.685 29.6626 26.5825C25.3051 23.6775 17.9551 23.6775 13.5976 26.5825Z" fill="#483380"/>
</svg>
