<svg width="20" height="20" viewBox="0 0 20 20" fill="none" xmlns="http://www.w3.org/2000/svg">
<path d="M9.58268 18.1248C4.87435 18.1248 1.04102 14.2915 1.04102 9.58317C1.04102 4.87484 4.87435 1.0415 9.58268 1.0415C14.291 1.0415 18.1243 4.87484 18.1243 9.58317C18.1243 14.2915 14.291 18.1248 9.58268 18.1248ZM9.58268 2.2915C5.55768 2.2915 2.29102 5.5665 2.29102 9.58317C2.29102 13.5998 5.55768 16.8748 9.58268 16.8748C13.6077 16.8748 16.8743 13.5998 16.8743 9.58317C16.8743 5.5665 13.6077 2.2915 9.58268 2.2915Z" fill="#667085"/>
<path d="M18.3326 18.9585C18.1742 18.9585 18.0159 18.9002 17.8909 18.7752L16.2242 17.1085C15.9826 16.8669 15.9826 16.4669 16.2242 16.2252C16.4659 15.9835 16.8659 15.9835 17.1076 16.2252L18.7742 17.8919C19.0159 18.1335 19.0159 18.5335 18.7742 18.7752C18.6492 18.9002 18.4909 18.9585 18.3326 18.9585Z" fill="#667085"/>
</svg>
