<svg width="42" height="42" viewBox="0 0 42 42" fill="none" xmlns="http://www.w3.org/2000/svg">
<path d="M24.885 37.8526C22.82 37.8526 19.8975 36.4001 17.5875 29.4526L16.3275 25.6726L12.5475 24.4126C5.61754 22.1026 4.16504 19.1801 4.16504 17.1151C4.16504 15.0676 5.61754 12.1276 12.5475 9.80006L27.405 4.84756C31.115 3.60506 34.2125 3.97256 36.12 5.86256C38.0275 7.75256 38.395 10.8676 37.1525 14.5776L32.2 29.4351C29.8725 36.4001 26.95 37.8526 24.885 37.8526ZM13.37 12.3026C8.50504 13.9301 6.77254 15.8551 6.77254 17.1151C6.77254 18.3751 8.50504 20.3001 13.37 21.9101L17.78 23.3801C18.165 23.5026 18.48 23.8176 18.6025 24.2026L20.0725 28.6126C21.6825 33.4776 23.625 35.2101 24.885 35.2101C26.145 35.2101 28.07 33.4776 29.6975 28.6126L34.65 13.7551C35.5425 11.0601 35.385 8.85506 34.2475 7.71756C33.11 6.58006 30.905 6.44006 28.2275 7.33256L13.37 12.3026Z" fill="#483380"/>
<path d="M17.6924 25.2C17.3599 25.2 17.0274 25.0775 16.7649 24.815C16.2574 24.3075 16.2574 23.4675 16.7649 22.96L23.0299 16.6775C23.5374 16.17 24.3774 16.17 24.8849 16.6775C25.3924 17.185 25.3924 18.025 24.8849 18.5325L18.6199 24.815C18.3749 25.0775 18.0249 25.2 17.6924 25.2Z" fill="#483380"/>
</svg>
