<svg width="17" height="16" viewBox="0 0 17 16" fill="none" xmlns="http://www.w3.org/2000/svg">
<path d="M15.168 4.3335H11.168" stroke="#5D6679" stroke-width="1.5" stroke-miterlimit="10" stroke-linecap="round" stroke-linejoin="round"/>
<path d="M4.4987 4.3335H1.83203" stroke="#5D6679" stroke-width="1.5" stroke-miterlimit="10" stroke-linecap="round" stroke-linejoin="round"/>
<path d="M7.16536 6.66667C8.45403 6.66667 9.4987 5.622 9.4987 4.33333C9.4987 3.04467 8.45403 2 7.16536 2C5.8767 2 4.83203 3.04467 4.83203 4.33333C4.83203 5.622 5.8767 6.66667 7.16536 6.66667Z" stroke="#5D6679" stroke-width="1.5" stroke-miterlimit="10" stroke-linecap="round" stroke-linejoin="round"/>
<path d="M15.1667 11.6665H12.5" stroke="#5D6679" stroke-width="1.5" stroke-miterlimit="10" stroke-linecap="round" stroke-linejoin="round"/>
<path d="M5.83203 11.6665H1.83203" stroke="#5D6679" stroke-width="1.5" stroke-miterlimit="10" stroke-linecap="round" stroke-linejoin="round"/>
<path d="M9.83333 14.0002C11.122 14.0002 12.1667 12.9555 12.1667 11.6668C12.1667 10.3782 11.122 9.3335 9.83333 9.3335C8.54467 9.3335 7.5 10.3782 7.5 11.6668C7.5 12.9555 8.54467 14.0002 9.83333 14.0002Z" stroke="#5D6679" stroke-width="1.5" stroke-miterlimit="10" stroke-linecap="round" stroke-linejoin="round"/>
</svg>
