<svg width="83" height="29" viewBox="0 0 83 29" fill="none" xmlns="http://www.w3.org/2000/svg">
<path d="M65.736 3.30626L72.6001 2.07677V28.4271H65.736V3.30626ZM75.7575 3.30626V28.4271H82.6251V2.07677L75.7575 3.30626ZM55.9583 28.4271H62.826V9.15543H55.9583V28.4271ZM10.5799 11.88C9.71052 11.8218 7.7026 11.6944 7.7026 9.88294C7.7026 7.70041 10.5944 7.70041 11.6821 7.70041C13.5918 7.70041 16.0617 8.26423 17.8259 8.79168C17.8259 8.79168 18.8117 9.13724 19.6483 9.49372L19.7247 9.51555V3.53906L19.6192 3.50632C17.5385 2.77881 15.1159 2.07677 10.6272 2.07677C2.88285 2.07677 0.140137 6.58732 0.140137 10.4504C0.140137 12.6766 1.09317 17.9183 9.95787 18.5221C10.7108 18.5694 12.7042 18.6822 12.7042 20.5519C12.7042 22.0942 11.071 23.0072 8.32462 23.0072C5.31636 23.0072 2.39542 22.2397 0.620293 21.5122V27.6705C3.2757 28.3653 6.26576 28.7145 9.776 28.7145C17.3457 28.7145 20.7359 24.4477 20.7359 20.2208C20.7359 15.4266 16.942 12.3128 10.5799 11.8836V11.88ZM52.0916 8.8717C45.7441 9.07541 42.5248 11.9236 42.5248 17.5836V28.4271H49.4507V19.5843C49.4507 16.1941 49.8945 14.7427 53.9176 14.6045V8.97355C53.241 8.82805 52.0952 8.87534 52.0952 8.87534L52.0916 8.8717ZM33.4637 9.13361C33.3109 9.51919 32.2124 12.622 29.5533 15.8412V2.07677L22.4674 3.47722V28.4271H29.5533V20.7156C31.6049 23.7929 32.6198 28.4271 32.6198 28.4271H41.1062C40.2659 24.9387 36.5956 18.5003 36.5956 18.5003C39.8912 14.3207 41.339 9.86839 41.5681 9.12997H33.4637V9.13361ZM59.3958 7.30756C61.2655 7.30756 62.7823 5.79434 62.7823 3.92464C62.7823 2.05494 61.2655 0.538086 59.3958 0.538086C57.5261 0.538086 56.0129 2.05494 56.0129 3.92464C56.0129 5.79434 57.5297 7.30756 59.3958 7.30756Z" fill="white"/>
</svg>
