<svg width="21" height="20" viewBox="0 0 21 20" fill="none" xmlns="http://www.w3.org/2000/svg">
<path d="M18 4.98332C15.225 4.70832 12.4333 4.56665 9.65 4.56665C8 4.56665 6.35 4.64998 4.7 4.81665L3 4.98332" stroke="#858D9D" stroke-width="1.5" stroke-linecap="round" stroke-linejoin="round"/>
<path d="M7.58398 4.14175L7.76732 3.05008C7.90065 2.25841 8.00065 1.66675 9.40898 1.66675H11.5923C13.0007 1.66675 13.109 2.29175 13.234 3.05841L13.4173 4.14175" stroke="#858D9D" stroke-width="1.5" stroke-linecap="round" stroke-linejoin="round"/>
<path d="M16.2077 7.6167L15.666 16.0084C15.5743 17.3167 15.4993 18.3334 13.1743 18.3334H7.82435C5.49935 18.3334 5.42435 17.3167 5.33268 16.0084L4.79102 7.6167" stroke="#858D9D" stroke-width="1.5" stroke-linecap="round" stroke-linejoin="round"/>
<path d="M9.10742 13.75H11.8824" stroke="#858D9D" stroke-width="1.5" stroke-linecap="round" stroke-linejoin="round"/>
<path d="M8.41602 10.4167H12.5827" stroke="#858D9D" stroke-width="1.5" stroke-linecap="round" stroke-linejoin="round"/>
</svg>
