<svg width="19" height="19" viewBox="0 0 19 19" fill="none" xmlns="http://www.w3.org/2000/svg">
<path d="M9.5 10.8125C9.1925 10.8125 8.9375 10.5575 8.9375 10.25V6.3125C8.9375 6.005 9.1925 5.75 9.5 5.75C9.8075 5.75 10.0625 6.005 10.0625 6.3125V10.25C10.0625 10.5575 9.8075 10.8125 9.5 10.8125Z" fill="#90BD40"/>
<path d="M9.5 13.4374C9.2975 13.4374 9.10998 13.3624 8.96748 13.2199C8.89998 13.1449 8.84751 13.0624 8.80251 12.9724C8.76501 12.8824 8.75 12.7849 8.75 12.6874C8.75 12.4924 8.83248 12.2974 8.96748 12.1549C9.24498 11.8774 9.75502 11.8774 10.0325 12.1549C10.1675 12.2974 10.25 12.4924 10.25 12.6874C10.25 12.7849 10.2275 12.8824 10.19 12.9724C10.1525 13.0624 10.1 13.1449 10.0325 13.2199C9.89002 13.3624 9.7025 13.4374 9.5 13.4374Z" fill="#90BD40"/>
<path d="M9.50111 17.5623C8.99861 17.5623 8.4886 17.4348 8.0386 17.1723L3.5836 14.5998C2.6836 14.0748 2.12109 13.1073 2.12109 12.0648V6.93484C2.12109 5.89234 2.6836 4.92484 3.5836 4.39984L8.0386 1.82734C8.9386 1.30234 10.0561 1.30234 10.9636 1.82734L15.4186 4.39984C16.3186 4.92484 16.8811 5.89234 16.8811 6.93484V12.0648C16.8811 13.1073 16.3186 14.0748 15.4186 14.5998L10.9636 17.1723C10.5136 17.4348 10.0036 17.5623 9.50111 17.5623ZM9.50111 2.56233C9.19361 2.56233 8.8786 2.64483 8.6011 2.80233L4.1461 5.37483C3.5911 5.69733 3.24609 6.28984 3.24609 6.93484V12.0648C3.24609 12.7023 3.5911 13.3023 4.1461 13.6248L8.6011 16.1973C9.1561 16.5198 9.84612 16.5198 10.3936 16.1973L14.8486 13.6248C15.4036 13.3023 15.7486 12.7098 15.7486 12.0648V6.93484C15.7486 6.29734 15.4036 5.69733 14.8486 5.37483L10.3936 2.80233C10.1236 2.64483 9.80861 2.56233 9.50111 2.56233Z" fill="#90BD40"/>
</svg>
