<svg width="124" height="28" viewBox="0 0 124 28" fill="none" xmlns="http://www.w3.org/2000/svg">
<path fill-rule="evenodd" clip-rule="evenodd" d="M123.75 27.2709H122.655V0.672852H123.75V27.2709Z" fill="white"/>
<path fill-rule="evenodd" clip-rule="evenodd" d="M110.506 27.1899H109.412V0.591797H110.506V27.1899Z" fill="white"/>
<path fill-rule="evenodd" clip-rule="evenodd" d="M8.35948 12.4904L9.46182 4.81479L10.5796 12.4904H15.9525L18.5657 0.643555H14.3568L13.2005 8.13399L12.0519 0.643555H6.92568L5.76938 7.93395L4.63621 0.643555H0.25L2.89406 12.4904H8.35948Z" fill="white"/>
<path fill-rule="evenodd" clip-rule="evenodd" d="M20.6702 12.4904H31.3775V9.40833H25.9814V8.00804H31.0691V4.96296H25.9814V3.68863H31.2002V0.643555H20.6702V12.4904Z" fill="white"/>
<path fill-rule="evenodd" clip-rule="evenodd" d="M33.6746 8.68214C33.6592 8.83032 33.6592 8.97849 33.6592 9.11186C33.6592 11.3716 35.7868 12.6904 39.803 12.6904C43.8192 12.6904 45.9159 11.3345 45.9159 8.83032C45.9159 6.67431 44.6517 6.02974 41.5066 5.01471C39.8261 4.46645 38.8471 4.49609 38.8471 3.6737C38.8471 3.22916 39.14 2.90317 39.8492 2.90317C40.6817 2.90317 41.0826 3.4292 41.044 4.20714H45.5921V3.71074C45.5921 1.62142 43.6264 0.354492 39.988 0.354492C35.9949 0.354492 33.875 1.84369 33.875 4.17009C33.875 5.83711 34.9465 6.80027 37.1589 7.4078C38.7777 7.85234 39.7027 8.22278 40.4042 8.51914C40.7742 8.67473 40.8976 9.03036 40.8436 9.36376C40.7742 9.82311 40.4813 10.1047 39.7567 10.1047C38.8625 10.1047 38.6081 9.58603 38.6081 8.77845V8.68214H33.6823H33.6746Z" fill="white"/>
<path fill-rule="evenodd" clip-rule="evenodd" d="M58.9666 0.643555H47.2495V3.80717H50.5103V12.4904H55.729V3.80717H58.9666V0.643555Z" fill="white"/>
<path fill-rule="evenodd" clip-rule="evenodd" d="M61.2097 12.4904H71.917V9.40833H66.521V8.00804H71.5624V4.96296H66.521V3.68863H71.7397V0.643555H61.2097V12.4904Z" fill="white"/>
<path fill-rule="evenodd" clip-rule="evenodd" d="M75.1779 12.4899H80.3041V8.27418C80.4737 8.25937 80.6433 8.25937 80.7743 8.25937C82.0077 8.25937 82.185 8.68909 82.3854 9.97824L82.5165 10.8525C82.5936 11.3785 82.74 11.9268 82.9173 12.4973H88.1207C87.8971 11.623 87.7198 10.9192 87.6504 10.3857L87.4808 9.1188C87.2496 7.40734 86.5712 6.76276 85.1914 6.49604C86.5944 6.16264 87.6504 5.14761 87.6504 3.7251C87.6504 1.35424 86.0933 0.650391 82.3469 0.650391H75.1702V12.4973L75.1779 12.4899ZM80.3041 5.36247V3.29538C80.5354 3.28056 80.7204 3.28056 80.89 3.28056C82.0463 3.28056 82.555 3.54728 82.555 4.28818C82.555 5.02907 81.9075 5.37729 80.6818 5.37729C80.5662 5.37729 80.4352 5.37729 80.3041 5.36247Z" fill="white"/>
<path fill-rule="evenodd" clip-rule="evenodd" d="M94.7269 5.73349L97.4789 12.4904H103.438V0.643555H99.4138V6.67443L97.1397 0.643555H90.6953V12.4904H94.7269V5.73349Z" fill="white"/>
<path fill-rule="evenodd" clip-rule="evenodd" d="M53.9406 19.8618L56.6925 26.6188H62.6513V14.7793H58.6197V20.8102L56.3456 14.7793H49.9089V26.6188H53.9406V19.8618Z" fill="white"/>
<path fill-rule="evenodd" clip-rule="evenodd" d="M94.8503 19.8618L97.6023 26.6188H103.561V14.7793H99.5372V20.8102L97.2631 14.7793H90.8264V26.6188H94.8503V19.8618Z" fill="white"/>
<path fill-rule="evenodd" clip-rule="evenodd" d="M33.9599 14.7793V21.9141C33.9599 23.2773 34.0524 24.3516 35.147 25.3741C36.2802 26.4261 37.9221 26.8262 40.2655 26.8262C44.5746 26.8262 46.5943 25.2778 46.5943 21.9141V14.7793H41.4758V22.0993C41.4758 23.0699 41.021 23.5959 40.2655 23.5959C39.4715 23.5959 39.0553 23.0995 39.0553 22.0993V14.7793H33.9521H33.9599Z" fill="white"/>
<path fill-rule="evenodd" clip-rule="evenodd" d="M71.2542 14.7793H66.0046V26.6188H71.2542V14.7793Z" fill="white"/>
<path fill-rule="evenodd" clip-rule="evenodd" d="M80.867 26.8039C85.5384 26.8039 88.036 24.6331 88.036 20.6101C88.036 16.587 85.5153 14.4014 81.0366 14.4014C76.5578 14.4014 73.9832 16.6537 73.9832 20.6249C73.9832 24.5961 76.5039 26.7965 80.867 26.7965V26.8039ZM81.0211 17.1575C82.2314 17.1575 82.5166 18.1873 82.5166 20.4248C82.5166 22.9291 82.2083 24.07 80.998 24.07C79.7878 24.07 79.5025 22.9513 79.5025 20.6693C79.5025 18.2762 79.7723 17.1575 81.0211 17.1575Z" fill="white"/>
</svg>
