<svg width="23" height="19" viewBox="0 0 23 19" fill="none" xmlns="http://www.w3.org/2000/svg">
<path d="M22.6648 2.49967C21.8306 2.87884 20.9315 3.12801 19.9998 3.24717C20.9531 2.67301 21.6898 1.76301 22.0365 0.668841C21.1373 1.21051 20.1406 1.58967 19.0898 1.80634C18.234 0.874674 17.0315 0.333008 15.6665 0.333008C13.1206 0.333008 11.0406 2.41301 11.0406 4.98051C11.0406 5.34884 11.084 5.70634 11.1598 6.04217C7.30313 5.84717 3.86897 3.99467 1.58313 1.18884C1.1823 1.87134 0.954798 2.67301 0.954798 3.51801C0.954798 5.13217 1.7673 6.56217 3.02397 7.37467C2.2548 7.37467 1.5398 7.15801 0.911465 6.83301V6.86551C0.911465 9.11884 2.5148 11.0038 4.63813 11.4263C3.95654 11.6137 3.24067 11.6396 2.5473 11.5022C2.84154 12.4257 3.4178 13.2338 4.19507 13.8128C4.97234 14.3919 5.91153 14.7128 6.88063 14.7305C5.23794 16.0311 3.20164 16.734 1.10646 16.7238C0.738132 16.7238 0.369798 16.7022 0.00146484 16.6588C2.0598 17.9805 4.50813 18.7497 7.1298 18.7497C15.6665 18.7497 20.3573 11.6647 20.3573 5.52217C20.3573 5.31634 20.3573 5.12134 20.3465 4.91551C21.2565 4.26551 22.0365 3.44217 22.6648 2.49967Z" fill="#D0D3D9"/>
</svg>
