<svg width="25" height="24" viewBox="0 0 25 24" fill="none" xmlns="http://www.w3.org/2000/svg">
<path d="M22.139 10.0415H21.3335V10H12.3335V14H17.985C17.1605 16.3285 14.945 18 12.3335 18C9.02 18 6.3335 15.3135 6.3335 12C6.3335 8.6865 9.02 6 12.3335 6C13.863 6 15.2545 6.577 16.314 7.5195L19.1425 4.691C17.3565 3.0265 14.9675 2 12.3335 2C6.811 2 2.3335 6.4775 2.3335 12C2.3335 17.5225 6.811 22 12.3335 22C17.856 22 22.3335 17.5225 22.3335 12C22.3335 11.3295 22.2645 10.675 22.139 10.0415Z" fill="#FFC107"/>
<path d="M3.48633 7.3455L6.77183 9.755C7.66083 7.554 9.81383 6 12.3333 6C13.8628 6 15.2543 6.577 16.3138 7.5195L19.1423 4.691C17.3563 3.0265 14.9673 2 12.3333 2C8.49233 2 5.16133 4.1685 3.48633 7.3455Z" fill="#FF3D00"/>
<path d="M12.3337 22C14.9167 22 17.2637 21.0115 19.0382 19.404L15.9432 16.785C14.9056 17.5745 13.6374 18.0014 12.3337 18C9.73265 18 7.52415 16.3415 6.69215 14.027L3.43115 16.5395C5.08615 19.778 8.44715 22 12.3337 22Z" fill="#4CAF50"/>
<path d="M22.139 10.0415H21.3335V10H12.3335V14H17.985C17.5906 15.1082 16.8802 16.0766 15.9415 16.7855L15.943 16.7845L19.038 19.4035C18.819 19.6025 22.3335 17 22.3335 12C22.3335 11.3295 22.2645 10.675 22.139 10.0415Z" fill="#1976D2"/>
</svg>
