<svg width="29" height="24" viewBox="0 0 29 24" fill="none" xmlns="http://www.w3.org/2000/svg">
<path d="M3.52042 13.2209C3.7566 10.5963 4.78672 9.22589 6.43659 9.07938C8.06972 8.93466 9.50184 9.91197 9.93232 11.4664C10.4298 13.2638 9.68274 14.7753 7.66604 15.8867C8.81509 16.5567 9.89882 17.1891 11.0328 17.852C11.1115 17.3607 11.1484 16.9783 11.2371 16.6085C11.5185 15.4364 12.1266 14.5877 13.2873 14.2769C13.825 14.1321 14.3627 13.966 14.8786 13.7462C16.8467 12.91 17.9974 11.3449 18.4179 9.14727C18.4564 8.94538 18.4899 8.73991 18.5301 8.53801C18.5334 8.51657 18.572 8.50407 18.6708 8.42724C20.4965 9.71365 21.7226 11.4646 22.2184 13.7855C21.3474 12.4598 20.6238 10.9983 19.3056 10.2229C18.6591 11.2198 18.0259 12.1775 17.4196 13.153C17.3358 13.287 17.3341 13.5372 17.3844 13.6998C18.8818 18.5184 18.453 20.4266 15.1198 24C15.9992 23.8481 16.8903 23.757 17.7546 23.5355C23.798 21.9918 28.3406 15.892 28.2652 9.42421C28.2602 9.03829 28.1379 8.60055 27.9386 8.27894C26.3507 5.72041 24.2284 3.79257 21.6372 2.47579C21.2989 2.30248 20.7763 2.30784 20.4178 2.45256C19.1297 2.97249 17.8366 3.35126 16.4196 3.24585C17.8266 2.61872 19.2018 2.0041 20.5769 1.39127C18.9153 0.463977 17.232 0.0637593 15.4833 0.0101587C8.92899 -0.193524 3.86882 2.66696 0.247469 8.47548C-0.0573807 8.96503 -0.124382 9.34738 0.299393 9.79048C1.34124 10.8786 2.36467 11.9881 3.52042 13.2227V13.2209ZM9.23049 4.1249C8.68947 5.14688 8.29417 5.91337 7.87542 6.66557C7.80507 6.79063 7.63924 6.93536 7.51864 6.93536C6.93742 6.93178 6.35619 6.88175 5.49524 6.83173C6.80509 5.88121 7.92902 5.06827 9.22882 4.1249H9.23049Z" fill="#7256FF"/>
</svg>
