<svg width="21" height="24" viewBox="0 0 21 24" fill="none" xmlns="http://www.w3.org/2000/svg">
<g clip-path="url(#clip0_387_6727)">
<path d="M17.4241 1.86966C16.3167 0.607519 14.315 0.0664063 11.7543 0.0664063H4.32221C4.06883 0.0663672 3.82376 0.156741 3.63107 0.321271C3.43838 0.485802 3.31072 0.71369 3.27106 0.963943L0.176487 20.5905C0.114978 20.9775 0.41466 21.3279 0.806925 21.3279H5.39522L6.54753 14.019L6.51177 14.2479C6.59387 13.7312 7.03572 13.3502 7.55895 13.3502H9.7393C14.0226 13.3502 17.3765 11.6104 18.3562 6.57764C18.3853 6.42879 18.4104 6.28392 18.4322 6.14238C18.3086 6.0769 18.3086 6.0769 18.4322 6.14238C18.724 4.28222 18.4302 3.01602 17.4241 1.86966Z" fill="#27346A"/>
<path d="M8.30319 5.47229C8.42859 5.41246 8.56581 5.38151 8.70475 5.38169H14.5314C15.2213 5.38169 15.8649 5.42659 16.4529 5.52124C16.6175 5.5475 16.7812 5.57882 16.9438 5.61517C17.1743 5.66604 17.4021 5.72829 17.6265 5.80169C17.9156 5.89825 18.1848 6.0107 18.4323 6.14238C18.724 4.28151 18.4302 3.01602 17.4241 1.86966C16.3161 0.607519 14.315 0.0664062 11.7543 0.0664062H4.32157C3.79826 0.0664062 3.35307 0.447386 3.27106 0.963943L0.176488 20.5897C0.114978 20.9774 0.41466 21.3274 0.806289 21.3274H5.39522L7.78592 6.16686C7.80945 6.01785 7.86881 5.87678 7.95892 5.75579C8.04902 5.63481 8.16717 5.53751 8.30319 5.47229Z" fill="#27346A"/>
<path d="M18.3576 6.57588C17.3779 11.6079 14.0241 13.3484 9.74073 13.3484H7.55975C7.03652 13.3484 6.59459 13.7295 6.51329 14.2461L5.07972 23.3339C5.02616 23.6726 5.2881 23.9795 5.63077 23.9795H9.49859C9.72015 23.9795 9.93442 23.9004 10.1029 23.7564C10.2713 23.6125 10.3829 23.4132 10.4175 23.1944L10.4552 22.9973L11.1841 18.3772L11.2311 18.1219C11.2657 17.903 11.3773 17.7037 11.5457 17.5598C11.7142 17.4159 11.9284 17.3368 12.1499 17.3367H12.7288C16.4756 17.3367 19.4094 15.8145 20.2667 11.4122C20.6246 9.57247 20.4394 8.03647 19.4928 6.95758C19.2056 6.6308 18.8491 6.36092 18.4337 6.14062C18.4112 6.28288 18.3868 6.42704 18.3576 6.57588Z" fill="#2790C3"/>
<path d="M17.4086 5.73088C17.2559 5.68628 17.1017 5.64679 16.9463 5.61247C16.7836 5.5767 16.6199 5.54559 16.4554 5.51917C15.8667 5.42389 15.2236 5.37891 14.533 5.37891H8.70714C8.56811 5.37867 8.43083 5.40989 8.30558 5.47022C8.16938 5.53521 8.05108 5.63244 7.96093 5.75347C7.87078 5.8745 7.8115 6.01568 7.78823 6.16479L6.54992 14.0163L6.51416 14.2452C6.59562 13.7285 7.03747 13.3475 7.56078 13.3475H9.74176C14.025 13.3475 17.3788 11.6077 18.3586 6.57493C18.3877 6.42609 18.4122 6.28185 18.4347 6.13968C18.1866 6.00882 17.918 5.89546 17.6289 5.79962C17.5559 5.77543 17.4825 5.75251 17.4087 5.73088" fill="#1F264F"/>
</g>
<defs>
<clipPath id="clip0_387_6727">
<rect width="20.3444" height="24" fill="white" transform="translate(0.166504)"/>
</clipPath>
</defs>
</svg>
