<svg width="22" height="22" viewBox="0 0 22 22" fill="none" xmlns="http://www.w3.org/2000/svg">
<path d="M17.4173 12.2467H1.83398C1.45815 12.2467 1.14648 11.935 1.14648 11.5592C1.14648 11.1834 1.45815 10.8717 1.83398 10.8717H17.4173C17.7931 10.8717 18.1048 11.1834 18.1048 11.5592C18.1048 11.935 17.7931 12.2467 17.4173 12.2467Z" fill="#858D9D"/>
<path d="M13.9523 19.9375H5.29901C2.15484 19.9375 1.14648 18.9383 1.14648 15.8308V9.42332C1.14648 6.95748 1.70567 5.49998 4.54734 5.33498C4.78567 5.32582 5.03318 5.31665 5.29901 5.31665H13.9523C17.0965 5.31665 18.1048 6.31582 18.1048 9.42332V15.9775C18.0681 18.975 17.0598 19.9375 13.9523 19.9375ZM5.29901 6.69165C5.05151 6.69165 4.82234 6.70082 4.61151 6.70998C2.97068 6.81082 2.52148 7.15915 2.52148 9.42332V15.8308C2.52148 18.1775 2.90651 18.5625 5.29901 18.5625H13.9523C16.3173 18.5625 16.7023 18.1958 16.7298 15.9683V9.42332C16.7298 7.07665 16.3448 6.69165 13.9523 6.69165H5.29901Z" fill="#858D9D"/>
<path d="M17.4173 16.665C17.2432 16.665 17.069 16.6008 16.9498 16.4817C16.8123 16.3533 16.7298 16.17 16.7298 15.9775V9.42333C16.7298 7.07667 16.3448 6.69167 13.9523 6.69167H5.29901C5.05151 6.69167 4.82234 6.70083 4.61151 6.71C4.42818 6.71917 4.2448 6.64583 4.1073 6.5175C3.9698 6.38917 3.89648 6.20583 3.89648 6.01333C3.93315 3.025 4.94151 2.0625 8.04901 2.0625H16.7023C19.8465 2.0625 20.8548 3.06167 20.8548 6.16917V12.5767C20.8548 15.0425 20.2956 16.5 17.454 16.665C17.4448 16.665 17.4265 16.665 17.4173 16.665ZM5.29901 5.31667H13.9523C17.0965 5.31667 18.1048 6.31583 18.1048 9.42333V15.2167C19.1681 15.0242 19.4798 14.4742 19.4798 12.5767V6.16917C19.4798 3.8225 19.0948 3.4375 16.7023 3.4375H8.04901C5.95901 3.4375 5.41818 3.72167 5.29901 5.31667Z" fill="#858D9D"/>
<path d="M6.37943 17.0133H4.80273C4.4269 17.0133 4.11523 16.7016 4.11523 16.3258C4.11523 15.95 4.4269 15.6383 4.80273 15.6383H6.37943C6.75526 15.6383 7.06693 15.95 7.06693 16.3258C7.06693 16.7016 6.76443 17.0133 6.37943 17.0133Z" fill="#858D9D"/>
<path d="M11.5049 17.0133H8.35156C7.97573 17.0133 7.66406 16.7016 7.66406 16.3258C7.66406 15.95 7.97573 15.6383 8.35156 15.6383H11.5049C11.8807 15.6383 12.1924 15.95 12.1924 16.3258C12.1924 16.7016 11.8899 17.0133 11.5049 17.0133Z" fill="#858D9D"/>
</svg>
