<svg width="22" height="22" viewBox="0 0 22 22" fill="none" xmlns="http://www.w3.org/2000/svg">
<path d="M13.9543 6.00415H5.30094C5.04427 6.00415 4.80594 6.01332 4.58594 6.02248C2.41344 6.15082 1.83594 6.94832 1.83594 9.42332V9.95498C1.83594 10.4591 2.24844 10.8716 2.7526 10.8716H16.5026C17.0068 10.8716 17.4193 10.4591 17.4193 9.95498V9.42332C17.4193 6.69165 16.7226 6.00415 13.9543 6.00415Z" fill="#90BD40"/>
<path d="M2.7526 12.2467C2.24844 12.2467 1.83594 12.6592 1.83594 13.1634V15.8309C1.83594 18.5625 2.5326 19.25 5.30094 19.25H13.9543C16.6768 19.25 17.3918 18.59 17.4193 15.9775V13.1634C17.4193 12.6592 17.0068 12.2467 16.5026 12.2467H2.7526ZM6.3826 17.0134H4.8151C4.43927 17.0134 4.1276 16.7017 4.1276 16.3259C4.1276 15.95 4.43927 15.6384 4.8151 15.6384H6.39177C6.7676 15.6384 7.07927 15.95 7.07927 16.3259C7.07927 16.7017 6.7676 17.0134 6.3826 17.0134ZM11.5068 17.0134H8.35344C7.9776 17.0134 7.66594 16.7017 7.66594 16.3259C7.66594 15.95 7.9776 15.6384 8.35344 15.6384H11.5068C11.8826 15.6384 12.1943 15.95 12.1943 16.3259C12.1943 16.7017 11.8918 17.0134 11.5068 17.0134Z" fill="#90BD40"/>
<path d="M20.1704 12.2192V7.41588C20.1704 4.54672 18.5296 3.30005 16.0546 3.30005H7.86872C7.17205 3.30005 6.54872 3.40088 5.99872 3.61172C5.56789 3.76755 5.18289 3.99672 4.87122 4.29922C4.70622 4.45505 4.83455 4.71172 5.07289 4.71172H15.0371C17.0996 4.71172 18.7679 6.38005 18.7679 8.44255V15.015C18.7679 15.2442 19.0154 15.3725 19.1804 15.2075C19.8129 14.5384 20.1704 13.5575 20.1704 12.2192Z" fill="#90BD40"/>
</svg>
