<svg width="22" height="22" viewBox="0 0 22 22" fill="none" xmlns="http://www.w3.org/2000/svg">
<path d="M10.9997 20.8543C5.56384 20.8543 1.14551 16.436 1.14551 11.0002C1.14551 5.56433 5.56384 1.146 10.9997 1.146C16.4355 1.146 20.8538 5.56433 20.8538 11.0002C20.8538 16.436 16.4355 20.8543 10.9997 20.8543ZM10.9997 2.521C6.32467 2.521 2.52051 6.32516 2.52051 11.0002C2.52051 15.6752 6.32467 19.4793 10.9997 19.4793C15.6747 19.4793 19.4788 15.6752 19.4788 11.0002C19.4788 6.32516 15.6747 2.521 10.9997 2.521Z" fill="#858D9D"/>
<path d="M14.4008 14.6026C14.2816 14.6026 14.1624 14.5751 14.0524 14.5018L11.2108 12.8059C10.5049 12.3843 9.98242 11.4584 9.98242 10.6426V6.88428C9.98242 6.50844 10.2941 6.19678 10.6699 6.19678C11.0458 6.19678 11.3574 6.50844 11.3574 6.88428V10.6426C11.3574 10.9726 11.6324 11.4584 11.9166 11.6234L14.7583 13.3193C15.0883 13.5118 15.1891 13.9334 14.9966 14.2634C14.8591 14.4834 14.6299 14.6026 14.4008 14.6026Z" fill="#858D9D"/>
</svg>
