<svg width="22" height="22" viewBox="0 0 22 22" fill="none" xmlns="http://www.w3.org/2000/svg">
<path d="M10.9987 1.8335C5.94786 1.8335 1.83203 5.94933 1.83203 11.0002C1.83203 16.051 5.94786 20.1668 10.9987 20.1668C16.0495 20.1668 20.1654 16.051 20.1654 11.0002C20.1654 5.94933 16.0495 1.8335 10.9987 1.8335ZM14.9862 14.2727C14.8579 14.4927 14.6287 14.6118 14.3904 14.6118C14.2712 14.6118 14.152 14.5843 14.042 14.511L11.2004 12.8152C10.4945 12.3935 9.97203 11.4677 9.97203 10.6518V6.8935C9.97203 6.51766 10.2837 6.206 10.6595 6.206C11.0354 6.206 11.347 6.51766 11.347 6.8935V10.6518C11.347 10.9818 11.622 11.4677 11.9062 11.6327L14.7479 13.3285C15.0779 13.521 15.1879 13.9427 14.9862 14.2727Z" fill="#90BD40"/>
</svg>
