<svg width="22" height="22" viewBox="0 0 22 22" fill="none" xmlns="http://www.w3.org/2000/svg">
<path fill-rule="evenodd" clip-rule="evenodd" d="M11 10.771C11.1823 10.771 11.3572 10.8434 11.4861 10.9724C11.6151 11.1013 11.6875 11.2762 11.6875 11.4585V12.146H12.375C12.5573 12.146 12.7322 12.2184 12.8611 12.3474C12.9901 12.4763 13.0625 12.6512 13.0625 12.8335C13.0625 13.0158 12.9901 13.1907 12.8611 13.3196C12.7322 13.4486 12.5573 13.521 12.375 13.521H11.6875V14.2085C11.6875 14.3908 11.6151 14.5657 11.4861 14.6946C11.3572 14.8236 11.1823 14.896 11 14.896C10.8177 14.896 10.6428 14.8236 10.5139 14.6946C10.3849 14.5657 10.3125 14.3908 10.3125 14.2085V13.521H9.625C9.44266 13.521 9.2678 13.4486 9.13886 13.3196C9.00993 13.1907 8.9375 13.0158 8.9375 12.8335C8.9375 12.6512 9.00993 12.4763 9.13886 12.3474C9.2678 12.2184 9.44266 12.146 9.625 12.146H10.3125V11.4585C10.3125 11.2762 10.3849 11.1013 10.5139 10.9724C10.6428 10.8434 10.8177 10.771 11 10.771Z" fill="#90BD40"/>
<path fill-rule="evenodd" clip-rule="evenodd" d="M10.9523 1.146C10.1282 1.146 9.44159 1.146 8.89709 1.21933C8.32142 1.29633 7.80167 1.46683 7.38458 1.88391C6.96658 2.30191 6.79608 2.82166 6.71909 3.39641C6.64575 3.94183 6.64575 4.62933 6.64575 5.4525V5.524C4.79317 5.5845 3.68034 5.80083 2.90759 6.5745C1.83325 7.64791 1.83325 9.37675 1.83325 12.8335C1.83325 16.2902 1.83325 18.0191 2.90759 19.0925C3.98192 20.1659 5.70984 20.1668 9.16658 20.1668H12.8333C16.29 20.1668 18.0188 20.1668 19.0923 19.0925C20.1657 18.0182 20.1666 16.2902 20.1666 12.8335C20.1666 9.37675 20.1666 7.64791 19.0923 6.5745C18.3195 5.80083 17.2067 5.5845 15.3541 5.524V5.4525C15.3541 4.62933 15.3541 3.94183 15.2808 3.39733C15.2038 2.82166 15.0333 2.30191 14.6153 1.88483C14.1982 1.46683 13.6784 1.29633 13.1028 1.21933C12.5583 1.146 11.8708 1.146 11.0476 1.146H10.9523ZM13.9791 5.502V5.50016C13.9791 4.6165 13.9773 4.0225 13.9186 3.57975C13.8608 3.15716 13.7628 2.97566 13.6436 2.8565C13.5244 2.73733 13.3429 2.63925 12.9194 2.5815C12.4776 2.52283 11.8836 2.521 10.9999 2.521C10.1163 2.521 9.52225 2.52283 9.0795 2.58241C8.65692 2.63925 8.47542 2.73733 8.35625 2.85741C8.23709 2.9775 8.139 3.15716 8.08125 3.57975C8.0235 4.0225 8.02075 4.6165 8.02075 5.50016V5.502C8.37947 5.50077 8.76142 5.50016 9.16658 5.50016H12.8333C13.2378 5.50016 13.6198 5.50077 13.9791 5.502ZM14.6666 12.8335C14.6666 13.806 14.2803 14.7386 13.5926 15.4262C12.905 16.1139 11.9724 16.5002 10.9999 16.5002C10.0275 16.5002 9.09483 16.1139 8.40719 15.4262C7.71956 14.7386 7.33325 13.806 7.33325 12.8335C7.33325 11.861 7.71956 10.9284 8.40719 10.2408C9.09483 9.55314 10.0275 9.16683 10.9999 9.16683C11.9724 9.16683 12.905 9.55314 13.5926 10.2408C14.2803 10.9284 14.6666 11.861 14.6666 12.8335Z" fill="#90BD40"/>
</svg>
