<svg width="22" height="22" viewBox="0 0 22 22" fill="none" xmlns="http://www.w3.org/2000/svg">
<path d="M14.6663 5.50016C14.6663 3.77133 14.6663 2.90783 14.1292 2.37066C13.592 1.8335 12.7285 1.8335 10.9997 1.8335C9.27084 1.8335 8.40734 1.8335 7.87017 2.37066C7.33301 2.90783 7.33301 3.77133 7.33301 5.50016M1.83301 12.8335C1.83301 9.37675 1.83301 7.64791 2.90734 6.5745C3.98167 5.50108 5.70959 5.50016 9.16634 5.50016H12.833C16.2898 5.50016 18.0186 5.50016 19.092 6.5745C20.1654 7.64883 20.1663 9.37675 20.1663 12.8335C20.1663 16.2902 20.1663 18.0191 19.092 19.0925C18.0177 20.1659 16.2898 20.1668 12.833 20.1668H9.16634C5.70959 20.1668 3.98076 20.1668 2.90734 19.0925C1.83392 18.0182 1.83301 16.2902 1.83301 12.8335Z" stroke="#858D9D" stroke-width="1.25"/>
<path d="M12.375 12.8335H9.625M11 11.4585V14.2085" stroke="#858D9D" stroke-width="1.25" stroke-linecap="round"/>
<path d="M10.9997 16.5003C13.0247 16.5003 14.6663 14.8587 14.6663 12.8337C14.6663 10.8086 13.0247 9.16699 10.9997 9.16699C8.97463 9.16699 7.33301 10.8086 7.33301 12.8337C7.33301 14.8587 8.97463 16.5003 10.9997 16.5003Z" stroke="#858D9D" stroke-width="1.25"/>
</svg>
