<svg width="22" height="22" viewBox="0 0 22 22" fill="none" xmlns="http://www.w3.org/2000/svg">
<path d="M8.76632 8.00246L9.23841 9.71021C9.68299 11.319 9.90482 12.1238 10.5584 12.4895C11.212 12.8562 12.0416 12.6399 13.7007 12.209L15.4607 11.7507C17.1199 11.3199 17.9495 11.1045 18.3272 10.471C18.7048 9.83671 18.483 9.03187 18.0375 7.42312L17.5663 5.71629C17.1217 4.10662 16.899 3.30179 16.2463 2.93604C15.5918 2.56937 14.7622 2.78571 13.1031 3.21746L11.3431 3.67396C9.6839 4.10479 8.85432 4.32112 8.47757 4.95546C8.0999 5.58887 8.32174 6.39371 8.76632 8.00246Z" fill="#90BD40"/>
<path d="M2.08742 4.80988C2.11157 4.72282 2.15265 4.64137 2.2083 4.57019C2.26395 4.49902 2.33308 4.43951 2.41174 4.39507C2.49041 4.35063 2.57706 4.32213 2.66674 4.3112C2.75643 4.30027 2.84739 4.30713 2.93442 4.33138L4.49551 4.76404C4.90911 4.87665 5.28654 5.09437 5.59109 5.39603C5.89565 5.69769 6.11696 6.07303 6.23351 6.48554L8.20526 13.6227L8.35009 14.1241C8.9347 14.3396 9.42734 14.7497 9.74526 15.2855L10.0294 15.1975L18.1603 13.0846C18.2477 13.0619 18.3387 13.0566 18.4281 13.069C18.5176 13.0814 18.6037 13.1113 18.6816 13.157C18.7595 13.2028 18.8276 13.2634 18.882 13.3354C18.9365 13.4074 18.9763 13.4895 18.999 13.5769C19.0218 13.6643 19.0271 13.7553 19.0146 13.8447C19.0022 13.9342 18.9723 14.0203 18.9266 14.0982C18.8809 14.1761 18.8203 14.2442 18.7482 14.2987C18.6762 14.3531 18.5942 14.3929 18.5068 14.4156L10.4062 16.5203L10.1037 16.6138C10.0982 17.778 9.29426 18.8431 8.07784 19.1585C6.62034 19.538 5.12159 18.6983 4.73109 17.2848C4.34059 15.8713 5.20592 14.4165 6.66342 14.038C6.73614 14.0196 6.80856 14.0037 6.88067 13.9903L4.90801 6.85129C4.85466 6.66801 4.75491 6.50159 4.61841 6.36814C4.48191 6.23469 4.31329 6.13873 4.12884 6.08954L2.56684 5.65596C2.4798 5.6319 2.39834 5.59093 2.32714 5.53538C2.25594 5.47984 2.19637 5.41081 2.15185 5.33224C2.10733 5.25367 2.07873 5.16709 2.06767 5.07747C2.05662 4.98784 2.06333 4.89691 2.08742 4.80988Z" fill="#90BD40"/>
</svg>
