<svg width="22" height="22" viewBox="0 0 22 22" fill="none" xmlns="http://www.w3.org/2000/svg">
<path d="M6.88016 13.993C6.90423 14.08 6.94521 14.1614 7.00076 14.2326C7.05631 14.3038 7.12534 14.3634 7.20391 14.4079C7.28247 14.4524 7.36904 14.481 7.45866 14.4921C7.54828 14.5031 7.63921 14.4964 7.72624 14.4724C7.81327 14.4483 7.89471 14.4073 7.96591 14.3518C8.0371 14.2962 8.09666 14.2272 8.14118 14.1486C8.1857 14.0701 8.2143 13.9835 8.22537 13.8939C8.23643 13.8042 8.22973 13.7133 8.20566 13.6263L6.88016 13.993ZM2.93299 4.33129C2.84561 4.30576 2.75404 4.29785 2.66358 4.308C2.57312 4.31815 2.48558 4.34616 2.40603 4.39041C2.32648 4.43466 2.25651 4.49426 2.20018 4.56577C2.14385 4.63727 2.10229 4.71925 2.07789 4.80695C2.05349 4.89464 2.04675 4.98631 2.05806 5.07663C2.06937 5.16695 2.09851 5.25413 2.14377 5.3331C2.18904 5.41208 2.24954 5.48127 2.32176 5.53668C2.39398 5.59209 2.47649 5.6326 2.56449 5.65587L2.93299 4.33129ZM18.5053 14.4146C18.5948 14.3939 18.6793 14.3555 18.7537 14.3016C18.8281 14.2477 18.891 14.1794 18.9386 14.1008C18.9862 14.0222 19.0175 13.9349 19.0308 13.844C19.044 13.753 19.0389 13.6604 19.0157 13.5715C18.9926 13.4826 18.9518 13.3992 18.8959 13.3263C18.84 13.2534 18.77 13.1925 18.6901 13.1471C18.6102 13.1017 18.522 13.0727 18.4308 13.062C18.3395 13.0513 18.2471 13.0589 18.1588 13.0845L18.5053 14.4146ZM9.34691 16.0958C9.63107 17.1225 9.00774 18.2069 7.90407 18.4938L8.24966 19.8239C10.0619 19.3536 11.1692 17.5304 10.6724 15.7291L9.34691 16.0958ZM7.90407 18.4938C6.79307 18.7825 5.67841 18.1372 5.39241 17.1014L4.06691 17.468C4.56191 19.2601 6.44474 20.2932 8.24966 19.8239L7.90407 18.4938ZM5.39241 17.1014C5.10824 16.0747 5.73157 14.9903 6.83524 14.7034L6.48966 13.3742C4.67741 13.8445 3.56916 15.6668 4.06691 17.468L5.39241 17.1014ZM6.83524 14.7034C7.94624 14.4146 9.06091 15.06 9.34691 16.0958L10.6724 15.7291C10.1774 13.937 8.29457 12.904 6.48966 13.3733L6.83524 14.7034ZM8.20566 13.6263L6.23299 6.48545L4.90749 6.85212L6.88016 13.993L8.20566 13.6263ZM4.49499 4.76395L2.93299 4.33129L2.56449 5.65587L4.12741 6.08945L4.49499 4.76395ZM6.23299 6.48545C6.11644 6.07294 5.89513 5.6976 5.59058 5.39594C5.28603 5.09428 4.9086 4.87656 4.49499 4.76395L4.12924 6.08945C4.51882 6.19762 4.80849 6.4937 4.90749 6.85212L6.23299 6.48545ZM10.1838 16.578L18.5053 14.4146L18.1597 13.0845L9.83732 15.2479L10.1838 16.578Z" fill="#858D9D"/>
<path d="M8.76827 8.00232C8.32369 6.39357 8.10186 5.58873 8.47952 4.95532C8.85627 4.32098 9.68586 4.10557 11.345 3.67382L13.105 3.21732C14.7642 2.78648 15.5938 2.57015 16.2474 2.9359C16.9009 3.30257 17.1237 4.10648 17.5674 5.71615L18.0394 7.42298C18.484 9.03173 18.7068 9.83657 18.3291 10.4709C17.9514 11.1043 17.1219 11.3206 15.4627 11.7515L13.7027 12.2089C12.0435 12.6397 11.2139 12.8552 10.5604 12.4894C9.90677 12.1227 9.68494 11.3188 9.24036 9.71007L8.76827 8.00232Z" stroke="#858D9D" stroke-width="1.5"/>
</svg>
