<svg width="22" height="22" viewBox="0 0 22 22" fill="none" xmlns="http://www.w3.org/2000/svg">
<path d="M10.0827 18.2417V3.75837C10.0827 2.38337 9.49602 1.83337 8.03852 1.83337H4.33518C2.87768 1.83337 2.29102 2.38337 2.29102 3.75837V18.2417C2.29102 19.6167 2.87768 20.1667 4.33518 20.1667H8.03852C9.49602 20.1667 10.0827 19.6167 10.0827 18.2417Z" fill="#90BD40"/>
<path d="M19.7077 9.99171V3.75837C19.7077 2.38337 19.121 1.83337 17.6635 1.83337H13.9602C12.5027 1.83337 11.916 2.38337 11.916 3.75837V9.99171C11.916 11.3667 12.5027 11.9167 13.9602 11.9167H17.6635C19.121 11.9167 19.7077 11.3667 19.7077 9.99171Z" fill="#90BD40"/>
<path d="M19.7077 18.2417V15.675C19.7077 14.3 19.121 13.75 17.6635 13.75H13.9602C12.5027 13.75 11.916 14.3 11.916 15.675V18.2417C11.916 19.6167 12.5027 20.1667 13.9602 20.1667H17.6635C19.121 20.1667 19.7077 19.6167 19.7077 18.2417Z" fill="#90BD40"/>
</svg>
