<svg width="22" height="22" viewBox="0 0 22 22" fill="none" xmlns="http://www.w3.org/2000/svg">
<path d="M7.57953 20.8542H3.8762C2.0337 20.8542 1.14453 20.0017 1.14453 18.2417V3.75837C1.14453 1.99837 2.04286 1.14587 3.8762 1.14587H7.57953C9.42203 1.14587 10.3112 1.99837 10.3112 3.75837V18.2417C10.3112 20.0017 9.41287 20.8542 7.57953 20.8542ZM3.8762 2.52087C2.71203 2.52087 2.51953 2.83254 2.51953 3.75837V18.2417C2.51953 19.1675 2.71203 19.4792 3.8762 19.4792H7.57953C8.7437 19.4792 8.9362 19.1675 8.9362 18.2417V3.75837C8.9362 2.83254 8.7437 2.52087 7.57953 2.52087H3.8762Z" fill="#858D9D"/>
<path d="M18.1225 12.6042H14.4192C12.5767 12.6042 11.6875 11.7517 11.6875 9.99171V3.75837C11.6875 1.99837 12.5858 1.14587 14.4192 1.14587H18.1225C19.965 1.14587 20.8542 1.99837 20.8542 3.75837V9.99171C20.8542 11.7517 19.9558 12.6042 18.1225 12.6042ZM14.4192 2.52087C13.255 2.52087 13.0625 2.83254 13.0625 3.75837V9.99171C13.0625 10.9175 13.255 11.2292 14.4192 11.2292H18.1225C19.2867 11.2292 19.4792 10.9175 19.4792 9.99171V3.75837C19.4792 2.83254 19.2867 2.52087 18.1225 2.52087H14.4192Z" fill="#858D9D"/>
<path d="M18.1225 20.8541H14.4192C12.5767 20.8541 11.6875 20.0016 11.6875 18.2416V16.5916C11.6875 14.8316 12.5858 13.9791 14.4192 13.9791H18.1225C19.965 13.9791 20.8542 14.8316 20.8542 16.5916V18.2416C20.8542 20.0016 19.9558 20.8541 18.1225 20.8541ZM14.4192 15.3541C13.255 15.3541 13.0625 15.6658 13.0625 16.5916V18.2416C13.0625 19.1675 13.255 19.4791 14.4192 19.4791H18.1225C19.2867 19.4791 19.4792 19.1675 19.4792 18.2416V16.5916C19.4792 15.6658 19.2867 15.3541 18.1225 15.3541H14.4192Z" fill="#858D9D"/>
</svg>
