<svg width="22" height="22" viewBox="0 0 22 22" fill="none" xmlns="http://www.w3.org/2000/svg">
<path d="M20.1673 20.8541H1.83398C1.45815 20.8541 1.14648 20.5425 1.14648 20.1666C1.14648 19.7908 1.45815 19.4791 1.83398 19.4791H20.1673C20.5431 19.4791 20.8548 19.7908 20.8548 20.1666C20.8548 20.5425 20.5431 20.8541 20.1673 20.8541Z" fill="#858D9D"/>
<path d="M19.25 20.8542H2.75C2.37417 20.8542 2.0625 20.5425 2.0625 20.1667V5.50004C2.0625 2.73171 3.64833 1.14587 6.41667 1.14587H15.5833C18.3517 1.14587 19.9375 2.73171 19.9375 5.50004V20.1667C19.9375 20.5425 19.6258 20.8542 19.25 20.8542ZM3.4375 19.4792H18.5625V5.50004C18.5625 3.46504 17.6183 2.52087 15.5833 2.52087H6.41667C4.38167 2.52087 3.4375 3.46504 3.4375 5.50004V19.4792Z" fill="#858D9D"/>
<path d="M13.75 20.8542H8.25C7.87417 20.8542 7.5625 20.5425 7.5625 20.1667V14.6117C7.5625 13.7592 8.25917 13.0625 9.11167 13.0625H12.8975C13.75 13.0625 14.4467 13.7592 14.4467 14.6117V20.1667C14.4375 20.5425 14.1258 20.8542 13.75 20.8542ZM8.9375 19.4792H13.0625V14.6117C13.0625 14.52 12.9892 14.4375 12.8883 14.4375H9.10249C9.01083 14.4375 8.92834 14.5108 8.92834 14.6117V19.4792H8.9375Z" fill="#858D9D"/>
<path d="M11 10.7708C10.6242 10.7708 10.3125 10.4592 10.3125 10.0833V5.5C10.3125 5.12417 10.6242 4.8125 11 4.8125C11.3758 4.8125 11.6875 5.12417 11.6875 5.5V10.0833C11.6875 10.4592 11.3758 10.7708 11 10.7708Z" fill="#858D9D"/>
<path d="M13.2923 8.47913H8.70898C8.33315 8.47913 8.02148 8.16746 8.02148 7.79163C8.02148 7.41579 8.33315 7.10413 8.70898 7.10413H13.2923C13.6682 7.10413 13.9798 7.41579 13.9798 7.79163C13.9798 8.16746 13.6682 8.47913 13.2923 8.47913Z" fill="#858D9D"/>
</svg>
