<svg width="22" height="22" viewBox="0 0 22 22" fill="none" xmlns="http://www.w3.org/2000/svg">
<path d="M20.1693 19.4791H1.83594C1.4601 19.4791 1.14844 19.7908 1.14844 20.1666C1.14844 20.5425 1.4601 20.8541 1.83594 20.8541H20.1693C20.5451 20.8541 20.8568 20.5425 20.8568 20.1666C20.8568 19.7908 20.5451 19.4791 20.1693 19.4791Z" fill="#90BD40"/>
<path d="M15.5833 1.83337H6.41667C3.66667 1.83337 2.75 3.47421 2.75 5.50004V20.1667H8.25V14.6117C8.25 14.135 8.635 13.75 9.11167 13.75H12.8975C13.365 13.75 13.7592 14.135 13.7592 14.6117V20.1667H19.2592V5.50004C19.25 3.47421 18.3333 1.83337 15.5833 1.83337ZM13.2917 8.47921H11.6875V10.0834C11.6875 10.4592 11.3758 10.7709 11 10.7709C10.6242 10.7709 10.3125 10.4592 10.3125 10.0834V8.47921H8.70833C8.3325 8.47921 8.02083 8.16754 8.02083 7.79171C8.02083 7.41587 8.3325 7.10421 8.70833 7.10421H10.3125V5.50004C10.3125 5.12421 10.6242 4.81254 11 4.81254C11.3758 4.81254 11.6875 5.12421 11.6875 5.50004V7.10421H13.2917C13.6675 7.10421 13.9792 7.41587 13.9792 7.79171C13.9792 8.16754 13.6675 8.47921 13.2917 8.47921Z" fill="#90BD40"/>
</svg>
