<svg width="22" height="22" viewBox="0 0 22 22" fill="none" xmlns="http://www.w3.org/2000/svg">
<path fill-rule="evenodd" clip-rule="evenodd" d="M6.95993 10.3419C6.02515 9.40708 5.5 8.13925 5.5 6.81728C5.5 5.4953 6.02515 4.22747 6.95993 3.29269C7.89471 2.35792 9.16254 1.83276 10.4845 1.83276C11.8065 1.83276 13.0743 2.35792 14.0091 3.29269L15.7709 5.05544L15.6829 5.50919L15.682 5.51744L15.6701 5.56694C15.6511 5.64216 15.6297 5.71675 15.6059 5.79061C15.5096 6.0885 15.3917 6.37894 15.253 6.65961C14.8973 7.39844 14.2667 8.42236 13.1777 9.51044C12.0887 10.6004 11.0657 11.2301 10.3268 11.5867C9.95743 11.7645 9.65768 11.8736 9.45785 11.9378C9.36782 11.967 9.2767 11.9926 9.18468 12.0148L9.17643 12.0166L8.72268 12.1037L6.95993 10.3419ZM12.4031 4.09753C12.3402 4.02998 12.2643 3.9758 12.1799 3.93823C12.0956 3.90065 12.0046 3.88045 11.9122 3.87882C11.8199 3.87719 11.7282 3.89417 11.6426 3.92875C11.557 3.96333 11.4793 4.01479 11.414 4.08008C11.3487 4.14536 11.2972 4.22312 11.2627 4.30873C11.2281 4.39434 11.2111 4.48603 11.2127 4.57834C11.2143 4.67065 11.2346 4.76169 11.2721 4.84602C11.3097 4.93035 11.3639 5.00625 11.4314 5.06919L12.8064 6.44419C12.8694 6.51174 12.9453 6.56592 13.0296 6.60349C13.1139 6.64107 13.205 6.66127 13.2973 6.6629C13.3896 6.66453 13.4813 6.64755 13.5669 6.61297C13.6525 6.5784 13.7303 6.52693 13.7955 6.46165C13.8608 6.39636 13.9123 6.3186 13.9469 6.23299C13.9815 6.14739 13.9984 6.05569 13.9968 5.96338C13.9952 5.87107 13.975 5.78003 13.9374 5.6957C13.8998 5.61137 13.8456 5.53547 13.7781 5.47253L12.4031 4.09753Z" fill="#90BD40"/>
<path d="M16.9134 6.20948L16.9161 6.20215L18.7064 7.99148C19.1692 8.45434 19.5364 9.00383 19.7869 9.60858C20.0374 10.2133 20.1663 10.8615 20.1663 11.5161C20.1663 12.1706 20.0374 12.8188 19.7869 13.4236C19.5364 14.0283 19.1692 14.5778 18.7064 15.0406C18.2435 15.5035 17.694 15.8707 17.0893 16.1212C16.4845 16.3717 15.8364 16.5006 15.1818 16.5006C14.5272 16.5006 13.8791 16.3717 13.2743 16.1212C12.6696 15.8707 12.1201 15.5035 11.6572 15.0406L9.86789 13.2504L9.87431 13.2476C10.2328 13.1309 10.5829 12.9897 10.9221 12.8251C11.7865 12.408 12.9406 11.6921 14.1487 10.4839C15.3569 9.27482 16.0737 8.12165 16.4899 7.25723C16.698 6.82548 16.8318 6.46615 16.9134 6.20948ZM4.84456 9.76065C4.07028 10.1541 3.40018 10.7252 2.8891 11.4274C2.37802 12.1296 2.04049 12.9428 1.90414 13.8005C1.76779 14.6583 1.8365 15.5361 2.10465 16.3621C2.37279 17.1882 2.83274 17.939 3.44685 18.5531C4.06096 19.1672 4.81178 19.6272 5.63783 19.8953C6.46388 20.1635 7.3417 20.2322 8.19941 20.0958C9.05713 19.9595 9.87036 19.6219 10.5725 19.1109C11.2747 18.5998 11.8459 17.9297 12.2393 17.1554C11.6667 16.8548 11.1429 16.4695 10.6856 16.0123L5.98672 11.3135C5.52998 10.8563 5.14491 10.3328 4.84456 9.76065Z" fill="#90BD40"/>
</svg>
