<svg width="22" height="22" viewBox="0 0 22 22" fill="none" xmlns="http://www.w3.org/2000/svg">
<path d="M11.4315 4.09755C11.5604 3.9688 11.7352 3.89648 11.9174 3.89648C12.0996 3.89648 12.2743 3.9688 12.4032 4.09755L13.7782 5.47255C13.8996 5.60287 13.9658 5.77525 13.9626 5.95336C13.9595 6.13147 13.8873 6.3014 13.7614 6.42737C13.6354 6.55333 13.4655 6.62548 13.2873 6.62862C13.1092 6.63177 12.9369 6.56565 12.8065 6.44421L11.4315 5.06921C11.3028 4.94031 11.2305 4.76557 11.2305 4.58338C11.2305 4.40119 11.3028 4.22645 11.4315 4.09755Z" fill="#858D9D"/>
<path fill-rule="evenodd" clip-rule="evenodd" d="M6.47415 2.80687C7.0008 2.28019 7.62602 1.86241 8.31413 1.57737C9.00224 1.29234 9.73976 1.14563 10.4846 1.14563C11.2294 1.14563 11.9669 1.29234 12.655 1.57737C13.3431 1.86241 13.9683 2.28019 14.495 2.80687L19.1938 7.5057C20.114 8.425 20.6902 9.63264 20.8259 10.9262C20.9616 12.2198 20.6485 13.5208 19.9391 14.611C19.2297 15.7012 18.1672 16.5145 16.9295 16.9145C15.6919 17.3145 14.3543 17.2769 13.1411 16.808C12.6375 18.1699 11.6712 19.3114 10.4111 20.0329C9.15107 20.7544 7.67746 21.0099 6.24806 20.7547C4.81867 20.4995 3.52448 19.7499 2.59189 18.637C1.6593 17.5241 1.14767 16.1187 1.14648 14.6667C1.14609 13.4011 1.53378 12.1659 2.25728 11.1275C2.98078 10.0891 4.00529 9.2976 5.19265 8.85962C4.79761 7.83493 4.70841 6.71761 4.93588 5.64322C5.16335 4.56883 5.69772 3.58353 6.47415 2.80687ZM13.5233 3.77854C12.7174 2.97261 11.6243 2.51984 10.4846 2.51984C9.34482 2.51984 8.25174 2.97261 7.44582 3.77854C6.63989 4.58446 6.18713 5.67753 6.18713 6.81729C6.18713 7.95704 6.63989 9.05011 7.44582 9.85604L9.51198 11.9204C9.70998 11.8544 9.98865 11.749 10.3278 11.5867C11.0657 11.2301 12.0887 10.6004 13.1787 9.51137C14.2686 8.42237 14.8974 7.39845 15.2531 6.66054C15.3809 6.39555 15.4926 6.12311 15.5877 5.8447L13.5233 3.77854ZM16.651 6.90804C16.6039 7.01804 16.5511 7.13415 16.4924 7.25637C16.0753 8.1217 15.3585 9.27487 14.1503 10.483C12.9422 11.6912 11.7881 12.408 10.9237 12.8251C10.8014 12.8838 10.6853 12.937 10.5753 12.9846L12.1456 14.554C12.5429 14.9603 13.0168 15.2838 13.54 15.5056C14.0631 15.7275 14.6251 15.8434 15.1934 15.8466C15.7617 15.8498 16.3249 15.7402 16.8506 15.5243C17.3762 15.3083 17.8538 14.9901 18.2556 14.5883C18.6574 14.1865 18.9755 13.7089 19.1915 13.1833C19.4075 12.6577 19.5171 12.0944 19.5139 11.5261C19.5107 10.9579 19.3948 10.3959 19.1729 9.8727C18.951 9.34953 18.6276 8.87558 18.2212 8.47829L16.651 6.90804ZM5.8499 10.087C5.06671 10.3414 4.36189 10.7925 3.80288 11.3971C3.24386 12.0018 2.84934 12.7397 2.65706 13.5404C2.46478 14.3411 2.48117 15.1778 2.70467 15.9703C2.92817 16.7629 3.35129 17.4848 3.93357 18.0671C4.51585 18.6494 5.23779 19.0725 6.03035 19.296C6.8229 19.5195 7.65955 19.5359 8.46025 19.3436C9.26095 19.1514 9.99891 18.7568 10.6036 18.1978C11.2082 17.6388 11.6593 16.934 11.9137 16.1508C11.6489 15.9649 11.401 15.756 11.173 15.5265L6.47415 10.8277C6.24469 10.5997 6.0358 10.3518 5.8499 10.087Z" fill="#858D9D"/>
</svg>
