<svg width="22" height="22" viewBox="0 0 22 22" fill="none" xmlns="http://www.w3.org/2000/svg">
<path d="M11.1464 10.6517C11.1189 10.6517 11.1005 10.6517 11.073 10.6517C11.0272 10.6425 10.963 10.6425 10.908 10.6517C8.24969 10.5692 6.24219 8.47921 6.24219 5.90337C6.24219 3.28171 8.37802 1.14587 10.9997 1.14587C13.6214 1.14587 15.7572 3.28171 15.7572 5.90337C15.748 8.47921 13.7314 10.5692 11.1739 10.6517C11.1647 10.6517 11.1555 10.6517 11.1464 10.6517ZM10.9997 2.52087C9.13885 2.52087 7.61719 4.04254 7.61719 5.90337C7.61719 7.73671 9.04719 9.21254 10.8714 9.27671C10.9172 9.26754 11.0455 9.26754 11.1647 9.27671C12.9614 9.19421 14.373 7.71837 14.3822 5.90337C14.3822 4.04254 12.8605 2.52087 10.9997 2.52087Z" fill="#858D9D"/>
<path d="M11.156 20.6708C9.3593 20.6708 7.55346 20.2125 6.18763 19.2958C4.91346 18.4525 4.2168 17.2975 4.2168 16.0416C4.2168 14.7858 4.91346 13.6216 6.18763 12.7691C8.93763 10.945 13.3926 10.945 16.1243 12.7691C17.3893 13.6125 18.0951 14.7675 18.0951 16.0233C18.0951 17.2791 17.3985 18.4433 16.1243 19.2958C14.7493 20.2125 12.9526 20.6708 11.156 20.6708ZM6.94846 13.9241C6.06846 14.5108 5.5918 15.2625 5.5918 16.0508C5.5918 16.83 6.07763 17.5816 6.94846 18.1591C9.23096 19.69 13.081 19.69 15.3635 18.1591C16.2435 17.5725 16.7201 16.8208 16.7201 16.0325C16.7201 15.2533 16.2343 14.5016 15.3635 13.9241C13.081 12.4025 9.23096 12.4025 6.94846 13.9241Z" fill="#858D9D"/>
</svg>
