<svg width="20" height="21" viewBox="0 0 20 21" fill="none" xmlns="http://www.w3.org/2000/svg">
<path d="M12.5003 19.3583H7.50033C2.97533 19.3583 1.04199 17.425 1.04199 12.9V7.89998C1.04199 3.37498 2.97533 1.44165 7.50033 1.44165H12.5003C17.0253 1.44165 18.9587 3.37498 18.9587 7.89998V12.9C18.9587 17.425 17.0253 19.3583 12.5003 19.3583ZM7.50033 2.69165C3.65866 2.69165 2.29199 4.05832 2.29199 7.89998V12.9C2.29199 16.7417 3.65866 18.1083 7.50033 18.1083H12.5003C16.342 18.1083 17.7087 16.7417 17.7087 12.9V7.89998C17.7087 4.05832 16.342 2.69165 12.5003 2.69165H7.50033Z" fill="#989FAD"/>
<path d="M6.10875 13.1C5.97542 13.1 5.84209 13.0584 5.72542 12.9667C5.45042 12.7584 5.40042 12.3667 5.60875 12.0917L7.59209 9.5167C7.83375 9.20836 8.17542 9.00836 8.56709 8.95836C8.95042 8.90836 9.34209 9.0167 9.65042 9.25836L11.1754 10.4584C11.2338 10.5084 11.2921 10.5084 11.3338 10.5C11.3671 10.5 11.4254 10.4834 11.4754 10.4167L13.4004 7.93336C13.6088 7.65836 14.0088 7.60836 14.2754 7.82503C14.5504 8.03336 14.6004 8.42503 14.3838 8.70003L12.4588 11.1834C12.2171 11.4917 11.8754 11.6917 11.4838 11.7334C11.0921 11.7834 10.7088 11.675 10.4004 11.4334L8.87542 10.2334C8.81709 10.1834 8.75042 10.1834 8.71709 10.1917C8.68375 10.1917 8.62542 10.2084 8.57542 10.275L6.59209 12.85C6.48375 13.0167 6.30042 13.1 6.10875 13.1Z" fill="#989FAD"/>
</svg>
