<svg width="20" height="21" viewBox="0 0 20 21" fill="none" xmlns="http://www.w3.org/2000/svg">
<path d="M5.15834 18.7834C4.325 18.7834 3.51667 18.4584 2.875 17.8334C1.83334 16.8167 1.58334 15.3167 2.23334 14.0167L3.58334 11.3167C3.86667 10.75 3.86667 10.0667 3.58334 9.49169L2.23334 6.78335C1.58334 5.48335 1.83334 3.98335 2.875 2.96669C3.91667 1.95002 5.41667 1.72502 6.70834 2.40835L16.3667 7.49169C17.45 8.05835 18.125 9.17502 18.125 10.4C18.125 11.625 17.45 12.7417 16.3667 13.3084L6.70834 18.3917C6.20834 18.6584 5.68334 18.7834 5.15834 18.7834ZM5.16667 3.26669C4.59167 3.26669 4.09167 3.53335 3.75 3.86669C3.23334 4.36669 2.86667 5.25835 3.35 6.23335L4.7 8.93335C5.15833 9.85835 5.15833 10.95 4.7 11.875L3.35 14.575C2.85834 15.55 3.23334 16.4417 3.75 16.9417C4.26667 17.4417 5.15833 17.8 6.125 17.2917L15.7833 12.2084C16.4667 11.85 16.875 11.175 16.875 10.4084C16.875 9.64169 16.4667 8.96669 15.7833 8.60835L6.125 3.50835C5.79167 3.33335 5.46667 3.26669 5.16667 3.26669Z" fill="#989FAD"/>
</svg>
