<svg width="142" height="118" viewBox="0 0 142 118" fill="none" xmlns="http://www.w3.org/2000/svg">
<path opacity="0.4" d="M25.1754 108.784C36.6421 108.784 45.9377 99.4884 45.9377 88.0217C45.9377 76.555 36.6421 67.2594 25.1754 67.2594C13.7087 67.2594 4.41309 76.555 4.41309 88.0217C4.41309 99.4884 13.7087 108.784 25.1754 108.784Z" fill="#90BD40"/>
<path d="M46.5931 110.97C46.1998 110.97 45.8064 110.817 45.5223 110.532L41.4572 106.467C40.8671 105.877 40.8671 104.916 41.4572 104.304C42.0473 103.714 43.0089 103.714 43.6209 104.304L47.6859 108.369C48.276 108.959 48.276 109.921 47.6859 110.532C47.3799 110.817 46.9865 110.97 46.5931 110.97Z" fill="#90BD40"/>
<path d="M31.0764 86.8197H27.2518V82.9951C27.2518 82.099 26.5087 81.356 25.6127 81.356C24.7166 81.356 23.9735 82.099 23.9735 82.9951V86.8197H20.1489C19.2528 86.8197 18.5098 87.5628 18.5098 88.4589C18.5098 89.3549 19.2528 90.098 20.1489 90.098H23.9735V93.9226C23.9735 94.8187 24.7166 95.5618 25.6127 95.5618C26.5087 95.5618 27.2518 94.8187 27.2518 93.9226V90.098H31.0764C31.9725 90.098 32.7156 89.3549 32.7156 88.4589C32.7156 87.5628 31.9725 86.8197 31.0764 86.8197Z" fill="#90BD40"/>
<path opacity="0.4" d="M113.446 41.8366L86.2012 34.5363C78.2655 32.41 70.1095 37.146 67.9917 45.0496L59.8909 75.2823C57.7731 83.1859 62.5006 91.374 70.4041 93.4918L97.6168 100.783C105.552 102.91 113.708 98.1737 115.826 90.2701L123.927 60.0374C126.086 52.1103 121.35 43.9543 113.446 41.8366Z" fill="#90BD40"/>
<path d="M108.795 34.9084L93.6943 30.8623C90.353 29.967 86.8989 31.934 86.0036 35.2753L85.1944 38.2954C84.2991 41.6367 86.2747 45.0587 89.6161 45.954L104.748 50.0087C108.09 50.904 111.512 48.9284 112.407 45.587L113.216 42.567C114.144 39.2342 112.136 35.8037 108.795 34.9084Z" fill="#90BD40"/>
<path d="M84.5507 79.8926C83.9402 79.7291 83.3901 79.3406 83.0373 78.7295L79.5093 72.619C78.8273 71.4376 79.2405 69.8955 80.4219 69.2134C81.6032 68.5313 83.1454 68.9445 83.8275 70.1259L86.1089 74.0774L100.245 65.9161C101.426 65.2341 102.968 65.6473 103.65 66.8287C104.332 68.01 103.919 69.5522 102.738 70.2343L86.4429 79.6421C85.8639 80.0035 85.1611 80.0562 84.5507 79.8926Z" fill="#90BD40"/>
<path opacity="0.4" d="M30.1385 10.9262C24.8673 12.3386 21.7303 17.7721 23.1427 23.0432C24.5281 28.2138 29.6933 31.3149 35.0129 30.0836C35.1685 30.0204 35.3294 29.9772 35.4555 29.965C35.4958 29.9542 35.5159 29.9488 35.5561 29.938C35.5762 29.9327 35.5762 29.9327 35.5964 29.9273C40.6982 28.3661 43.6208 23.0979 42.2555 17.922C40.8431 12.6508 35.4096 9.51379 30.1385 10.9262Z" fill="#90BD40"/>
<path d="M46.9084 32.6319C40.2926 30.3939 31.1386 32.8467 26.4879 38.1036C24.391 40.4983 23.6026 43.1893 24.2657 45.6639C24.9288 48.1386 26.9516 50.0547 29.9394 51.0655C33.2628 52.2019 37.218 52.1556 40.9199 51.1637C44.6217 50.1718 48.0702 48.2343 50.3801 45.5884C52.4569 43.1991 53.2506 40.5282 52.5822 38.0334C51.899 35.5642 49.8962 33.6427 46.9084 32.6319Z" fill="#90BD40"/>
</svg>
