<svg width="20" height="21" viewBox="0 0 20 21" fill="none" xmlns="http://www.w3.org/2000/svg">
<path d="M9.16699 17.6917C4.68366 17.6917 1.04199 14.05 1.04199 9.56665C1.04199 5.08332 4.68366 1.44165 9.16699 1.44165C13.6503 1.44165 17.292 5.08332 17.292 9.56665C17.292 14.05 13.6503 17.6917 9.16699 17.6917ZM9.16699 2.69165C5.37533 2.69165 2.29199 5.77498 2.29199 9.56665C2.29199 13.3583 5.37533 16.4417 9.16699 16.4417C12.9587 16.4417 16.042 13.3583 16.042 9.56665C16.042 5.77498 12.9587 2.69165 9.16699 2.69165Z" fill="#989FAD"/>
<path d="M11.2497 10.1917H7.08301C6.74134 10.1917 6.45801 9.90832 6.45801 9.56665C6.45801 9.22498 6.74134 8.94165 7.08301 8.94165H11.2497C11.5913 8.94165 11.8747 9.22498 11.8747 9.56665C11.8747 9.90832 11.5913 10.1917 11.2497 10.1917Z" fill="#989FAD"/>
<path d="M9.16699 12.2751C8.82533 12.2751 8.54199 11.9917 8.54199 11.6501V7.4834C8.54199 7.14173 8.82533 6.8584 9.16699 6.8584C9.50866 6.8584 9.79199 7.14173 9.79199 7.4834V11.6501C9.79199 11.9917 9.50866 12.2751 9.16699 12.2751Z" fill="#989FAD"/>
<path d="M16.7996 19.3917C16.7329 19.3917 16.6663 19.3834 16.6079 19.375C16.2163 19.325 15.5079 19.0584 15.1079 17.8667C14.8996 17.2417 14.9746 16.6167 15.3163 16.1417C15.6579 15.6667 16.2329 15.4 16.8913 15.4C17.7413 15.4 18.4079 15.725 18.7079 16.3C19.0079 16.875 18.9246 17.6084 18.4496 18.3167C17.8579 19.2084 17.2163 19.3917 16.7996 19.3917ZM16.2996 17.475C16.4413 17.9084 16.6413 18.125 16.7746 18.1417C16.9079 18.1584 17.1579 18 17.4163 17.625C17.6579 17.2667 17.6746 17.0084 17.6163 16.8917C17.5579 16.775 17.3246 16.65 16.8913 16.65C16.6329 16.65 16.4413 16.7334 16.3329 16.875C16.2329 17.0167 16.2163 17.2334 16.2996 17.475Z" fill="#989FAD"/>
</svg>
