<svg width="107" height="42" viewBox="0 0 107 42" fill="none" xmlns="http://www.w3.org/2000/svg">
<g opacity="0.34">
<g clip-path="url(#clip0_158_1851)">
<mask id="mask0_158_1851" style="mask-type:luminance" maskUnits="userSpaceOnUse" x="1" y="15" width="104" height="21">
<path d="M104.186 15.75H1.32886V35.4375H104.186V15.75Z" fill="white"/>
</mask>
<g mask="url(#mask0_158_1851)">
<path fill-rule="evenodd" clip-rule="evenodd" d="M41.9154 31.1496C38.1146 33.9478 32.6034 35.4364 27.8576 35.4364C21.2076 35.4364 15.2183 32.9839 10.6854 28.9006C10.3299 28.5793 10.6464 28.1424 11.0743 28.3903C15.9637 31.2296 22.011 32.9395 28.2565 32.9395C32.4696 32.9395 37.1006 32.0668 41.3627 30.2635C42.0057 29.9923 42.545 30.686 41.9154 31.1496Z" fill="#222222"/>
<path fill-rule="evenodd" clip-rule="evenodd" d="M43.4979 29.3475C43.011 28.7261 40.2843 29.0529 39.0586 29.1997C38.6875 29.2441 38.6296 28.9206 38.9639 28.686C41.1401 27.1608 44.7058 27.601 45.1192 28.1124C45.5359 28.6271 45.0089 32.1935 42.9708 33.8956C42.6566 34.1568 42.358 34.0179 42.4973 33.6721C42.9564 32.5282 43.9837 29.969 43.4968 29.3475H43.4979Z" fill="#222222"/>
<path fill-rule="evenodd" clip-rule="evenodd" d="M39.1454 17.914V16.4332C39.1465 16.2076 39.317 16.0575 39.5221 16.0586H46.1777C46.3905 16.0586 46.5621 16.212 46.5621 16.4321V17.7028C46.5599 17.9163 46.3794 18.1942 46.0607 18.6356L42.6131 23.5471C43.8923 23.5171 45.2461 23.7083 46.4095 24.3609C46.6713 24.5077 46.7426 24.7256 46.7627 24.939V26.5199C46.7627 26.7378 46.5242 26.9902 46.2724 26.859C44.2243 25.7884 41.5055 25.6717 39.2402 26.8723C39.0084 26.9957 38.7666 26.7467 38.7666 26.5288V25.0257C38.7666 24.7856 38.771 24.3743 39.014 24.0074L43.0075 18.2898H39.5299C39.317 18.2898 39.1465 18.1386 39.1454 17.9163V17.914ZM14.8674 27.168H12.8428C12.65 27.1558 12.4962 27.0113 12.4806 26.8267L12.4828 16.4577C12.4828 16.2509 12.6578 16.0853 12.874 16.0853H14.7593C14.9566 16.0942 15.1148 16.2431 15.127 16.4332V17.7862H15.166C15.6574 16.4766 16.5834 15.8663 17.8303 15.8663C19.0772 15.8663 19.8906 16.4777 20.4578 17.7862C20.9492 16.4766 22.0646 15.8663 23.2546 15.8663C24.1059 15.8663 25.0308 16.2153 25.598 17.0013C26.2409 17.874 26.1094 19.1392 26.1094 20.252L26.1072 26.7956C26.1072 27.0024 25.9334 27.168 25.7172 27.168H23.6948C23.4909 27.1547 23.3315 26.9946 23.3315 26.7956V21.2992C23.3315 20.8634 23.3683 19.7728 23.2736 19.3582C23.1231 18.6589 22.6696 18.4632 22.0835 18.4632C21.5921 18.4632 21.0818 18.7901 20.8734 19.3137C20.665 19.8384 20.6851 20.71 20.6851 21.2992V26.7956C20.6851 27.0024 20.5101 27.168 20.2951 27.168H18.2727C18.0687 27.1547 17.9094 26.9946 17.9094 26.7956L17.9072 21.2992C17.9072 20.1431 18.0966 18.4421 16.6603 18.4421C15.224 18.4421 15.2619 20.0997 15.2619 21.2992V26.7956C15.2608 27.0024 15.0858 27.168 14.8708 27.168H14.8674ZM52.3085 17.983C50.8153 17.983 50.7206 20.0119 50.7206 21.277C50.7206 22.5422 50.7017 25.2481 52.2895 25.2481C53.8774 25.2481 53.9342 23.0658 53.9342 21.735C53.9342 20.8623 53.8952 19.8151 53.6311 18.9857C53.4049 18.2654 52.9503 17.9819 52.3074 17.9819L52.3085 17.983ZM52.2906 15.8663C55.2959 15.8663 56.9205 18.4421 56.9205 21.7139C56.9205 24.9857 55.1254 27.3859 52.2906 27.3859C49.4559 27.3859 47.7355 24.8112 47.7355 21.6039C47.7355 18.3965 49.3601 15.8663 52.2906 15.8663ZM60.8183 27.168H58.8003C58.5986 27.1547 58.437 26.9946 58.437 26.7956L58.4337 16.4232C58.4515 16.2331 58.6187 16.0853 58.8226 16.0853H60.7002C60.8773 16.0942 61.0233 16.2142 61.0601 16.3743V17.9607H61.0979C61.6651 16.5422 62.4585 15.8663 63.8569 15.8663C64.7639 15.8663 65.6531 16.1931 66.2203 17.088C66.7496 17.9174 66.7496 19.3126 66.7496 20.3165V26.8412C66.7273 27.0246 66.5624 27.1669 66.3618 27.1669H64.3327C64.1455 27.1558 63.994 27.0179 63.9717 26.8412V21.2114C63.9717 20.0763 64.1043 18.4177 62.7059 18.4177C62.2145 18.4177 61.7609 18.7445 61.5336 19.247C61.2495 19.8796 61.2116 20.5121 61.2116 21.2114V26.7945C61.2083 27.0013 61.0333 27.1669 60.8172 27.1669L60.8183 27.168ZM35.8795 27.1425C35.7458 27.2625 35.553 27.2703 35.4014 27.1892C34.7295 26.6311 34.6081 26.3743 34.2404 25.8429C33.1294 26.9724 32.3416 27.3114 30.902 27.3114C29.1971 27.3114 27.8711 26.262 27.8711 24.163C27.8711 22.5233 28.7625 21.4082 30.0306 20.8612C31.1293 20.3798 32.6636 20.2931 33.8381 20.1608V19.8985C33.8381 19.416 33.876 18.849 33.5918 18.4332C33.3456 18.0608 32.872 17.9085 32.4553 17.9085C31.6831 17.9085 30.9967 18.3032 30.8273 19.1214C30.7916 19.3037 30.659 19.4838 30.4763 19.4938L28.5129 19.2815C28.3469 19.2437 28.1631 19.1114 28.211 18.859C28.6578 16.5166 30.7549 15.7862 32.6603 15.7673H32.8107C33.7857 15.7795 35.0315 16.0464 35.7903 16.7723C36.7754 17.6906 36.6806 18.9157 36.6806 20.2498V23.3971C36.6806 24.3443 37.0751 24.7589 37.445 25.2692C37.5754 25.4538 37.6033 25.6716 37.4384 25.8062C37.025 26.1519 36.2895 26.7889 35.8862 27.148L35.8806 27.1436L35.8795 27.1425ZM33.8392 22.2175C33.8392 23.0046 33.8582 23.6605 33.4604 24.3609C33.1383 24.929 32.6269 25.2792 32.0586 25.2792C31.2819 25.2792 30.8284 24.6889 30.8284 23.814C30.8284 22.093 32.375 21.7806 33.8403 21.7806V22.2186L33.8392 22.2175ZM9.33722 27.1425C9.2035 27.2625 9.00962 27.2703 8.85919 27.1892C8.18616 26.6311 8.06582 26.3743 7.69811 25.8429C6.58605 26.9724 5.79937 27.3114 4.35971 27.3114C2.65486 27.3114 1.32886 26.262 1.32886 24.163C1.32886 22.5233 2.21917 21.4082 3.48834 20.8612C4.58702 20.3798 6.12139 20.2931 7.29474 20.1608V19.8985C7.29474 19.416 7.33374 18.849 7.04848 18.4332C6.80222 18.0608 6.32865 17.9085 5.91191 17.9085C5.13971 17.9085 4.4522 18.3032 4.28394 19.1214C4.2494 19.3037 4.11568 19.4838 3.93183 19.4938L1.96957 19.2815C1.80354 19.2437 1.61969 19.1114 1.6676 18.859C2.11331 16.5166 4.2104 15.7862 6.11694 15.7673H6.26736C7.24236 15.7795 8.48813 16.0464 9.24696 16.7723C10.232 17.6906 10.1373 18.9157 10.1373 20.2498V23.3971C10.1373 24.3443 10.5317 24.7589 10.9017 25.2692C11.0309 25.4538 11.0599 25.6716 10.895 25.8062C10.4816 26.1519 9.74616 26.7889 9.34168 27.148L9.33722 27.1436V27.1425ZM7.29585 22.2175C7.29585 23.0046 7.31479 23.6605 6.91699 24.3609C6.59496 24.929 6.08351 25.2792 5.51522 25.2792C4.73857 25.2792 4.28505 24.6889 4.28505 23.814C4.28505 22.093 5.83168 21.7806 7.29696 21.7806V22.2186L7.29585 22.2175ZM94.4306 30.8879V30.1263C94.4306 29.9095 94.5376 29.7606 94.7638 29.7739C95.1872 29.8339 95.7856 29.894 96.2102 29.8061C96.7651 29.6905 97.1629 29.2981 97.398 28.7611C97.73 28.004 97.9496 27.3937 98.0877 26.9935L93.8757 16.5822C93.8044 16.4054 93.7832 16.0775 94.1376 16.0775H95.6096C95.8904 16.0775 96.0051 16.2554 96.0675 16.4299L99.1218 24.8868L102.037 16.4299C102.096 16.2565 102.216 16.0775 102.495 16.0775H103.883C104.234 16.0775 104.215 16.4043 104.145 16.5822L99.9664 27.3181C99.426 28.7467 98.705 31.0235 97.0826 31.4181C96.2692 31.6305 95.243 31.5538 94.6401 31.3014C94.4886 31.2247 94.4295 31.0213 94.4295 30.8879H94.4306ZM92.4662 26.5343C92.4662 26.7278 92.3068 26.8868 92.1118 26.8868H91.0733C90.8493 26.8868 90.6956 26.7256 90.6677 26.5343L90.563 25.8295C90.0861 26.232 89.4999 26.5866 88.8648 26.8334C87.6435 27.307 86.2351 27.3848 85.0417 26.6533C84.1792 26.1252 83.7201 25.0913 83.7201 24.0263C83.7201 23.2014 83.9753 22.3843 84.5391 21.7906C85.2924 20.9791 86.3844 20.5811 87.7037 20.5811C88.5004 20.5811 89.6403 20.6745 90.4694 20.9446V19.5249C90.4694 18.0819 89.861 17.4571 88.2553 17.4571C87.0285 17.4571 86.0891 17.6417 84.7832 18.0475C84.5737 18.0541 84.4511 17.8963 84.4511 17.7017V16.8924C84.4511 16.6978 84.6171 16.5099 84.7977 16.4532C85.7303 16.0475 87.0519 15.7951 88.457 15.7484C90.2889 15.7484 92.465 16.1609 92.465 18.9713V26.5332L92.4662 26.5343ZM90.4705 24.4621V22.3209C89.7741 22.1308 88.6208 22.0519 88.1739 22.0519C87.4686 22.0519 86.6964 22.2186 86.293 22.6511C85.9922 22.9691 85.8551 23.4249 85.8551 23.8651C85.8551 24.4343 86.0523 25.0068 86.5137 25.2892C87.0496 25.6528 87.8809 25.6083 88.6631 25.387C89.4141 25.1747 90.1195 24.7978 90.4694 24.4632L90.4705 24.4621ZM77.1559 17.4905C79.4602 17.4905 80.0876 19.2981 80.0876 21.3682C80.101 22.7634 79.8436 24.0074 79.1193 24.72C78.5777 25.2536 77.9716 25.3982 77.0601 25.3982C76.2489 25.3982 75.1825 24.9757 74.3847 24.3887V18.4699C75.2148 17.834 76.2734 17.4905 77.1559 17.4905ZM74.0314 31.2592H72.6408C72.4458 31.2592 72.2876 31.1002 72.2876 30.9068V16.4477C72.2876 16.2542 72.4469 16.0953 72.6408 16.0953H73.705C73.9289 16.0953 74.0816 16.2565 74.1106 16.4477L74.222 17.2048C75.2193 16.3221 76.5029 15.7551 77.7253 15.7551C81.1506 15.7551 82.2772 18.5711 82.2772 21.4994C82.2772 24.6322 80.5545 27.1502 77.6395 27.1502C76.4127 27.1502 75.265 26.6989 74.3824 25.914V30.9068C74.3824 31.1002 74.2231 31.2592 74.0292 31.2592H74.0314Z" fill="#222222"/>
</g>
</g>
</g>
<defs>
<clipPath id="clip0_158_1851">
<rect width="102.857" height="19.6875" fill="white" transform="translate(1.32886 15.75)"/>
</clipPath>
</defs>
</svg>
