<svg width="106" height="42" viewBox="0 0 106 42" fill="none" xmlns="http://www.w3.org/2000/svg">
<g opacity="0.34">
<path d="M94.892 25.5421C93.4809 25.5475 92.3413 26.6957 92.3463 28.1068C92.3463 28.1086 92.3463 28.1101 92.3463 28.1115C92.3384 29.5226 93.4759 30.673 94.887 30.6809C94.8884 30.6809 94.8902 30.6809 94.8917 30.6809C96.2956 30.6809 97.4374 29.5298 97.4374 28.1115C97.4453 26.7004 96.3078 25.55 94.8967 25.5421C94.8952 25.5421 94.8935 25.5421 94.892 25.5421ZM86.5149 23.5578C86.5149 21.614 84.8695 20.0404 82.8397 20.0404C80.8098 20.0404 79.1644 21.6165 79.1644 23.5578C79.1644 25.4991 80.8123 27.0731 82.8418 27.0731C84.8713 27.0731 86.5145 25.4994 86.5145 23.5578H86.5149ZM86.5293 16.7209H90.584V30.3921H86.5293V29.518C85.347 30.334 83.9445 30.7705 82.5079 30.7691C78.5603 30.7691 75.3607 27.5404 75.3607 23.5574C75.3607 19.5744 78.5607 16.3457 82.5079 16.3457C84.0004 16.3457 85.3829 16.8067 86.5293 17.5969V16.7206V16.7209ZM54.0718 18.5022V16.7231H49.9191V30.3918H54.0815V24.0087C54.0815 21.8547 56.393 20.6989 57.9978 20.6989H58.0455V16.7231C56.3976 16.7231 54.886 17.4347 54.0718 18.5022ZM43.7272 23.5578C43.7272 21.614 42.0818 20.0404 40.052 20.0404C38.0221 20.0404 36.3767 21.6165 36.3767 23.5578C36.3767 25.4991 38.0246 27.0731 40.0541 27.0731C42.0836 27.0731 43.7268 25.4994 43.7268 23.5578H43.7272ZM43.7416 16.7209H47.7988V30.3921H43.7416V29.518C42.5951 30.306 41.2127 30.7691 39.7202 30.7691C35.7726 30.7691 32.573 27.5404 32.573 23.5574C32.573 19.5744 35.773 16.3457 39.7202 16.3457C41.2127 16.3457 42.5951 16.8067 43.7416 17.5969V16.7206V16.7209ZM68.1541 16.3554C66.5349 16.3554 65.0018 16.8615 63.9752 18.2612V16.7234H59.9373V30.3921H64.0254V23.2091C64.0254 21.1315 65.4057 20.1117 67.0701 20.1117C68.8514 20.1117 69.8783 21.1864 69.8783 23.1804V30.3921H73.9284V21.6997C73.9284 18.5187 71.4211 16.3554 68.1544 16.3554H68.1541ZM26.6652 30.3921H30.9112V10.6316H26.6652V30.3921ZM8.01525 30.3968H12.5119V10.627H8.0174L8.01489 30.3971L8.01525 30.3968ZM23.7422 10.627C23.7422 14.9063 22.0896 18.8893 19.1429 21.8482L25.3563 30.3971H19.8043L13.0536 21.1079L14.7969 19.7896C17.6744 17.6252 19.3588 14.2276 19.3387 10.627H23.7422Z" fill="#222222"/>
</g>
</svg>
