<svg width="105" height="42" viewBox="0 0 105 42" fill="none" xmlns="http://www.w3.org/2000/svg">
<g opacity="0.34">
<path d="M71.6712 12.3625L77.2153 11.3695V32.6525H71.6712V12.3625ZM79.7655 12.3625V32.6525H85.3124V11.3695L79.7655 12.3625ZM63.7738 32.6525H69.3208V17.0869H63.7738V32.6525ZM27.1221 19.2874C26.4199 19.2404 24.7981 19.1376 24.7981 17.6745C24.7981 15.9117 27.1338 15.9117 28.0123 15.9117C29.5547 15.9117 31.5496 16.3671 32.9746 16.7931C32.9746 16.7931 33.7708 17.0722 34.4465 17.3601L34.5082 17.3777V12.5506L34.423 12.5241C32.7425 11.9365 30.7858 11.3695 27.1602 11.3695C20.9052 11.3695 18.6899 15.0126 18.6899 18.1328C18.6899 19.9309 19.4597 24.1646 26.6197 24.6523C27.2278 24.6905 28.8379 24.7815 28.8379 26.2917C28.8379 27.5374 27.5187 28.2748 25.3005 28.2748C22.8707 28.2748 20.5115 27.6549 19.0778 27.0673V32.0414C21.2225 32.6025 23.6376 32.8846 26.4728 32.8846C32.5868 32.8846 35.325 29.4383 35.325 26.0243C35.325 22.152 32.2606 19.6371 27.1221 19.2904V19.2874ZM60.6507 16.8577C55.5239 17.0222 52.9237 19.3227 52.9237 23.8943V32.6525H58.5177V25.5102C58.5177 22.7719 58.8762 21.5997 62.1256 21.488V16.94C61.5791 16.8225 60.6537 16.8606 60.6537 16.8606L60.6507 16.8577ZM45.6051 17.0692C45.4817 17.3807 44.5944 19.8868 42.4468 22.4869V11.3695L36.7235 12.5006V32.6525H42.4468V26.4239C44.1038 28.9095 44.9235 32.6525 44.9235 32.6525H51.7779C51.0992 29.8349 48.1348 24.6346 48.1348 24.6346C50.7966 21.2589 51.9659 17.6627 52.151 17.0663H45.6051V17.0692ZM66.5503 15.5944C68.0604 15.5944 69.2856 14.3721 69.2856 12.862C69.2856 11.3519 68.0604 10.1267 66.5503 10.1267C65.0401 10.1267 63.8179 11.3519 63.8179 12.862C63.8179 14.3721 65.0431 15.5944 66.5503 15.5944Z" fill="#222222"/>
</g>
</svg>
