<svg width="105" height="42" viewBox="0 0 105 42" fill="none" xmlns="http://www.w3.org/2000/svg">
<g opacity="0.34">
<path fill-rule="evenodd" clip-rule="evenodd" d="M102.375 32.5264H101.491V11.0433H102.375V32.5264Z" fill="#222222"/>
<path fill-rule="evenodd" clip-rule="evenodd" d="M91.6783 32.4606H90.7942V10.9775H91.6783V32.4606Z" fill="#222222"/>
<path fill-rule="evenodd" clip-rule="evenodd" d="M9.17497 20.588L10.0653 14.3885L10.9681 20.588H15.3078L17.4185 11.0194H14.019L13.085 17.0694L12.1573 11.0194H8.01689L7.08296 16.9078L6.16771 11.0194H2.625L4.76059 20.588H9.17497Z" fill="#222222"/>
<path fill-rule="evenodd" clip-rule="evenodd" d="M19.1182 20.588H27.7664V18.0986H23.408V16.9676H27.5173V14.5082H23.408V13.4789H27.6232V11.0194H19.1182V20.588Z" fill="#222222"/>
<path fill-rule="evenodd" clip-rule="evenodd" d="M29.6218 17.5122C29.6094 17.6319 29.6094 17.7516 29.6094 17.8593C29.6094 19.6844 31.3278 20.7496 34.5717 20.7496C37.8155 20.7496 39.509 19.6545 39.509 17.6319C39.509 15.8905 38.4879 15.3699 35.9476 14.55C34.5903 14.1072 33.7996 14.1311 33.7996 13.4669C33.7996 13.1079 34.0362 12.8446 34.609 12.8446C35.2814 12.8446 35.6052 13.2694 35.5741 13.8978H39.2475V13.4968C39.2475 11.8093 37.6599 10.786 34.7211 10.786C31.4959 10.786 29.7837 11.9888 29.7837 13.8678C29.7837 15.2143 30.6492 15.9922 32.4361 16.4829C33.7436 16.842 34.4907 17.1412 35.0573 17.3805C35.3562 17.5062 35.4558 17.7934 35.4122 18.0627C35.3562 18.4337 35.1196 18.6611 34.5343 18.6611C33.8121 18.6611 33.6066 18.2423 33.6066 17.59V17.5122H29.6281H29.6218Z" fill="#222222"/>
<path fill-rule="evenodd" clip-rule="evenodd" d="M50.05 11.0194H40.5862V13.5746H43.2199V20.588H47.435V13.5746H50.05V11.0194Z" fill="#222222"/>
<path fill-rule="evenodd" clip-rule="evenodd" d="M51.8618 20.588H60.51V18.0986H56.1517V16.9676H60.2236V14.5082H56.1517V13.4789H60.3668V11.0194H51.8618V20.588Z" fill="#222222"/>
<path fill-rule="evenodd" clip-rule="evenodd" d="M63.1437 20.588H67.2841V17.1831C67.4211 17.1711 67.5581 17.1711 67.6639 17.1711C68.6601 17.1711 68.8033 17.5182 68.9652 18.5594L69.071 19.2656C69.1333 19.6904 69.2516 20.1333 69.3948 20.594H73.5975C73.4169 19.8879 73.2737 19.3194 73.2177 18.8886L73.0807 17.8653C72.8939 16.4829 72.346 15.9623 71.2315 15.7469C72.3647 15.4776 73.2177 14.6578 73.2177 13.5088C73.2177 11.5939 71.96 11.0254 68.934 11.0254H63.1375V20.594L63.1437 20.588ZM67.2841 14.8313V13.1617C67.4709 13.1498 67.6203 13.1498 67.7573 13.1498C68.6912 13.1498 69.1021 13.3652 69.1021 13.9636C69.1021 14.562 68.5791 14.8433 67.5892 14.8433C67.4958 14.8433 67.3899 14.8433 67.2841 14.8313Z" fill="#222222"/>
<path fill-rule="evenodd" clip-rule="evenodd" d="M78.9333 15.1305L81.1561 20.588H85.9689V11.0194H82.7188V15.8905L80.8821 11.0194H75.677V20.588H78.9333V15.1305Z" fill="#222222"/>
<path fill-rule="evenodd" clip-rule="evenodd" d="M45.9904 26.5423L48.2132 31.9998H53.026V22.4371H49.7697V27.3082L47.933 22.4371H42.7341V31.9998H45.9904V26.5423Z" fill="#222222"/>
<path fill-rule="evenodd" clip-rule="evenodd" d="M79.033 26.5423L81.2558 31.9998H86.0686V22.4371H82.8186V27.3082L80.9818 22.4371H75.783V31.9998H79.033V26.5423Z" fill="#222222"/>
<path fill-rule="evenodd" clip-rule="evenodd" d="M29.8522 22.4371V28.1999C29.8522 29.3009 29.9269 30.1686 30.811 30.9945C31.7263 31.8442 33.0524 32.1673 34.9452 32.1673C38.4257 32.1673 40.0569 30.9167 40.0569 28.1999V22.4371H35.9227V28.3495C35.9227 29.1334 35.5554 29.5583 34.9452 29.5583C34.3039 29.5583 33.9677 29.1573 33.9677 28.3495V22.4371H29.8459H29.8522Z" fill="#222222"/>
<path fill-rule="evenodd" clip-rule="evenodd" d="M59.9747 22.4371H55.7346V31.9998H59.9747V22.4371Z" fill="#222222"/>
<path fill-rule="evenodd" clip-rule="evenodd" d="M67.7387 32.1494C71.5118 32.1494 73.5291 30.3961 73.5291 27.1467C73.5291 23.8973 71.4931 22.132 67.8757 22.132C64.2583 22.132 62.1787 23.9511 62.1787 27.1586C62.1787 30.3661 64.2147 32.1434 67.7387 32.1434V32.1494ZM67.8632 24.3581C68.8407 24.3581 69.0711 25.1899 69.0711 26.9971C69.0711 29.0197 68.8221 29.9413 67.8446 29.9413C66.867 29.9413 66.6367 29.0377 66.6367 27.1945C66.6367 25.2617 66.8546 24.3581 67.8632 24.3581Z" fill="#222222"/>
</g>
</svg>
