<svg width="154" height="19" viewBox="0 0 154 19" fill="none" xmlns="http://www.w3.org/2000/svg">
<g clip-path="url(#clip0_383_3617)">
<path d="M21.4263 7.13933C21.4035 8.94304 23.0338 9.94952 24.2619 10.548C25.5237 11.162 25.9475 11.5557 25.9425 12.1049C25.9331 12.9452 24.936 13.316 24.003 13.3305C22.3752 13.3557 21.4287 12.891 20.6762 12.5395L20.0898 15.2834C20.8448 15.6313 22.2427 15.9347 23.6922 15.948C27.095 15.948 29.3211 14.2683 29.3332 11.6641C29.3465 8.35898 24.7615 8.17604 24.7929 6.69873C24.8037 6.25078 25.2311 5.77276 26.1677 5.65122C26.6313 5.58982 27.9111 5.54283 29.3621 6.211L29.9316 3.55618C29.1513 3.27206 28.1484 3 26.8998 3C23.6971 3 21.4445 4.70253 21.4263 7.13933ZM35.4038 3.22867C34.7825 3.22867 34.2589 3.59111 34.0252 4.14729L29.1646 15.753H32.5648L33.2415 13.883H37.3964L37.7889 15.753H40.7858L38.1706 3.22867H35.4038ZM35.8795 6.61196L36.8608 11.315H34.1734L35.8795 6.61196ZM17.3038 3.22883L14.6236 15.7528H17.8637L20.5426 3.22852L17.3038 3.22883ZM12.5105 3.22883L9.13804 11.7532L7.77383 4.50502C7.61375 3.69589 6.98161 3.22867 6.27961 3.22867H0.76667L0.689453 3.59236C1.82124 3.83795 3.10714 4.23406 3.8862 4.65789C4.36297 4.91679 4.49892 5.14312 4.65555 5.75835L7.23942 15.753H10.6634L15.9129 3.22867L12.5105 3.22883Z" fill="url(#paint0_linear_383_3617)"/>
</g>
<g clip-path="url(#clip1_383_3617)">
<path d="M49.9951 18.4105V17.2192C49.9951 16.7624 49.7171 16.4646 49.2405 16.4646C49.0022 16.4646 48.7441 16.544 48.5654 16.8022C48.4264 16.5838 48.2279 16.4646 47.93 16.4646C47.7314 16.4646 47.5329 16.5241 47.374 16.7426V16.5043H46.957V18.4105H47.374V17.3581C47.374 17.0206 47.5527 16.8617 47.8308 16.8617C48.1087 16.8617 48.2478 17.0405 48.2478 17.3581V18.4105H48.6648V17.3581C48.6648 17.0206 48.8632 16.8617 49.1214 16.8617C49.3994 16.8617 49.5384 17.0405 49.5384 17.3581V18.4105H49.9951ZM56.1704 16.5043H55.4954V15.9285H55.0784V16.5043H54.7011V16.8815H55.0783V17.7553C55.0783 18.1922 55.257 18.4502 55.7336 18.4502C55.9123 18.4502 56.1108 18.3907 56.2499 18.3113L56.1307 17.9538C56.0116 18.0333 55.8726 18.0532 55.7733 18.0532C55.5748 18.0532 55.4954 17.934 55.4954 17.7354V16.8815H56.1704V16.5043ZM59.7049 16.4645C59.4667 16.4645 59.3078 16.5838 59.2085 16.7426V16.5043H58.7915V18.4105H59.2085V17.3383C59.2085 17.0206 59.3475 16.8419 59.6056 16.8419C59.685 16.8419 59.7843 16.8618 59.8638 16.8816L59.9829 16.4845C59.9035 16.4646 59.7843 16.4646 59.7049 16.4646M54.3635 16.6633C54.1649 16.5242 53.8869 16.4647 53.5891 16.4647C53.1126 16.4647 52.7949 16.703 52.7949 17.0803C52.7949 17.398 53.0332 17.5767 53.4501 17.6363L53.6487 17.6562C53.8671 17.6958 53.9863 17.7554 53.9863 17.8547C53.9863 17.9936 53.8274 18.093 53.5494 18.093C53.2714 18.093 53.053 17.9936 52.9139 17.8944L52.7154 18.2121C52.9338 18.3709 53.2317 18.4503 53.5295 18.4503C54.0855 18.4503 54.4032 18.1923 54.4032 17.8348C54.4032 17.4972 54.1451 17.3185 53.7479 17.259L53.5494 17.2391C53.3706 17.2192 53.2317 17.1796 53.2317 17.0604C53.2317 16.9214 53.3706 16.842 53.5891 16.842C53.8274 16.842 54.0657 16.9412 54.1848 17.0008L54.3635 16.6633ZM65.4435 16.4647C65.2051 16.4647 65.0463 16.5838 64.947 16.7427V16.5044H64.53V18.4106H64.947V17.3384C64.947 17.0207 65.086 16.842 65.3441 16.842C65.4236 16.842 65.5229 16.8619 65.6023 16.8817L65.7214 16.4846C65.642 16.4647 65.5229 16.4647 65.4435 16.4647ZM60.1219 17.4575C60.1219 18.0333 60.519 18.4503 61.1346 18.4503C61.4126 18.4503 61.6111 18.3908 61.8097 18.232L61.6111 17.8944C61.4523 18.0135 61.2934 18.0731 61.1147 18.0731C60.7771 18.0731 60.5389 17.8348 60.5389 17.4575C60.5389 17.1002 60.7771 16.8618 61.1147 16.842C61.2934 16.842 61.4523 16.9015 61.6111 17.0207L61.8097 16.6832C61.6111 16.5242 61.4126 16.4647 61.1346 16.4647C60.519 16.4647 60.1219 16.8817 60.1219 17.4575ZM63.9741 17.4575V16.5044H63.5571V16.7427C63.4181 16.564 63.2195 16.4647 62.9614 16.4647C62.4253 16.4647 62.0083 16.8817 62.0083 17.4575C62.0083 18.0333 62.4253 18.4503 62.9614 18.4503C63.2393 18.4503 63.438 18.3511 63.5571 18.1724V18.4106H63.9741V17.4575ZM62.4451 17.4575C62.4451 17.12 62.6635 16.842 63.0209 16.842C63.3585 16.842 63.5968 17.1002 63.5968 17.4575C63.5968 17.7951 63.3585 18.0731 63.0209 18.0731C62.6635 18.0532 62.4451 17.7951 62.4451 17.4575ZM57.4612 16.4647C56.9052 16.4647 56.508 16.8618 56.508 17.4575C56.508 18.0532 56.9051 18.4503 57.481 18.4503C57.7589 18.4503 58.037 18.3709 58.2554 18.1923L58.0568 17.8944C57.898 18.0135 57.6994 18.093 57.5009 18.093C57.2427 18.093 56.9846 17.9738 56.925 17.6362H58.3348V17.4774C58.3547 16.8618 57.9974 16.4647 57.4612 16.4647ZM57.4611 16.8221C57.7191 16.8221 57.898 16.981 57.9376 17.2789H56.9448C56.9845 17.0207 57.1632 16.8221 57.4611 16.8221ZM67.8063 17.4575V15.7499H67.3893V16.7427C67.2503 16.564 67.0517 16.4647 66.7936 16.4647C66.2575 16.4647 65.8405 16.8817 65.8405 17.4575C65.8405 18.0333 66.2575 18.4503 66.7936 18.4503C67.0716 18.4503 67.2702 18.3511 67.3893 18.1724V18.4106H67.8063V17.4575ZM66.2774 17.4575C66.2774 17.12 66.4957 16.842 66.8532 16.842C67.1908 16.842 67.429 17.1002 67.429 17.4575C67.429 17.7951 67.1908 18.0731 66.8532 18.0731C66.4957 18.0532 66.2774 17.7951 66.2774 17.4575ZM52.338 17.4575V16.5044H51.9211V16.7427C51.782 16.564 51.5835 16.4647 51.3253 16.4647C50.7892 16.4647 50.3722 16.8817 50.3722 17.4575C50.3722 18.0333 50.7892 18.4503 51.3253 18.4503C51.6034 18.4503 51.8019 18.3511 51.9211 18.1724V18.4106H52.338V17.4575ZM50.7892 17.4575C50.7892 17.12 51.0077 16.842 51.365 16.842C51.7026 16.842 51.941 17.1002 51.941 17.4575C51.941 17.7951 51.7026 18.0731 51.365 18.0731C51.0077 18.0532 50.7892 17.7951 50.7892 17.4575Z" fill="black"/>
<path d="M54.2246 2.02893H60.4794V13.2677H54.2246V2.02893Z" fill="#FF5F00"/>
<path d="M54.6218 7.64835C54.6218 5.36488 55.6941 3.33948 57.3421 2.02891C56.1309 1.07582 54.602 0.5 52.9341 0.5C48.9825 0.5 45.7856 3.69685 45.7856 7.64835C45.7856 11.5998 48.9825 14.7967 52.934 14.7967C54.6019 14.7967 56.1309 14.2209 57.3421 13.2677C55.6941 11.977 54.6218 9.93182 54.6218 7.64835Z" fill="#EB001B"/>
<path d="M68.9183 7.64835C68.9183 11.5998 65.7214 14.7967 61.7699 14.7967C60.102 14.7967 58.5731 14.2209 57.3618 13.2677C59.0298 11.9572 60.0822 9.93182 60.0822 7.64835C60.0822 5.36488 59.0099 3.33948 57.3618 2.02891C58.573 1.07582 60.102 0.5 61.7699 0.5C65.7214 0.5 68.9183 3.71675 68.9183 7.64835Z" fill="#F79E1B"/>
</g>
<g clip-path="url(#clip2_383_3617)">
<path d="M73.9414 0.5H91.9414V18.5H73.9414V0.5Z" fill="white"/>
<path d="M73.9414 0.5V18.5H91.9414V15.656H89.4574L88.5394 14.5821L87.5854 15.656H80.5294V9.93812H78.2013L81.1115 3.35012H83.9433L84.6273 4.84412V3.35012H88.1434L88.7313 4.91612L89.3073 3.35012H91.9414V0.5H73.9414ZM89.9074 4.28L88.9833 6.71612L88.7374 7.37635L88.4854 6.71612L87.5555 4.28H85.5215V9.08023H86.7455V5.95435L86.7394 5.324L86.9795 5.95435L88.1495 9.08023H89.3134L90.4895 5.95435L90.7174 5.33012V9.08023H91.9414V4.28H89.9074ZM81.7714 4.28L79.6474 9.08023H81.0392L81.4114 8.15612H83.7395L84.1114 9.08023H85.5215L83.4094 4.28H81.7714ZM82.3352 5.90612L82.5753 5.30635L82.8154 5.90612L83.3133 7.11788H81.8373L82.3352 5.90612ZM90.0035 9.94423L88.5574 11.498L87.1174 9.94423H81.5133V14.7261H85.5215V13.6883H82.7373V12.8541H85.4675V11.8224H82.7373V10.9821H85.5215V9.9443L87.7593 12.344L85.5215 14.7261H87.0695L88.5275 13.1662L89.9794 14.7261H91.5692L89.3253 12.326L91.5692 9.94423H90.0035ZM90.5853 12.3202L91.9414 13.7001V10.958L90.5853 12.3202Z" fill="#006FCF"/>
</g>
<g clip-path="url(#clip3_383_3617)">
<path d="M126.806 4.79028C124.157 4.79028 122.008 6.85985 122.008 9.41402C122.008 12.1297 124.064 14.1596 126.806 14.1596C129.481 14.1596 131.592 12.1027 131.592 9.46738C131.592 6.84759 129.495 4.79028 126.806 4.79028Z" fill="url(#paint1_linear_383_3617)"/>
<path d="M99.5646 4.95891H96.9849V13.9567H99.5511C100.913 13.9567 101.897 13.6342 102.761 12.9186C103.786 12.0686 104.394 10.7868 104.394 9.46213C104.394 6.80566 102.409 4.95891 99.5646 4.95891ZM101.616 11.7168C101.061 12.2172 100.347 12.4335 99.2124 12.4335H98.7409V6.48255H99.2124C100.347 6.48255 101.034 6.68514 101.616 7.21074C102.223 7.75047 102.585 8.58625 102.585 9.44931C102.585 10.3143 102.223 11.1792 101.616 11.7168ZM105.204 13.9567H106.957V4.95891H105.204L105.204 13.9567ZM111.25 8.41039C110.196 8.02 109.886 7.76251 109.886 7.27856C109.886 6.71143 110.438 6.28007 111.195 6.28007C111.721 6.28007 112.152 6.49581 112.613 7.00693L113.529 5.80805C112.773 5.14559 111.87 4.80878 110.884 4.80878C109.293 4.80878 108.078 5.91564 108.078 7.38483C108.078 8.62712 108.644 9.26064 110.291 9.85582C110.979 10.0974 111.329 10.2586 111.505 10.3687C111.856 10.5981 112.032 10.9208 112.032 11.2983C112.032 12.028 111.451 12.5669 110.668 12.5669C109.831 12.5669 109.157 12.1491 108.752 11.3667L107.62 12.4607C108.428 13.6463 109.4 14.1742 110.737 14.1742C112.558 14.1742 113.839 12.9583 113.839 11.2184C113.839 9.788 113.247 9.1399 111.25 8.41039ZM114.392 9.46224C114.392 12.1095 116.471 14.1598 119.143 14.1598C119.898 14.1598 120.546 14.0104 121.343 13.6341V11.5687C120.64 12.271 120.019 12.5536 119.223 12.5536C117.456 12.5536 116.2 11.2715 116.2 9.44931C116.2 7.72318 117.495 6.36027 119.143 6.36027C119.978 6.36027 120.613 6.65687 121.343 7.37191V5.30676C120.574 4.91682 119.938 4.75598 119.183 4.75598C116.524 4.75598 114.392 6.84764 114.392 9.46224ZM135.563 11.003L133.161 4.95891H131.245L135.065 14.1866H136.009L139.895 4.9588H137.993L135.563 11.003ZM140.693 13.9568H145.671V12.4335H142.447V10.0032H145.548V8.47965H142.447V6.48244H145.671V4.95902H140.693L140.693 13.9568ZM152.618 7.61438C152.618 5.92879 151.459 4.95891 149.434 4.95891H146.83V13.9567H148.586V10.3404H148.815L151.243 13.9567H153.402L150.566 10.1667C151.891 9.89581 152.618 8.99144 152.618 7.61438ZM149.096 9.10035H148.586V6.37385H149.124C150.22 6.37385 150.813 6.83394 150.813 7.7096C150.813 8.61287 150.22 9.10035 149.096 9.10035Z" fill="#0B1015"/>
</g>
<defs>
<linearGradient id="paint0_linear_383_3617" x1="1844.08" y1="41.9217" x2="1881.56" y2="-1287.86" gradientUnits="userSpaceOnUse">
<stop stop-color="#222357"/>
<stop offset="1" stop-color="#254AA5"/>
</linearGradient>
<linearGradient id="paint1_linear_383_3617" x1="308.075" y1="89.7044" x2="955.674" y2="773.688" gradientUnits="userSpaceOnUse">
<stop stop-color="#F34F26"/>
<stop offset="1" stop-color="#F69E35"/>
</linearGradient>
<clipPath id="clip0_383_3617">
<rect width="40.0964" height="13" fill="white" transform="translate(0.689453 3)"/>
</clipPath>
<clipPath id="clip1_383_3617">
<rect width="23.1558" height="18" fill="white" transform="translate(45.7856 0.5)"/>
</clipPath>
<clipPath id="clip2_383_3617">
<rect width="18" height="18" fill="white" transform="translate(73.9414 0.5)"/>
</clipPath>
<clipPath id="clip3_383_3617">
<rect width="56.5581" height="9.5" fill="white" transform="translate(96.9414 4.75)"/>
</clipPath>
</defs>
</svg>
