<svg width="64" height="64" viewBox="0 0 64 64" fill="none" xmlns="http://www.w3.org/2000/svg">
<rect x="0.5" y="0.5" width="63" height="63" rx="31.5" fill="#F7F7F7"/>
<rect x="0.5" y="0.5" width="63" height="63" rx="31.5" stroke="#F5F5F5"/>
<path d="M26.666 23.6665C26.1193 23.6665 25.666 23.2132 25.666 22.6665V18.6665C25.666 18.1198 26.1193 17.6665 26.666 17.6665C27.2127 17.6665 27.666 18.1198 27.666 18.6665V22.6665C27.666 23.2132 27.2127 23.6665 26.666 23.6665Z" fill="#667085"/>
<path d="M37.334 23.6665C36.7873 23.6665 36.334 23.2132 36.334 22.6665V18.6665C36.334 18.1198 36.7873 17.6665 37.334 17.6665C37.8807 17.6665 38.334 18.1198 38.334 18.6665V22.6665C38.334 23.2132 37.8807 23.6665 37.334 23.6665Z" fill="#667085"/>
<path d="M37.3333 46.3332H26.6667C21.8 46.3332 19 43.5332 19 38.6665V27.3332C19 22.4665 21.8 19.6665 26.6667 19.6665H37.3333C42.2 19.6665 45 22.4665 45 27.3332V38.6665C45 43.5332 42.2 46.3332 37.3333 46.3332ZM26.6667 21.6665C22.8533 21.6665 21 23.5198 21 27.3332V38.6665C21 42.4798 22.8533 44.3332 26.6667 44.3332H37.3333C41.1467 44.3332 43 42.4798 43 38.6665V27.3332C43 23.5198 41.1467 21.6665 37.3333 21.6665H26.6667Z" fill="#667085"/>
<path d="M37.3327 31.6665H26.666C26.1193 31.6665 25.666 31.2132 25.666 30.6665C25.666 30.1198 26.1193 29.6665 26.666 29.6665H37.3327C37.8793 29.6665 38.3327 30.1198 38.3327 30.6665C38.3327 31.2132 37.8793 31.6665 37.3327 31.6665Z" fill="#667085"/>
<path d="M31.9993 38.3335H26.666C26.1193 38.3335 25.666 37.8802 25.666 37.3335C25.666 36.7868 26.1193 36.3335 26.666 36.3335H31.9993C32.546 36.3335 32.9993 36.7868 32.9993 37.3335C32.9993 37.8802 32.546 38.3335 31.9993 38.3335Z" fill="#667085"/>
</svg>
